<?xml version="1.0" encoding="utf-8"?>
<!-- Generator: Adobe Illustrator 17.0.0, SVG Export Plug-In . SVG Version: 6.00 Build 0)  -->
<!DOCTYPE svg PUBLIC "-//W3C//DTD SVG 1.1//EN" "http://www.w3.org/Graphics/SVG/1.1/DTD/svg11.dtd">
<svg version="1.1" id="Layer_1" xmlns="http://www.w3.org/2000/svg" xmlns:xlink="http://www.w3.org/1999/xlink" x="0px" y="0px"
	 width="32px" height="32px" viewBox="0 0 32 32" enable-background="new 0 0 32 32" xml:space="preserve">
<g>
	<path d="M8.915,16.556H8.191c-1.548,0-2.803,1.255-2.803,2.803v0.777c0,0.489,0.396,0.885,0.885,0.885h9.353
		c0.489,0,0.885-0.396,0.885-0.885v-0.777c0-1.548-1.255-2.803-2.803-2.803h-0.724c-0.376,0-0.68-0.304-0.68-0.68
		c0-0.14,0.056-0.273,0.156-0.37c0.421-0.41,0.775-0.96,1.031-1.554c0.052,0.039,0.108,0.066,0.171,0.066
		c0.407,0,0.884-0.898,0.884-1.51S14.491,11.4,14.084,11.4c-0.048,0-0.099,0.008-0.151,0.021c-0.029-1.66-0.448-3.731-2.982-3.731
		c-2.644,0-2.953,2.067-2.982,3.725C7.931,11.408,7.893,11.4,7.859,11.4c-0.407,0-0.463,0.496-0.463,1.108s0.477,1.51,0.884,1.51
		c0.05,0,0.097-0.014,0.14-0.039c0.255,0.583,0.605,1.123,1.019,1.527c0.1,0.097,0.156,0.231,0.156,0.37
		C9.595,16.252,9.291,16.556,8.915,16.556z"/>
	<path d="M22.757,9.522c0-0.362-0.294-0.656-0.656-0.656h-7.844c0.226,0.501,0.388,1.117,0.455,1.88
		c0.168,0.103,0.293,0.27,0.396,0.472h6.992c0.362,0,0.656-0.294,0.656-0.656V9.522z"/>
	<path d="M22.681,15.14c0.045-0.089,0.076-0.185,0.076-0.291v-1.04c0-0.362-0.294-0.656-0.656-0.656h-6.832
		c-0.185,0.701-0.643,1.433-1.274,1.63c-0.019,0.035-0.041,0.065-0.06,0.099v0.623h7.927C22.127,15.367,22.4,15.247,22.681,15.14z"
		/>
	<path d="M18.036,19.789c0.33-0.865,0.801-1.659,1.392-2.352h-2.66c0.351,0.557,0.558,1.215,0.558,1.921v0.431H18.036z"/>
	<path d="M4.724,25.229c-1.523,0-2.762-1.676-2.762-3.736V8.415c0-2.06,1.239-3.736,2.762-3.736h19.927
		c1.523,0,2.762,1.676,2.762,3.736v6.409c0.642,0.151,1.254,0.378,1.827,0.672V8.415c0-3.067-2.059-5.562-4.588-5.562H4.724
		c-2.53,0-4.588,2.495-4.588,5.562v13.078c0,3.067,2.059,5.562,4.588,5.562h14.085c-0.368-0.564-0.665-1.177-0.884-1.827H4.724z"/>
	<path d="M25.559,16.621c-3.499,0-6.336,2.837-6.336,6.336s2.837,6.336,6.336,6.336s6.336-2.837,6.336-6.336
		S29.059,16.621,25.559,16.621z M29.115,23.251c0,0.291-0.236,0.526-0.526,0.526h-2.21v2.21c0,0.291-0.236,0.526-0.526,0.526h-0.587
		c-0.291,0-0.526-0.236-0.526-0.526v-2.21h-2.21c-0.291,0-0.526-0.236-0.526-0.526v-0.587c0-0.291,0.236-0.526,0.526-0.526h2.21
		v-2.21c0-0.291,0.236-0.526,0.526-0.526h0.587c0.291,0,0.526,0.236,0.526,0.526v2.21h2.21c0.291,0,0.526,0.236,0.526,0.526V23.251z
		"/>
</g>
</svg>
