<?xml version="1.0" encoding="utf-8"?>
<!-- Generator: Adobe Illustrator 17.0.0, SVG Export Plug-In . SVG Version: 6.00 Build 0)  -->
<!DOCTYPE svg PUBLIC "-//W3C//DTD SVG 1.1//EN" "http://www.w3.org/Graphics/SVG/1.1/DTD/svg11.dtd">
<svg version="1.1" id="Layer_1" xmlns="http://www.w3.org/2000/svg" xmlns:xlink="http://www.w3.org/1999/xlink" x="0px" y="0px"
	 width="32px" height="32px" viewBox="0 0 32 32" enable-background="new 0 0 32 32" xml:space="preserve">
<g>
	<path d="M15.692,21.391H14.92c-0.401,0-0.726-0.325-0.726-0.726c0-0.149,0.06-0.291,0.166-0.395c0.449-0.438,0.827-1.025,1.1-1.658
		c0.056,0.041,0.115,0.07,0.182,0.07c0.434,0,0.943-0.958,0.943-1.611c0-0.653-0.06-1.182-0.494-1.182
		c-0.051,0-0.106,0.009-0.162,0.023c-0.031-1.771-0.478-3.981-3.183-3.981c-2.822,0-3.151,2.205-3.183,3.975
		c-0.04-0.007-0.08-0.016-0.117-0.016c-0.434,0-0.494,0.529-0.494,1.182c0,0.653,0.509,1.611,0.943,1.611
		c0.054,0,0.103-0.015,0.15-0.042c0.272,0.623,0.645,1.199,1.088,1.63c0.106,0.104,0.166,0.246,0.166,0.395
		c0,0.401-0.325,0.726-0.726,0.726H9.804c-1.652,0-2.991,1.339-2.991,2.991v0.829c0,0.522,0.423,0.944,0.944,0.944h9.981
		c0.522,0,0.944-0.423,0.944-0.944v-0.829C18.683,22.73,17.344,21.391,15.692,21.391z"/>
	<path d="M24.647,13.186h-8.37c0.242,0.535,0.414,1.193,0.486,2.007c0.179,0.11,0.313,0.288,0.423,0.503h7.461
		c0.387,0,0.7-0.313,0.7-0.7v-1.11C25.347,13.499,25.033,13.186,24.647,13.186z"/>
	<path d="M24.647,17.759h-7.29c-0.198,0.748-0.686,1.53-1.36,1.739c-0.02,0.037-0.043,0.07-0.064,0.106v0.665h8.713
		c0.387,0,0.7-0.313,0.7-0.7v-1.11C25.347,18.072,25.033,17.759,24.647,17.759z"/>
	<path d="M24.647,22.332h-5.691c0.375,0.595,0.595,1.296,0.595,2.05v0.46h5.095c0.387,0,0.7-0.313,0.7-0.7v-1.11
		C25.347,22.645,25.033,22.332,24.647,22.332z"/>
	<path d="M27.654,6.208h-7.2v-6.212H12.25v6.212H4.505c-2.374,0-4.299,1.925-4.299,4.299v17.072c0,2.374,1.925,4.299,4.299,4.299
		h23.149c2.374,0,4.299-1.925,4.299-4.299V10.507C31.953,8.132,30.029,6.208,27.654,6.208z M14.279,2.026h4.145V8.37h-4.145V2.026z
		 M29.924,27.579c0,1.251-1.018,2.269-2.269,2.269H4.505c-1.251,0-2.269-1.018-2.269-2.269V10.507c0-1.251,1.018-2.269,2.269-2.269
		h7.744v2.162h8.205V8.238h7.2c1.251,0,2.269,1.018,2.269,2.269V27.579z"/>
	<circle cx="16.425" cy="4.685" r="0.888"/>
</g>
</svg>
