<?xml version="1.0" encoding="utf-8"?>
<!-- Generator: Adobe Illustrator 17.0.0, SVG Export Plug-In . SVG Version: 6.00 Build 0)  -->
<!DOCTYPE svg PUBLIC "-//W3C//DTD SVG 1.1//EN" "http://www.w3.org/Graphics/SVG/1.1/DTD/svg11.dtd">
<svg version="1.1" id="Layer_1" xmlns="http://www.w3.org/2000/svg" xmlns:xlink="http://www.w3.org/1999/xlink" x="0px" y="0px"
	 width="32px" height="32px" viewBox="0 0 32 32" enable-background="new 0 0 32 32" xml:space="preserve">
<g>
	<path d="M17.893,20.42h-0.671c-0.348,0-0.631-0.282-0.631-0.631c0-0.13,0.052-0.253,0.145-0.343c0.39-0.38,0.719-0.891,0.956-1.442
		c0.049,0.036,0.1,0.061,0.159,0.061c0.377,0,0.82-0.833,0.82-1.401c0-0.568-0.052-1.028-0.429-1.028
		c-0.045,0-0.092,0.007-0.14,0.02c-0.027-1.539-0.416-3.461-2.767-3.461c-2.453,0-2.739,1.917-2.767,3.455
		c-0.034-0.007-0.069-0.014-0.101-0.014c-0.377,0-0.429,0.46-0.429,1.028c0,0.568,0.443,1.401,0.82,1.401
		c0.047,0,0.09-0.013,0.13-0.036c0.237,0.541,0.561,1.042,0.946,1.417c0.093,0.09,0.145,0.214,0.145,0.343
		c0,0.348-0.282,0.631-0.631,0.631h-0.671c-1.436,0-2.6,1.164-2.6,2.6v0.721c0,0.453,0.368,0.821,0.821,0.821h8.676
		c0.453,0,0.821-0.368,0.821-0.821V23.02C20.492,21.584,19.329,20.42,17.893,20.42z"/>
	<path d="M25.677,13.287h-7.276c0.21,0.465,0.36,1.037,0.423,1.744c0.156,0.096,0.272,0.251,0.367,0.437h6.486
		c0.336,0,0.608-0.272,0.608-0.608v-0.965C26.285,13.559,26.013,13.287,25.677,13.287z"/>
	<path d="M25.677,17.262H19.34c-0.172,0.65-0.596,1.33-1.182,1.512c-0.017,0.032-0.038,0.06-0.055,0.092v0.578h7.574
		c0.336,0,0.608-0.272,0.608-0.608v-0.965C26.285,17.535,26.013,17.262,25.677,17.262z"/>
	<path d="M25.677,21.238H20.73c0.326,0.517,0.518,1.127,0.518,1.782v0.4h4.429c0.336,0,0.608-0.272,0.608-0.608v-0.965
		C26.285,21.51,26.013,21.238,25.677,21.238z"/>
	<path d="M28.291,7.221H8.168c-2.064,0-3.737,1.673-3.737,3.737v14.841c0,2.064,1.673,3.737,3.737,3.737h20.123
		c2.064,0,3.737-1.673,3.737-3.737V10.958C32.029,8.894,30.355,7.221,28.291,7.221z M30.264,25.799c0,1.088-0.885,1.973-1.973,1.973
		H8.168c-1.088,0-1.973-0.885-1.973-1.973V10.958c0-1.088,0.885-1.973,1.973-1.973h20.123c1.088,0,1.973,0.885,1.973,1.973V25.799z"
		/>
	<path d="M3.759,4.985h13.112h6.373h0.638c0.822,0,1.526,0.506,1.822,1.221h1.839c-0.348-1.704-1.855-2.986-3.661-2.986h-1.494
		h-4.987H3.759c-2.064,0-3.737,1.673-3.737,3.737v14.841c0,1.946,1.493,3.527,3.394,3.703v-1.765
		c-0.924-0.164-1.629-0.968-1.629-1.938V6.957C1.787,5.87,2.672,4.985,3.759,4.985z"/>
</g>
</svg>
