<?xml version="1.0" encoding="utf-8"?>
<!-- Generator: Adobe Illustrator 17.0.0, SVG Export Plug-In . SVG Version: 6.00 Build 0)  -->
<!DOCTYPE svg PUBLIC "-//W3C//DTD SVG 1.1//EN" "http://www.w3.org/Graphics/SVG/1.1/DTD/svg11.dtd">
<svg version="1.1" id="Layer_1" xmlns="http://www.w3.org/2000/svg" xmlns:xlink="http://www.w3.org/1999/xlink" x="0px" y="0px"
	 width="32px" height="32px" viewBox="0 0 32 32" enable-background="new 0 0 32 32" xml:space="preserve">
<path d="M20.244,26.165c0-2.852-2.312-5.164-5.164-5.164h-1.333c-0.692,0-1.253-0.561-1.253-1.253c0-0.257,0.104-0.503,0.287-0.682
	c0.198-0.192,0.386-0.402,0.567-0.625c1.222,0.119,2.038,0.382,2.575,0.648c0.212,0.105,0.463,0.096,0.667-0.025
	c0.204-0.121,0.332-0.336,0.342-0.573c0.074-1.781,0.19-5.076,0.19-8.283c0-5.572-6.745-5.549-7.165-5.542
	c-0.42-0.007-7.165-0.029-7.165,5.542c0,3.207,0.116,6.502,0.19,8.283c0.01,0.237,0.139,0.452,0.342,0.573
	c0.204,0.121,0.455,0.13,0.667,0.025c0.547-0.272,1.386-0.54,2.651-0.655c0.182,0.225,0.372,0.438,0.571,0.632
	C7.396,19.245,7.5,19.491,7.5,19.748c0,0.692-0.561,1.253-1.253,1.253H4.914c-2.852,0-5.164,2.312-5.164,5.164v1.431
	c0,0.901,0.73,1.631,1.631,1.631h17.233c0.901,0,1.631-0.73,1.631-1.631V26.165z"/>
<g>
	<path d="M21.55,24.64c-0.029-0.122-0.048-0.248-0.084-0.367C21.501,24.392,21.521,24.518,21.55,24.64z"/>
	<path d="M21.744,26.165c0-0.331-0.026-0.656-0.073-0.974C21.718,25.509,21.744,25.834,21.744,26.165z"/>
	<path d="M21.213,23.598c-0.026-0.062-0.045-0.127-0.073-0.188C21.168,23.471,21.187,23.536,21.213,23.598z"/>
	<path d="M18.618,11.167h11.924c0.667,0,1.208-0.541,1.208-1.208V8.042c0-0.667-0.541-1.208-1.208-1.208H17.743
		c0.568,0.975,0.879,2.106,0.879,3.375C18.622,10.527,18.62,10.847,18.618,11.167z"/>
	<path d="M18.343,19.062h12.198c0.667,0,1.208-0.541,1.208-1.208v-1.917c0-0.667-0.541-1.208-1.208-1.208H18.559
		c-0.04,1.557-0.09,2.921-0.128,3.824C18.424,18.729,18.39,18.898,18.343,19.062z"/>
	<path d="M21.213,23.598c0.093,0.221,0.183,0.442,0.252,0.674c0.036,0.119,0.055,0.245,0.084,0.367
		c0.043,0.183,0.094,0.363,0.121,0.551c0.047,0.318,0.073,0.643,0.073,0.974v0.794h8.798c0.667,0,1.208-0.541,1.208-1.208v-1.917
		c0-0.667-0.541-1.208-1.208-1.208h-9.826c0.027,0.043,0.046,0.09,0.072,0.133c0.127,0.212,0.249,0.426,0.352,0.652
		C21.168,23.471,21.187,23.536,21.213,23.598z"/>
</g>
</svg>
