<?xml version="1.0" encoding="utf-8"?>
<!-- Generator: Adobe Illustrator 17.0.0, SVG Export Plug-In . SVG Version: 6.00 Build 0)  -->
<!DOCTYPE svg PUBLIC "-//W3C//DTD SVG 1.1//EN" "http://www.w3.org/Graphics/SVG/1.1/DTD/svg11.dtd">
<svg version="1.1" id="Layer_1" xmlns="http://www.w3.org/2000/svg" xmlns:xlink="http://www.w3.org/1999/xlink" x="0px" y="0px"
	 width="32px" height="32px" viewBox="0 0 32 32" enable-background="new 0 0 32 32" xml:space="preserve">
<g>
	<path d="M23.637,6.291h-1.898v5.398H11.082V6.291H8.585c-2.378,0-4.305,1.928-4.305,4.305v17.098C4.28,30.072,6.208,32,8.585,32
		h15.051c2.378,0,4.306-1.928,4.306-4.305V10.597C27.942,8.219,26.015,6.291,23.637,6.291z M22.924,28.171
		c0,0.576-0.467,1.043-1.043,1.043H10.858c-0.576,0-1.043-0.467-1.043-1.043v-0.915c0-1.824,1.479-3.303,3.303-3.303h0.853
		c0.443,0,0.801-0.359,0.801-0.801c0-0.164-0.066-0.322-0.184-0.436c-0.489-0.476-0.901-1.112-1.201-1.8
		c-0.051,0.03-0.106,0.046-0.165,0.046c-0.479,0-1.041-1.058-1.041-1.779c0-0.721,0.066-1.306,0.545-1.306
		c0.041,0,0.085,0.01,0.129,0.018c0.035-1.954,0.399-4.389,3.515-4.389c2.987,0,3.481,2.441,3.515,4.396
		c0.062-0.016,0.122-0.025,0.178-0.025c0.479,0,0.545,0.585,0.545,1.306c0,0.721-0.562,1.779-1.041,1.779
		c-0.074,0-0.14-0.032-0.202-0.078c-0.302,0.7-0.719,1.348-1.215,1.831c-0.118,0.115-0.184,0.272-0.184,0.436
		c0,0.443,0.359,0.801,0.801,0.801h0.853c1.824,0,3.303,1.479,3.303,3.303V28.171z"/>
	<path d="M20.492,0.07h-8.217v10.419h8.217V0.07z M18.459,8.456h-4.151V2.103h4.151V8.456z"/>
	<circle cx="16.457" cy="4.767" r="0.889"/>
</g>
</svg>
