<?xml version="1.0" encoding="utf-8"?>
<!-- Generator: Adobe Illustrator 17.0.0, SVG Export Plug-In . SVG Version: 6.00 Build 0)  -->
<!DOCTYPE svg PUBLIC "-//W3C//DTD SVG 1.1//EN" "http://www.w3.org/Graphics/SVG/1.1/DTD/svg11.dtd">
<svg version="1.1" id="Layer_1" xmlns="http://www.w3.org/2000/svg" xmlns:xlink="http://www.w3.org/1999/xlink" x="0px" y="0px"
	 width="32px" height="32px" viewBox="0 0 32 32" enable-background="new 0 0 32 32" xml:space="preserve">
<g>
	<path d="M9.028,18.471c0.082,0.662,0.697,1.606,1.122,1.606c0.052,0,0.1-0.015,0.142-0.041c0.309,0.565,0.698,1.071,1.127,1.463
		h3.213c0.389-0.398,0.724-0.915,0.967-1.491c0.055,0.04,0.114,0.068,0.18,0.068c0.425,0,0.93-0.945,0.935-1.606
		c0.005-0.677-0.053-1.237-0.499-1.237c-0.053,0-0.109,0.009-0.166,0.024c-0.041-1.952-0.549-4.572-3.54-4.572
		c-2.789,0-3.191,2.615-3.004,4.565c-0.042-0.008-0.084-0.018-0.122-0.018C8.937,17.234,8.945,17.794,9.028,18.471z"/>
	<path d="M25.884,16.264l0.195-1.249c0.07-0.447-0.211-0.814-0.629-0.814H16.41c0.257,0.624,0.436,1.375,0.503,2.28
		c0.185,0.12,0.321,0.314,0.431,0.546h7.699C25.441,17.026,25.818,16.688,25.884,16.264z"/>
	<path d="M24.386,21.575c0.369,0,0.713-0.29,0.77-0.651l0.166-1.065c0.059-0.38-0.204-0.692-0.588-0.692h-7.257
		c-0.209,0.739-0.695,1.492-1.348,1.69c-0.019,0.035-0.042,0.066-0.061,0.1l0.003,0.619H24.386z"/>
	<path d="M4.245,21.188l-1.482-9.885c0-1.216,0.989-2.206,2.206-2.206H27.47c1.216,0,2.206,0.989,2.206,2.206l-1.318,9.772h1.973
		l1.318-9.772c0-2.308-1.871-4.179-4.179-4.179H4.969c-2.308,0-4.179,1.871-4.179,4.179l1.482,9.885H4.245z"/>
	<path d="M1.937,22.483c-0.409,0-0.797,0.178-1.065,0.487s-0.387,0.719-0.328,1.124L1.695,32h29.14l1.151-7.907
		c0.059-0.404-0.061-0.815-0.328-1.124c-0.267-0.309-0.656-0.487-1.065-0.487H1.937z"/>
	<path d="M26.09,5.548l0.356-1.543c0.036-0.156-0.001-0.321-0.101-0.446c-0.1-0.126-0.251-0.199-0.412-0.199H5.716
		c-0.165,0-0.32,0.076-0.422,0.205c-0.102,0.13-0.138,0.299-0.098,0.459l0.377,1.523H26.09z"/>
	<path d="M24.064,2.15l0.29-1.565c0.029-0.154-0.013-0.312-0.113-0.432c-0.1-0.12-0.248-0.19-0.405-0.19H7.798
		c-0.158,0-0.307,0.071-0.407,0.192c-0.1,0.122-0.14,0.282-0.109,0.436L7.591,2.15H24.064z"/>
</g>
</svg>
