<?xml version="1.0" encoding="utf-8"?>
<!-- Generator: Adobe Illustrator 17.0.0, SVG Export Plug-In . SVG Version: 6.00 Build 0)  -->
<!DOCTYPE svg PUBLIC "-//W3C//DTD SVG 1.1//EN" "http://www.w3.org/Graphics/SVG/1.1/DTD/svg11.dtd">
<svg version="1.1" id="Layer_1" xmlns="http://www.w3.org/2000/svg" xmlns:xlink="http://www.w3.org/1999/xlink" x="0px" y="0px"
	 width="32px" height="32px" viewBox="0 0 32 32" enable-background="new 0 0 32 32" xml:space="preserve">
<g>
	<path d="M23.004,26.13c0-1.824-1.479-3.303-3.303-3.303h-0.853c-0.443,0-0.801-0.359-0.801-0.801c0-0.164,0.066-0.322,0.184-0.436
		c0.496-0.483,0.913-1.132,1.215-1.831c0.062,0.046,0.127,0.078,0.202,0.078c0.479,0,1.041-1.058,1.041-1.779
		c0-0.721-0.066-1.306-0.545-1.306c-0.057,0-0.117,0.01-0.178,0.025c-0.034-1.956-0.528-4.396-3.515-4.396
		c-3.116,0-3.48,2.435-3.515,4.389c-0.044-0.008-0.088-0.018-0.129-0.018c-0.479,0-0.545,0.585-0.545,1.306
		c0,0.721,0.562,1.779,1.041,1.779c0.059,0,0.114-0.017,0.165-0.046c0.301,0.687,0.713,1.324,1.201,1.8
		c0.117,0.115,0.184,0.272,0.184,0.436c0,0.443-0.359,0.801-0.801,0.801h-0.853c-1.824,0-3.303,1.479-3.303,3.303v0.915
		c0,0.576,0.467,1.043,1.043,1.043h11.022c0.576,0,1.043-0.467,1.043-1.043V26.13z"/>
	<path d="M28.023,10.597c0-2.378-1.928-4.305-4.305-4.305h-3.145V0.07h-8.217v6.221h-3.69c-2.378,0-4.305,1.928-4.305,4.305v17.098
		C4.361,30.072,6.288,32,8.666,32h15.051c2.378,0,4.305-1.928,4.305-4.305V10.597z M14.389,2.103h4.151v6.353h-4.151V2.103z
		 M25.99,27.695c0,1.253-1.019,2.273-2.273,2.273H8.666c-1.253,0-2.272-1.019-2.272-2.273V10.597c0-1.253,1.019-2.273,2.272-2.273
		h3.69v2.165h8.217V8.324h3.145c1.253,0,2.273,1.019,2.273,2.273V27.695z"/>
	<circle cx="16.537" cy="4.767" r="0.889"/>
</g>
</svg>
