<?xml version="1.0" encoding="utf-8"?>
<!-- Generator: Adobe Illustrator 17.0.0, SVG Export Plug-In . SVG Version: 6.00 Build 0)  -->
<!DOCTYPE svg PUBLIC "-//W3C//DTD SVG 1.1//EN" "http://www.w3.org/Graphics/SVG/1.1/DTD/svg11.dtd">
<svg version="1.1" id="Layer_1" xmlns="http://www.w3.org/2000/svg" xmlns:xlink="http://www.w3.org/1999/xlink" x="0px" y="0px"
	 width="32px" height="32px" viewBox="0 0 32 32" enable-background="new 0 0 32 32" xml:space="preserve">
<g>
	<path d="M27.359,6.56h-7.497V0.062h-7.724V6.56H4.641c-2.393,0-4.333,1.94-4.333,4.333v16.711c0,2.393,1.94,4.333,4.333,4.333
		h22.718c2.393,0,4.333-1.94,4.333-4.333V10.893C31.692,8.5,29.752,6.56,27.359,6.56z M14.1,2.024H17.9v6.367L14.1,8.399V2.024z
		 M19.174,26.657c0,0.636-0.516,1.152-1.152,1.152H5.851c-0.636,0-1.152-0.516-1.152-1.152v-1.011c0-2.014,1.633-3.647,3.647-3.647
		h0.942c0.489,0,0.885-0.396,0.885-0.885c0-0.182-0.073-0.355-0.203-0.482c-0.539-0.526-0.994-1.228-1.326-1.988
		c-0.056,0.033-0.117,0.051-0.183,0.051c-0.529,0-1.15-1.169-1.15-1.965c0-0.797,0.073-1.442,0.602-1.442
		c0.045,0,0.094,0.011,0.142,0.02c0.038-2.158,0.44-4.847,3.881-4.847c3.298,0,3.844,2.695,3.881,4.855
		c0.068-0.017,0.135-0.028,0.197-0.028c0.529,0,0.602,0.646,0.602,1.442c0,0.796-0.621,1.965-1.15,1.965
		c-0.082,0-0.154-0.036-0.222-0.086c-0.333,0.772-0.794,1.489-1.341,2.022c-0.13,0.126-0.203,0.3-0.203,0.482
		c0,0.489,0.396,0.885,0.885,0.885h0.942c2.014,0,3.647,1.633,3.647,3.647V26.657z M27.301,25.353c0,0.471-0.382,0.854-0.853,0.854
		h-6.214v-0.561c0-0.919-0.269-1.775-0.726-2.5h6.94c0.471,0,0.853,0.382,0.853,0.853V25.353z M27.301,19.776
		c0,0.471-0.382,0.853-0.853,0.853H15.821v-0.811c0.025-0.044,0.053-0.084,0.078-0.129c0.821-0.255,1.417-1.209,1.658-2.121h8.891
		c0.471,0,0.853,0.382,0.853,0.853V19.776z M27.301,14.199c0,0.471-0.382,0.853-0.853,0.853h-9.099
		c-0.134-0.262-0.297-0.479-0.516-0.614c-0.088-0.993-0.298-1.795-0.593-2.447h10.208c0.471,0,0.853,0.382,0.853,0.854V14.199z"/>
	<circle cx="16.125" cy="4.271" r="0.875"/>
</g>
</svg>
