<?xml version="1.0" encoding="utf-8"?>
<!-- Generator: Adobe Illustrator 16.0.0, SVG Export Plug-In . SVG Version: 6.00 Build 0)  -->
<!DOCTYPE svg PUBLIC "-//W3C//DTD SVG 1.1//EN" "http://www.w3.org/Graphics/SVG/1.1/DTD/svg11.dtd">
<svg version="1.1" id="Layer_1" xmlns="http://www.w3.org/2000/svg" xmlns:xlink="http://www.w3.org/1999/xlink" x="0px" y="0px"
	 width="32px" height="32px" viewBox="0 0 32 32" enable-background="new 0 0 32 32" xml:space="preserve">
<g>
	<path d="M12.94,18.318h-0.777c-0.403,0-0.73-0.326-0.73-0.729c0-0.149,0.06-0.293,0.167-0.397c0.452-0.438,0.832-1.029,1.107-1.667
		c0.056,0.041,0.116,0.071,0.184,0.071c0.436,0,0.949-0.964,0.949-1.621c0-0.657-0.06-1.19-0.497-1.19
		c-0.052,0-0.106,0.009-0.162,0.023C13.15,11.026,12.7,8.803,9.979,8.803c-2.839,0-3.17,2.219-3.202,3.999
		c-0.04-0.008-0.08-0.017-0.117-0.017c-0.437,0-0.497,0.533-0.497,1.19c0,0.657,0.512,1.621,0.949,1.621
		c0.054,0,0.104-0.015,0.151-0.042c0.274,0.626,0.649,1.206,1.094,1.641c0.107,0.104,0.167,0.246,0.167,0.396
		c0,0.403-0.327,0.729-0.73,0.729H7.016c-1.662,0-3.009,1.348-3.009,3.01v0.834c0,0.523,0.425,0.95,0.95,0.95h10.041
		c0.525,0,0.95-0.427,0.95-0.95V21.33C15.949,19.666,14.603,18.318,12.94,18.318z"/>
	<path d="M22.122,9.867c-3.385,0-5.937,2.598-5.937,6.042c0,3.307,2.512,5.036,4.991,5.036c1.166,0,1.976-0.159,2.886-0.569
		c0.114-0.052,0.174-0.183,0.136-0.302l-0.273-0.881c-0.021-0.07-0.073-0.127-0.144-0.156c-0.067-0.028-0.146-0.025-0.212,0.009
		c-0.546,0.287-1.326,0.458-2.087,0.458c-2.246,0-3.642-1.431-3.642-3.732c0-2.938,2.066-4.476,4.109-4.476
		c2.057,0,3.385,1.28,3.385,3.261c0,1.599-0.707,2.317-1.218,2.317c-0.091-0.003-0.114-0.033-0.127-0.047
		c-0.056-0.068-0.132-0.287-0.015-0.984l0.482-2.984l-0.15-0.085c-0.428-0.239-1.238-0.412-1.934-0.412
		c-2.473,0-3.807,1.953-3.807,3.79c0,1.333,0.785,2.227,1.953,2.227c0.742,0,1.381-0.298,1.869-0.868
		c0.229,0.552,0.734,0.868,1.429,0.868c1.849,0,3.138-1.59,3.138-3.867C26.96,11.82,24.925,9.867,22.122,9.867z M22.147,15.277
		c-0.127,0.815-0.653,1.384-1.045,1.384c-0.338,0-0.51-0.232-0.51-0.691c0-1.052,0.69-1.908,1.543-1.908
		c0.067,0,0.133,0.004,0.188,0.011L22.147,15.277z"/>
	<path d="M27.643,3.043H4.353c-2.389,0-4.325,1.936-4.325,4.325v17.176c0,1.979,1.339,3.631,3.155,4.146
		c0.375,0.105,0.762,0.182,1.171,0.182h0.81c0.069-1.076,0.955-1.934,2.048-1.934c1.093,0,1.979,0.857,2.048,1.934h2.001h1.329
		h2.001c0.069-1.076,0.955-1.934,2.047-1.934c1.094,0,1.979,0.857,2.049,1.934h2.001h1.028h2c0.068-1.076,0.955-1.934,2.049-1.934
		c1.087,0,1.969,0.85,2.046,1.916c0.704-0.025,1.36-0.226,1.94-0.551c1.317-0.74,2.221-2.136,2.221-3.757V7.368
		C31.968,4.98,30.03,3.043,27.643,3.043z M29.925,24.545c0,0.796-0.41,1.496-1.029,1.905c-0.744-0.915-1.864-1.513-3.135-1.513
		c-1.438,0-2.694,0.758-3.414,1.891h-2.295c-0.721-1.133-1.977-1.891-3.414-1.891c-1.439,0-2.695,0.758-3.417,1.891h-2.595
		c-0.721-1.133-1.976-1.891-3.415-1.891c-1.412,0-2.652,0.729-3.379,1.823c-1.007-0.235-1.762-1.139-1.762-2.217V7.368
		c0-1.259,1.024-2.283,2.283-2.283h23.29c1.259,0,2.281,1.024,2.281,2.283V24.545L29.925,24.545z"/>
</g>
</svg>
