<?xml version="1.0" encoding="utf-8"?>
<!-- Generator: Adobe Illustrator 17.0.0, SVG Export Plug-In . SVG Version: 6.00 Build 0)  -->
<!DOCTYPE svg PUBLIC "-//W3C//DTD SVG 1.1//EN" "http://www.w3.org/Graphics/SVG/1.1/DTD/svg11.dtd">
<svg version="1.1" id="Layer_1" xmlns="http://www.w3.org/2000/svg" xmlns:xlink="http://www.w3.org/1999/xlink" x="0px" y="0px"
	 width="32px" height="32px" viewBox="0 0 32 32" enable-background="new 0 0 32 32" xml:space="preserve">
<g>
	<path d="M9.568,15.854c0,0.376-0.305,0.681-0.681,0.681H8.161c-1.551,0-2.808,1.257-2.808,2.808v0.778
		c0,0.49,0.397,0.887,0.887,0.887h9.371c0.49,0,0.887-0.397,0.887-0.887v-0.778c0-1.551-1.257-2.808-2.808-2.808h-0.725
		c-0.376,0-0.681-0.305-0.681-0.681c0-0.14,0.056-0.273,0.156-0.371c0.422-0.411,0.776-0.962,1.033-1.557
		c0.052,0.039,0.108,0.066,0.171,0.066c0.407,0,0.885-0.9,0.885-1.513s-0.056-1.11-0.464-1.11c-0.048,0-0.099,0.008-0.152,0.021
		c-0.029-1.663-0.449-3.738-2.988-3.738c-2.649,0-2.959,2.07-2.988,3.732c-0.037-0.007-0.075-0.015-0.11-0.015
		c-0.407,0-0.464,0.497-0.464,1.11s0.478,1.513,0.885,1.513c0.05,0,0.097-0.014,0.141-0.039c0.256,0.584,0.606,1.125,1.021,1.53
		C9.511,15.58,9.568,15.714,9.568,15.854z"/>
	<path d="M22.754,9.488c0-0.363-0.294-0.657-0.657-0.657h-7.858c0.227,0.502,0.389,1.12,0.456,1.884
		c0.168,0.103,0.294,0.271,0.397,0.472h7.005c0.363,0,0.657-0.294,0.657-0.657V9.488z"/>
	<path d="M22.678,15.116c0.045-0.089,0.076-0.186,0.076-0.292v-1.042c0-0.363-0.294-0.657-0.657-0.657h-6.845
		c-0.186,0.702-0.644,1.436-1.276,1.633c-0.019,0.035-0.041,0.065-0.06,0.099v0.624h7.942
		C22.123,15.344,22.397,15.223,22.678,15.116z"/>
	<path d="M18.024,19.774c0.331-0.867,0.803-1.663,1.394-2.356h-2.665c0.352,0.558,0.559,1.217,0.559,1.925v0.432H18.024z"/>
	<path d="M4.687,25.224c-1.526,0-2.767-1.679-2.767-3.743V8.378c0-2.064,1.241-3.743,2.767-3.743h19.965
		c1.526,0,2.767,1.679,2.767,3.743v6.421c0.643,0.152,1.257,0.378,1.83,0.674V8.378c0-3.073-2.062-5.573-4.597-5.573H4.687
		c-2.535,0-4.597,2.5-4.597,5.573v13.103c0,3.073,2.062,5.573,4.597,5.573h14.112c-0.369-0.565-0.666-1.179-0.885-1.83H4.687z"/>
	<path d="M25.562,16.6c-3.506,0-6.348,2.842-6.348,6.348c0,3.506,2.842,6.348,6.348,6.348c3.506,0,6.348-2.842,6.348-6.348
		C31.91,19.442,29.068,16.6,25.562,16.6z M29.125,23.244c0,0.29-0.235,0.525-0.525,0.525h-6.074c-0.29,0-0.525-0.235-0.525-0.525
		v-0.592c0-0.29,0.235-0.525,0.525-0.525h6.074c0.29,0,0.525,0.235,0.525,0.525V23.244z"/>
</g>
</svg>
