<?xml version="1.0" encoding="utf-8"?>
<!-- Generator: Adobe Illustrator 17.0.0, SVG Export Plug-In . SVG Version: 6.00 Build 0)  -->
<!DOCTYPE svg PUBLIC "-//W3C//DTD SVG 1.1//EN" "http://www.w3.org/Graphics/SVG/1.1/DTD/svg11.dtd">
<svg version="1.1" id="Layer_1" xmlns="http://www.w3.org/2000/svg" xmlns:xlink="http://www.w3.org/1999/xlink" x="0px" y="0px"
	 width="32px" height="32px" viewBox="0 0 32 32" enable-background="new 0 0 32 32" xml:space="preserve">
<g>
	<path d="M20.673,15.606c0,0.459,0.172,0.691,0.51,0.691c0.392,0,0.918-0.568,1.045-1.384l0.178-1.205
		c-0.057-0.007-0.12-0.011-0.189-0.011C21.365,13.697,20.673,14.554,20.673,15.606z"/>
	<path d="M27.722,2.679H4.432c-2.389,0-4.325,1.936-4.325,4.325v17.176c0,1.98,1.339,3.631,3.155,4.145
		c0.375,0.106,0.762,0.181,1.171,0.181h0.81c0.069-1.076,0.955-1.932,2.048-1.932s1.979,0.857,2.048,1.932h2.001h1.329h2.001
		c0.069-1.076,0.955-1.932,2.048-1.932s1.979,0.857,2.048,1.932h2.001h1.028h2.001c0.069-1.076,0.955-1.932,2.048-1.932
		c1.087,0,1.969,0.848,2.046,1.916c0.705-0.027,1.36-0.226,1.94-0.551c1.319-0.741,2.221-2.136,2.221-3.757V7.004
		C32.047,4.616,30.111,2.679,27.722,2.679z M16.029,21.798c0,0.525-0.425,0.95-0.95,0.95H5.037c-0.525,0-0.95-0.425-0.95-0.95
		v-0.834c0-1.662,1.347-3.009,3.009-3.009h0.777c0.403,0,0.73-0.327,0.73-0.73c0-0.15-0.06-0.293-0.167-0.397
		c-0.445-0.434-0.82-1.013-1.094-1.64c-0.047,0.027-0.097,0.042-0.151,0.042c-0.437,0-0.949-0.964-0.949-1.621s0.06-1.19,0.497-1.19
		c0.037,0,0.078,0.009,0.117,0.017c0.031-1.78,0.363-3.999,3.202-3.999c2.721,0,3.171,2.223,3.202,4.005
		c0.056-0.014,0.111-0.023,0.162-0.023c0.436,0,0.497,0.533,0.497,1.19s-0.512,1.621-0.949,1.621c-0.068,0-0.127-0.029-0.184-0.071
		c-0.275,0.637-0.655,1.228-1.107,1.668c-0.107,0.104-0.167,0.247-0.167,0.397c0,0.403,0.327,0.73,0.73,0.73h0.777
		c1.662,0,3.009,1.347,3.009,3.009V21.798z M23.902,18.014c-0.693,0-1.2-0.316-1.429-0.868c-0.488,0.57-1.126,0.868-1.869,0.868
		c-1.168,0-1.953-0.895-1.953-2.227c0-1.837,1.334-3.79,3.807-3.79c0.693,0,1.506,0.173,1.932,0.412l0.152,0.085l-0.484,2.984
		c-0.117,0.697-0.041,0.916,0.015,0.984c0.012,0.014,0.036,0.044,0.127,0.047c0.51,0,1.217-0.719,1.217-2.317
		c0-1.98-1.328-3.261-3.384-3.261c-2.043,0-4.11,1.537-4.11,4.476c0,2.302,1.395,3.732,3.641,3.732c0.761,0,1.541-0.171,2.087-0.458
		c0.066-0.034,0.143-0.038,0.212-0.009c0.069,0.028,0.121,0.086,0.143,0.157l0.274,0.88c0.038,0.121-0.021,0.251-0.136,0.302
		c-0.91,0.41-1.719,0.57-2.885,0.57c-2.48,0-4.992-1.73-4.992-5.037c0-3.444,2.552-6.042,5.936-6.042
		c2.804,0,4.839,1.953,4.839,4.644C27.04,16.424,25.75,18.014,23.902,18.014z"/>
</g>
</svg>
