<?xml version="1.0" encoding="iso-8859-1"?>
<!-- Generator: Adobe Illustrator 16.0.0, SVG Export Plug-In . SVG Version: 6.00 Build 0)  -->
<!DOCTYPE svg PUBLIC "-//W3C//DTD SVG 1.1//EN" "http://www.w3.org/Graphics/SVG/1.1/DTD/svg11.dtd">
<svg version="1.1" xmlns="http://www.w3.org/2000/svg" xmlns:xlink="http://www.w3.org/1999/xlink" x="0px" y="0px" width="512px"
	 height="512px" viewBox="0 0 512 512" style="enable-background:new 0 0 512 512;" xml:space="preserve">
<g id="Artwork">
</g>
<g id="icons">
	<g>
		<path d="M465.766,106.155l-57.986-25.241V47.373c0-11.046-8.954-20-20-20h-16.91c-11.046,0-20,8.954-20,20v8.77L279.348,25.01
			c-3.676-1.601-7.842-1.662-11.564-0.171L65.24,105.984c-7.689,3.081-11.426,11.813-8.346,19.503
			c2.349,5.861,7.979,9.425,13.93,9.425c1.855,0,3.744-0.347,5.573-1.08l196.725-78.814l180.671,78.644
			c7.597,3.308,16.434-0.171,19.74-7.767S473.361,109.461,465.766,106.155z"/>
		<circle cx="372.052" cy="261.98" r="22.759"/>
		<path d="M396.458,297.125c-9.818-7.199-27.148-10.18-38.521-4.669c-6.315,3.06-23.563,11.082-33.242,1.326
			c-3.62-3.649-5.758-4.594-8.799-4.105c0.088-0.68,0.148-1.367,0.148-2.07c0-14.398,0-38.497-8.695-59.849
			c-11.585-28.448-34.896-43.484-67.414-43.484c-41.104,0-59.326,22.472-67.375,41.324c-8.863,20.759-8.863,44.58-8.863,60.343
			c0,8.836,7.164,16,16,16s16-7.164,16-16c0-19.166,0.947-33.678,5.246-45.106c0.805-2.208,3.848-1.886,3.848,2.231
			s-0.42,10.952-0.42,27.27s-13.794,85.95-18.06,110.145c-0.956,5.415-0.389,9.427,4.389,11.395
			c4.776,1.967,9.742,3.454,14.791,4.553v38.629c0,9.023,6.987,16.338,15.62,16.338c0,0,0,0,0.008,0
			c8.625,0,15.622-7.315,15.622-16.338V398.93c0.127-0.005,0.251-0.011,3.007-0.017c2.756,0.006,2.88,0.012,3.007,0.017v36.125
			c0,9.023,6.997,16.338,15.621,16.338c0.009,0,0.009,0,0.009,0c8.633,0,15.62-7.315,15.62-16.338v-38.629
			c5.049-1.099,10.015-2.586,14.791-4.553c4.777-1.968,5.345-5.98,4.39-11.395c-4.267-24.195-18.061-94.531-18.061-110.849
			s-0.095-23.7-0.456-26.63c-0.421-3.417,2.329-5.063,3.504-2.125c6.395,15.989,5.87,27.171,5.87,46.731c0,8.836,7.163,16,16,16
			c2.81,0,5.446-0.729,7.74-2c6.882,13.895,21.229,17.075,28.971,17.075c2.775,0,5.427-0.428,7.956-1.146
			c0.849-0.241,2.521-0.857,2.712,0.818s0.959,122.459,0.959,122.459c0,5.768,4.676,10.439,10.443,10.439
			c5.771,0,10.443-4.671,10.443-10.439c0,0,0-54.416,0-58.009c0-2.427,3.49-2.198,3.49,0s-0.008,58.009-0.008,58.009
			c0,5.768,4.668,10.439,10.439,10.439c5.764,0,10.436-4.671,10.436-10.439c0,0-0.583-116.036-0.279-118.02
			c0.239-1.564,1.29-0.886,1.693-0.023c2.187,4.678,3.989,11.278,3.989,20.386c0,4.47,3.62,8.096,8.095,8.096
			c4.467,0,8.088-3.625,8.088-8.096C415.197,310.523,402.33,301.431,396.458,297.125z"/>
		<path d="M239.75,173.381c0.009,0,0.017,0,0.026,0c19.671,0,35.616-15.943,35.616-35.612c0-19.669-15.945-35.613-35.616-35.613
			c-0.009,0-0.017,0.001-0.026,0.001s-0.017-0.001-0.026-0.001c-19.672,0-35.617,15.944-35.617,35.613
			c0,19.668,15.945,35.612,35.617,35.612C239.733,173.381,239.742,173.381,239.75,173.381z"/>
	</g>
</g>
</svg>
