<?xml version="1.0" encoding="iso-8859-1"?>
<!-- Generator: Adobe Illustrator 16.0.0, SVG Export Plug-In . SVG Version: 6.00 Build 0)  -->
<!DOCTYPE svg PUBLIC "-//W3C//DTD SVG 1.1//EN" "http://www.w3.org/Graphics/SVG/1.1/DTD/svg11.dtd">
<svg version="1.1" xmlns="http://www.w3.org/2000/svg" xmlns:xlink="http://www.w3.org/1999/xlink" x="0px" y="0px" width="512px"
	 height="512px" viewBox="0 0 512 512" style="enable-background:new 0 0 512 512;" xml:space="preserve">
<g id="Artwork">
</g>
<g id="icons">
	<g>
		<path d="M323.656,196.313c17.583,0,31.842-14.258,31.842-31.843c0-17.584-14.259-31.839-31.842-31.839
			c-17.582,0-31.839,14.255-31.839,31.839C291.817,182.055,306.074,196.313,323.656,196.313z"/>
		<circle cx="116.903" cy="319.387" r="25.725"/>
		<path d="M173.082,325.818c0,0-36.834,24.303-38.875,25.742s-3.579,0.945-4.33,0.751c-2.375-0.615-4.959-0.942-7.685-0.942
			c-13.16,0-22.351,7.695-22.351,18.715c0,10.686,0.003,102.069,0.003,102.069c-0.14,5.777,4.43,10.575,10.208,10.715
			c0.086,0.003,0.172,0.004,0.258,0.004c5.662,0,10.319-4.52,10.457-10.211c0,0,0.024-30.447,0.024-33.036s1.809-1.755,2.35-0.572
			s16.603,36.257,16.603,36.257c2.406,5.256,8.616,7.564,13.871,5.158c5.255-2.405,7.564-8.616,5.158-13.871
			c0,0-19.424-42.354-20.38-44.507c-0.194-0.438-0.38-1.588-0.38-4.251s0.153-38.81,0.154-39.922c0-2.271,0.881-3,3.527-4.781
			c3.415-2.299,43.585-28.896,43.585-28.896c5.087-3.368,6.48-10.223,3.112-15.309C185.023,323.844,178.168,322.45,173.082,325.818z
			"/>
		<path d="M452.012,281.627c-30.853-7.329-70.849-56.928-85.915-69.402S321,199.5,306.814,219.735
			c-11.312,16.136-45.271,56.905-79.164,72.651l11.943-158.375l4.977,0.245c0.543,0.026,1.06-0.227,1.374-0.669
			c0.312-0.443,0.377-1.016,0.17-1.519c0,0-1.99-4.868-2.459-5.969s0.408-1.237,0.841-1.301
			c21.54-3.141,33.124-31.937,34.049-50.776c0.999-20.325-14.64-37.613-34.93-38.61c-20.291-0.997-37.548,14.674-38.548,35
			c-0.905,18.42,7.396,47.315,27.515,53.485c0.444,0.137,1.323,0.425,0.648,1.623s-3.223,5.723-3.223,5.723
			c-0.269,0.479-0.271,1.063-0.007,1.544c0.266,0.481,0.762,0.79,1.311,0.817l4.753,0.233l-11.919,158.056l-15.926-69.878
			l3.186-0.555c0.49-0.085,0.902-0.415,1.093-0.875s0.132-0.985-0.154-1.393c0,0-2.529-3.686-3.354-4.773s0.111-1.274,0.507-1.428
			c18.58-7.193,23.117-35.242,20.149-52.262c-3.207-18.383-20.682-30.69-39.033-27.489c-18.35,3.201-30.626,20.698-27.42,39.081
			c2.914,16.706,16.233,40.967,35.562,42.302c0.372,0.026,1.115,0.073,0.73,1.358s-1.713,5.722-1.713,5.722
			c-0.145,0.481-0.028,1.005,0.305,1.382c0.335,0.376,0.841,0.553,1.337,0.467l5.322-0.929l16.863,73.982
			c-0.326,0.352-0.628,0.722-0.921,1.098L149.023,171.28l1.324-0.291c0.49-0.106,0.89-0.458,1.062-0.929
			c0.171-0.471,0.09-0.997-0.215-1.395c0,0-2.985-3.941-3.684-4.788s0.103-1.137,0.47-1.296
			c18.456-8.005,21.816-36.493,18.081-53.517c-4.029-18.365-22.156-29.993-40.488-25.971c-18.332,4.021-29.926,22.169-25.897,40.533
			c3.664,16.697,18.139,40.55,37.666,41.033c0.367,0.01,1.144-0.15,0.796,1.225s-1.503,5.942-1.503,5.942
			c-0.124,0.492,0.016,1.013,0.368,1.378c0.353,0.365,0.87,0.521,1.366,0.411l7.044-1.545l73.181,129.113
			c-1.933,4.302-2.092,9.374,0.013,14.004c2.849,6.266,9.024,9.967,15.485,9.967c2.353,0,4.746-0.491,7.027-1.529
			c24.431-11.109,47.855-32.233,65.503-51.043c1.269-1.353,3.645-4.236,5.023,0.119s18.318,57.81,20.53,63.422
			c2.907,7.376-1.177,8-2.891,11.421l0.008-0.001c-42.773,48.408-44.649,120.467-44.713,123.922
			c-0.203,11.028,8.562,20.118,19.59,20.343c0.139,0.003,0.276,0.004,0.414,0.004c10.841,0,19.745-8.684,19.988-19.573
			c0.015-0.655,1.651-56.39,30.955-93.727c4.222-5.68,7.875-2.799,8.446-0.325c14.47,62.672,52.483,106.955,54.359,109.111
			c3.951,4.538,9.494,6.858,15.07,6.858c4.646,0,9.315-1.612,13.103-4.896c8.333-7.226,9.231-19.85,2.022-28.198
			c-0.431-0.498-40.588-45.096-48.129-106.833c-0.341-2.792-1.21-10.294-3.151-17.127c-4.692-16.524-14.62-51.302-15.761-54.798
			c-1.486-4.557,2.485-2.7,4.508-0.97c21.014,17.974,40.531,29.182,58.159,33.37c1.321,0.313,2.642,0.464,3.943,0.464
			c7.695,0,14.669-5.262,16.525-13.074C466.792,292.962,461.146,283.797,452.012,281.627z"/>
	</g>
	<path d="M366.892,212.179"/>
</g>
</svg>
