<?xml version="1.0" encoding="iso-8859-1"?>
<!-- Generator: Adobe Illustrator 16.0.0, SVG Export Plug-In . SVG Version: 6.00 Build 0)  -->
<!DOCTYPE svg PUBLIC "-//W3C//DTD SVG 1.1//EN" "http://www.w3.org/Graphics/SVG/1.1/DTD/svg11.dtd">
<svg version="1.1" xmlns="http://www.w3.org/2000/svg" xmlns:xlink="http://www.w3.org/1999/xlink" x="0px" y="0px" width="512px"
	 height="512px" viewBox="0 0 512 512" style="enable-background:new 0 0 512 512;" xml:space="preserve">
<g id="Artwork">
</g>
<g id="icons">
	<g>
		<path d="M290.024,163.521c24.667,0,44.659-19.995,44.659-44.658c0-24.668-19.992-44.662-44.659-44.662
			c-24.666,0-44.657,19.994-44.657,44.662C245.367,143.526,265.358,163.521,290.024,163.521z"/>
		<circle cx="192.146" cy="61.521" r="44.66"/>
		<path d="M432.982,236.246c-0.508-12.171-10.758-21.618-22.959-21.119c-76.985,3.211-108.142-29.625-109.43-31.023l1.531,1.514
			c0,0-4.045-4.753-10.276-7.85c-6.231-3.098-79.206-37.741-110.942-53.522c-31.736-15.782-52.102-13.857-55.521,15.292
			c-2.632,22.438-15.646,133.648-18.21,157.759c-2.565,24.109,13.441,30.494,23.508,30.494c14.918,0,59.936-0.124,64.039-0.124
			c4.104,0,4.801,2.945,4.838,4.678c0.166,7.807-0.235,18.926-2.574,31.741c-5.922,32.466-20.96,60.28-44.694,82.673
			c-8.861,8.359-9.268,22.319-0.908,31.181c8.363,8.856,24.755,10.753,33.616,2.395c45.976-43.374,57.05-91.969,59.509-125.881
			c0.193-2.677,3.488-4.109,5.158-1.785c3.592,5,7.865,11.665,12.258,20.112c10.502,20.205,22.524,50.689,26.392,101.788
			c0.877,11.582,10.545,20.396,21.971,20.395c0.56,0,1.123-0.021,1.688-0.064c12.148-0.919,21.251-11.512,20.331-23.658
			c-5.095-67.328-24.896-111.993-41.164-138.119c4.73-3.886,7.972-9.581,8.588-16.159c1.225-13.088-8.957-25.814-21.48-25.916
			c-1.182-0.404-0.875-3.181-0.548-4.813c3.38-16.874,7.072-36.688,8.897-44.531c1.826-7.843,10.607-5.856,17.387-2.518
			c27.363,13.477,59.435,20.282,95.492,20.282c4.076,0,8.207-0.087,12.384-0.262C424.034,258.696,433.49,248.418,432.982,236.246z
			 M188.096,282.546c-6.212-0.384-5.042-5.774-4.739-9.104c3.655-40.205,8.36-77.976,9.556-87.743
			c0.698-5.703,4.563-4.439,7.772-2.882c2.175,1.058,7.602,3.503,11.393,5.344c1.802,0.874,2.483,2.661,1.75,5.893
			c-0.733,3.232-12.333,76.36-13.383,83.222C199.638,282.548,196.432,283.061,188.096,282.546z"/>
	</g>
</g>
</svg>
