<?xml version="1.0" encoding="iso-8859-1"?>
<!-- Generator: Adobe Illustrator 16.0.0, SVG Export Plug-In . SVG Version: 6.00 Build 0)  -->
<!DOCTYPE svg PUBLIC "-//W3C//DTD SVG 1.1//EN" "http://www.w3.org/Graphics/SVG/1.1/DTD/svg11.dtd">
<svg version="1.1" xmlns="http://www.w3.org/2000/svg" xmlns:xlink="http://www.w3.org/1999/xlink" x="0px" y="0px" width="512px"
	 height="512px" viewBox="0 0 512 512" style="enable-background:new 0 0 512 512;" xml:space="preserve">
<g id="Artwork">
</g>
<g id="icons">
	<g>
		<path d="M474.195,177.813h-68.079c-6.963,0-13.374,4.021-16.731,10.494c0,0-6.45,13.3-10.417,21.663s-5.019,10.142-11.767,10.142
			c-8.668,0-321.509,0-321.509,0c-4.998,0-9.687,2.425-12.574,6.504c-2.889,4.079-3.618,9.306-1.959,14.02L80.93,381.968
			c1.73,4.913,5.701,8.387,10.358,9.704c1.435,0.618,2.889,0.957,4.297,0.957H321.91c6.963,0,13.374-4.021,16.731-10.494
			c0,0,71.512-148.913,75.269-156.524s9.668-7.944,15.34-7.944s44.945,0.678,44.945,0.678c10.548,0,19.098-9.073,19.098-20.265
			C493.293,186.886,484.743,177.813,474.195,177.813z"/>
		<ellipse cx="144.484" cy="436.683" rx="28.784" ry="30.543"/>
		<ellipse cx="282.318" cy="436.683" rx="28.782" ry="30.543"/>
		<path d="M254.359,44.542c-13.757,0-26.226,5.49-35.359,14.387c-9.134-8.897-21.603-14.387-35.359-14.387
			c-27.998,0-50.695,22.697-50.695,50.695c0,10.868,3.432,20.928,9.255,29.181c2.319,3.628,5.106,6.928,8.28,9.81l52.588,52.668
			c5.266,5.267,10.533,10.533,15.8,10.533c0.044,0,0.088-0.007,0.132-0.008c0.044,0.001,0.088,0.008,0.132,0.008
			c5.267,0,10.534-5.266,15.8-10.533l52.588-52.668c3.174-2.882,5.961-6.182,8.28-9.81c5.823-8.253,9.255-18.313,9.255-29.181
			C305.055,67.239,282.357,44.542,254.359,44.542z"/>
	</g>
</g>
</svg>
