<?xml version="1.0" encoding="iso-8859-1"?>
<!-- Generator: Adobe Illustrator 16.0.0, SVG Export Plug-In . SVG Version: 6.00 Build 0)  -->
<!DOCTYPE svg PUBLIC "-//W3C//DTD SVG 1.1//EN" "http://www.w3.org/Graphics/SVG/1.1/DTD/svg11.dtd">
<svg version="1.1" xmlns="http://www.w3.org/2000/svg" xmlns:xlink="http://www.w3.org/1999/xlink" x="0px" y="0px" width="512px"
	 height="512px" viewBox="0 0 512 512" style="enable-background:new 0 0 512 512;" xml:space="preserve">
<g id="Artwork">
</g>
<g id="icons">
	<g>
		<g>
			<path d="M133.295,170.951l0.001,0.006c0.02-0.004,0.039-0.01,0.06-0.014c0.019-0.002,0.04-0.003,0.059-0.006l-0.001-0.005
				c20.825-3.8,34.845-23.591,31.404-44.563c-3.442-20.97-23.049-35.243-43.996-32.188l0-0.005c-0.02,0.003-0.039,0.008-0.059,0.012
				c-0.019,0.003-0.039,0.004-0.06,0.008l0.001,0.004c-20.822,3.8-34.843,23.589-31.403,44.559
				C92.741,159.73,112.351,174.004,133.295,170.951z"/>
			<path d="M276.171,400.56l-75.172-76.18c-5.161-6.179-19.082-93.78-19.679-97.416c-1.53-9.323,1.116-15.24,1.116-15.24
				s37.779-97.063,41.606-107.749c3.829-10.687,3.61-17.676-3.771-22.981c-7.389-5.307-19.994-5.465-22.984,3.771l-40.475,97.119
				c0,0-10.317-3.76-21.712-2.088c-0.096,0.018-0.188,0.036-0.284,0.055c-0.095,0.014-0.188,0.023-0.286,0.039
				c-11.329,2.057-19.906,8.917-19.906,8.917l-69.385-79.095c-8.189-8-17.678-3.619-22.985,3.771
				c-5.298,7.385-2.274,15.714,3.77,22.981c6.044,7.268,73.856,88.807,73.856,88.807s4.395,4.762,5.924,14.084
				c0.121,0.74,0.156,0.953,14.694,89.538l9.753,149.877c0.636,9.771,8.76,17.272,18.415,17.272c0.403,0,0.81-0.013,1.218-0.039
				c10.18-0.663,17.896-9.453,17.233-19.633c0,0-8.792-130.323-8.792-135.115c0-2.943,2.865-4.62,6.243-1.196
				c3.378,3.423,85.306,86.45,85.306,86.45c7.165,7.261,18.861,7.34,26.123,0.174C283.258,419.516,283.336,407.82,276.171,400.56z"
				/>
		</g>
		<g>
			<path d="M360.936,207.017l-0.002,0.004c0.015,0.006,0.029,0.008,0.045,0.013c0.016,0.005,0.028,0.012,0.043,0.017l0.002-0.003
				c0.133,0.043,0.266,0.077,0.396,0.117c0.13,0.049,0.256,0.104,0.387,0.151l-0.002,0.004c0.016,0.004,0.029,0.008,0.046,0.013
				c0.013,0.004,0.027,0.012,0.043,0.017l0.001-0.003c15.673,5.061,32.572-3.344,37.935-18.989
				c5.362-15.643-2.826-32.646-18.309-38.263l0.001-0.003c-0.016-0.006-0.03-0.01-0.046-0.014c-0.014-0.005-0.028-0.011-0.043-0.017
				l-0.001,0.003c-0.133-0.042-0.265-0.077-0.397-0.117c-0.13-0.049-0.255-0.103-0.388-0.151l0.004-0.003
				c-0.015-0.006-0.031-0.008-0.046-0.014c-0.015-0.004-0.028-0.011-0.044-0.016l-0.001,0.003
				c-15.673-5.062-32.57,3.343-37.932,18.985C337.266,184.393,345.452,201.4,360.936,207.017z"/>
			<path d="M485.537,219.547c-1.591-6.898-8.285-9.908-20.375-7.393l-90.73,9.766c0,0-4.236-5.053-15.088-8.772
				c-10.853-3.72-17.25-2.313-17.25-2.313l-65.659-63.373c-8.004-9.404-15.137-11.134-20.625-6.663
				c-6.604,5.38-7.822,13.889-3.955,18.691c5.83,7.241,64.577,67.462,66.705,70.912c2.128,3.451,1.261,4.883-1.125,11.837
				c-1.013,2.955-16.63,46.47-22.552,62.602l-77.57,52.27c-6.768,4.561-8.557,13.745-3.997,20.513
				c4.56,6.768,13.744,8.558,20.513,3.997c0,0,81.803-54.971,83.782-56.456c1.981-1.486,4.634-0.554,3.74,2.267
				s-35.105,110.871-35.105,110.871c-2.464,7.781,1.847,16.085,9.628,18.549c1.483,0.47,2.986,0.693,4.464,0.693
				c6.271,0,12.091-4.023,14.085-10.32l38.611-121.947c0.163-0.515,0.286-1.034,0.391-1.554
				c21.947-64.014,21.787-63.549,21.213-61.875c2.384-6.954,2.578-8.618,6.374-10.037c3.796-1.419,87.134-12.935,96.182-15.077
				C483.193,235.313,487.451,227.847,485.537,219.547z"/>
		</g>
	</g>
</g>
</svg>
