<?xml version="1.0" encoding="iso-8859-1"?>
<!-- Generator: Adobe Illustrator 16.0.0, SVG Export Plug-In . SVG Version: 6.00 Build 0)  -->
<!DOCTYPE svg PUBLIC "-//W3C//DTD SVG 1.1//EN" "http://www.w3.org/Graphics/SVG/1.1/DTD/svg11.dtd">
<svg version="1.1" xmlns="http://www.w3.org/2000/svg" xmlns:xlink="http://www.w3.org/1999/xlink" x="0px" y="0px" width="512px"
	 height="512px" viewBox="0 0 512 512" style="enable-background:new 0 0 512 512;" xml:space="preserve">
<g id="Artwork">
</g>
<g id="icons">
	<g>
		<path d="M496.146,212.712c0-4.657-3.775-8.432-8.432-8.432c-3.207,0-5.996,1.791-7.421,4.427
			c-0.001,0.001-0.002,0.002-0.002,0.003c0,0-25.462,44.576-26.264,45.978c-0.803,1.4-1.001,1.938-2.692,0.499
			c-1.719-1.262-5.106-2.871-11.25-2.976c-0.05,0-0.1,0.003-0.154,0.005c-0.049-0.002-0.1-0.005-0.153-0.005
			c-6.143,0.105-9.529,1.714-11.25,2.976c-1.687,1.439-1.886,0.901-2.69-0.499c-0.583-1.02-14.608-25.498-22.208-38.765
			c6.15-10.456,13.578-24.092,14.67-26.103c0.036-0.065,0.072-0.13,0.106-0.196c0.021-0.039,0.036-0.065,0.036-0.065l-0.003-0.002
			c0.688-1.326,1.082-2.828,1.082-4.425c0-5.321-4.313-9.634-9.634-9.634c-3.529,0-6.606,1.903-8.284,4.733l-0.002,0.003
			c-0.119,0.2-0.229,0.404-0.334,0.613c-1.5,2.752-28.403,50.231-28.784,50.897c-0.917,1.601-1.145,2.216-3.077,0.569
			c-1.966-1.442-5.838-3.281-12.861-3.401c-0.058,0.001-0.115,0.004-0.176,0.006c-0.056-0.002-0.115-0.005-0.175-0.006
			c-7.023,0.12-10.894,1.959-12.86,3.401c-1.929,1.646-2.157,1.032-3.077-0.569c-0.723-1.264-19.459-33.966-27.381-47.794
			c6.082-10.354,13.996-24.755,13.996-24.755l-0.005-0.003c0.917-1.59,1.449-3.43,1.449-5.396c0-5.981-4.849-10.83-10.83-10.83
			c-4.122,0-7.705,2.304-9.535,5.693c-0.722,1.268-32.794,57.61-33.819,59.4c-1.039,1.808-1.295,2.502-3.474,0.643
			c-2.221-1.628-6.593-3.706-14.523-3.841c-0.023,0-0.044,0.001-0.067,0.002c-0.022-0.001-0.043-0.002-0.067-0.002
			c-7.93,0.135-12.302,2.213-14.523,3.841c-2.178,1.859-2.435,1.165-3.474-0.643c-1.024-1.791-33.097-58.133-33.819-59.4
			c-1.83-3.389-5.413-5.693-9.535-5.693c-5.981,0-10.83,4.848-10.83,10.83c0,1.967,0.533,3.806,1.449,5.396l-0.005,0.003
			c0,0,7.914,14.401,13.996,24.755c-7.922,13.828-26.659,46.53-27.381,47.794c-0.919,1.601-1.147,2.216-3.077,0.569
			c-1.966-1.442-5.837-3.281-12.86-3.401c-0.06,0.001-0.119,0.004-0.175,0.006c-0.061-0.002-0.118-0.005-0.176-0.006
			c-7.023,0.12-10.895,1.959-12.861,3.401c-1.932,1.646-2.16,1.032-3.077-0.569c-0.381-0.666-27.283-48.145-28.784-50.897
			c-0.104-0.209-0.215-0.413-0.334-0.613l-0.002-0.003c-1.678-2.83-4.755-4.733-8.284-4.733c-5.321,0-9.634,4.313-9.634,9.634
			c0,1.597,0.395,3.1,1.082,4.425l-0.003,0.002c0,0,0.014,0.026,0.036,0.065c0.035,0.066,0.07,0.131,0.106,0.196
			c1.092,2.01,8.52,15.647,14.67,26.103c-7.6,13.267-21.624,37.745-22.208,38.765c-0.804,1.4-1.003,1.938-2.69,0.499
			c-1.72-1.262-5.106-2.871-11.25-2.976c-0.053,0-0.104,0.003-0.153,0.005c-0.054-0.002-0.104-0.005-0.154-0.005
			c-6.144,0.105-9.53,1.714-11.25,2.976c-1.691,1.439-1.89,0.901-2.692-0.499c-0.802-1.402-26.264-45.978-26.264-45.978
			c0-0.001-0.002-0.002-0.002-0.003c-1.426-2.636-4.214-4.427-7.421-4.427c-4.657,0-8.432,3.775-8.432,8.432
			c0,1.439,0.362,2.793,0.999,3.979l-0.001,0.001l0.008,0.014c0.024,0.044,0.051,0.086,0.075,0.129l32.818,56.271
			c0,0,1.905,2.886,1.905,7.927c0,5.039,0.004,125.083,0.004,125.083c0,4.854,3.935,8.794,8.786,8.794
			c4.854,0,8.787-3.934,8.787-8.794c0,0,0-59.118,0-62.036c0-1.515,1.444-2.441,2.834-2.477c1.389,0.036,2.829,0.962,2.829,2.477
			c0,2.918,0,62.036,0,62.036c0,4.86,3.936,8.794,8.789,8.794s8.787-3.94,8.787-8.794c0,0,0.005-120.044,0.005-125.083
			c0-5.041,1.902-7.927,1.902-7.927s14.514-24.708,23.804-40.521c6.577,11.153,11.933,20.216,11.933,20.216s2.178,3.298,2.178,9.061
			c0,5.761,0.005,142.994,0.005,142.994c0,5.549,4.498,10.054,10.043,10.054c5.55,0,10.046-4.497,10.046-10.054
			c0,0,0-67.583,0-70.918c0-1.732,1.651-2.791,3.239-2.831c1.588,0.04,3.236,1.099,3.236,2.831c0,3.336,0,70.918,0,70.918
			c0,5.557,4.499,10.054,10.045,10.054c5.547,0,10.046-4.505,10.046-10.054c0,0,0.005-137.233,0.005-142.994
			c0-5.763,2.174-9.061,2.174-9.061s18.838-32.068,29.216-49.734c8.896,15.143,16.903,28.772,16.903,28.772
			s2.456,3.725,2.456,10.232s0.006,161.486,0.006,161.486c0,6.267,5.08,11.354,11.345,11.354s11.345-5.078,11.345-11.354
			c0,0,0-76.322,0-80.089c0-1.909,1.771-3.085,3.522-3.183c1.752,0.098,3.523,1.274,3.523,3.183c0,3.767,0,80.089,0,80.089
			c0,6.276,5.08,11.354,11.345,11.354s11.345-5.087,11.345-11.354c0,0,0.006-154.979,0.006-161.486s2.455-10.232,2.455-10.232
			s8.007-13.629,16.903-28.772c10.378,17.667,29.216,49.734,29.216,49.734s2.174,3.298,2.174,9.061
			c0,5.761,0.005,142.994,0.005,142.994c0,5.549,4.499,10.054,10.046,10.054c5.546,0,10.045-4.497,10.045-10.054
			c0,0,0-67.583,0-70.918c0-1.732,1.647-2.791,3.236-2.831c1.588,0.04,3.239,1.099,3.239,2.831c0,3.336,0,70.918,0,70.918
			c0,5.557,4.496,10.054,10.046,10.054c5.545,0,10.043-4.505,10.043-10.054c0,0,0.005-137.233,0.005-142.994
			c0-5.763,2.178-9.061,2.178-9.061s5.356-9.063,11.933-20.216c9.29,15.813,23.804,40.521,23.804,40.521s1.902,2.886,1.902,7.927
			c0,5.039,0.005,125.083,0.005,125.083c0,4.854,3.935,8.794,8.788,8.794c4.852,0,8.788-3.934,8.788-8.794c0,0,0-59.118,0-62.036
			c0-1.515,1.44-2.441,2.829-2.477c1.39,0.036,2.834,0.962,2.834,2.477c0,2.918,0,62.036,0,62.036c0,4.86,3.934,8.794,8.787,8.794
			c4.851,0,8.786-3.94,8.786-8.794c0,0,0.004-120.044,0.004-125.083c0-5.041,1.905-7.927,1.905-7.927l32.818-56.271
			c0.024-0.043,0.051-0.085,0.075-0.129l0.008-0.014l-0.001-0.001C495.783,215.506,496.146,214.152,496.146,212.712z"/>
		<path d="M356.335,223.412v0.005c0.01,0,0.025-0.002,0.035-0.002c0.013,0,0.025,0.002,0.037,0.002v-0.005
			c12.908-0.23,23.299-10.756,23.299-23.716s-10.392-23.484-23.299-23.714v-0.003c-0.012,0-0.024,0-0.037,0c-0.01,0-0.025,0-0.035,0
			v0.003c-12.905,0.23-23.297,10.754-23.297,23.714S343.43,223.182,356.335,223.412z"/>
		<path d="M439.9,247.398v0.005c0.009,0,0.021-0.003,0.03-0.003c0.012,0,0.023,0.003,0.032,0.003v-0.005
			c11.292-0.201,20.382-9.408,20.382-20.745c0-11.336-9.09-20.543-20.382-20.744v-0.002c-0.009,0-0.02,0.001-0.032,0.001
			c-0.009,0-0.021-0.001-0.03-0.001v0.002c-11.289,0.201-20.379,9.408-20.379,20.744C419.521,237.99,428.611,247.197,439.9,247.398z
			"/>
		<path d="M256.07,198.646c14.532-0.308,26.219-12.173,26.219-26.779c0-14.604-11.687-26.469-26.219-26.777
			c-14.532,0.308-26.218,12.173-26.218,26.777C229.853,186.473,241.539,198.338,256.07,198.646z"/>
		<path d="M155.734,223.412v0.005c0.012,0,0.024-0.002,0.037-0.002c0.01,0,0.025,0.002,0.035,0.002v-0.005
			c12.905-0.23,23.297-10.756,23.297-23.716s-10.392-23.484-23.297-23.714v-0.003c-0.01,0-0.025,0-0.035,0c-0.013,0-0.025,0-0.037,0
			v0.003c-12.908,0.23-23.299,10.754-23.299,23.714S142.826,223.182,155.734,223.412z"/>
		<path d="M72.179,247.398v0.005c0.009,0,0.02-0.003,0.032-0.003c0.009,0,0.022,0.003,0.03,0.003v-0.005
			c11.289-0.201,20.379-9.408,20.379-20.745c0-11.336-9.09-20.543-20.379-20.744v-0.002c-0.008,0-0.021,0.001-0.03,0.001
			c-0.012,0-0.023-0.001-0.032-0.001v0.002c-11.292,0.201-20.382,9.408-20.382,20.744C51.796,237.99,60.887,247.197,72.179,247.398z
			"/>
	</g>
</g>
</svg>
