<?xml version="1.0" encoding="iso-8859-1"?>
<!-- Generator: Adobe Illustrator 16.0.0, SVG Export Plug-In . SVG Version: 6.00 Build 0)  -->
<!DOCTYPE svg PUBLIC "-//W3C//DTD SVG 1.1//EN" "http://www.w3.org/Graphics/SVG/1.1/DTD/svg11.dtd">
<svg version="1.1" xmlns="http://www.w3.org/2000/svg" xmlns:xlink="http://www.w3.org/1999/xlink" x="0px" y="0px" width="512px"
	 height="512px" viewBox="0 0 512 512" style="enable-background:new 0 0 512 512;" xml:space="preserve">
<g id="Artwork">
</g>
<g id="icons">
	<g>
		<circle cx="385.167" cy="90.07" r="20.017"/>
		<circle cx="120.546" cy="208.917" r="20.015"/>
		<circle cx="56.382" cy="255.832" r="20.016"/>
		<path d="M497.549,228.857c-1.042-2.196-3.667-3.131-5.861-2.093l-9.152,4.335c0.283-0.474,0.576-0.95,0.891-1.428
			c3.418-5.186,1.986-12.158-3.198-15.577c-0.807-0.533-19.942-13.112-34.668-19.521c-3.902-1.697-8.602-14.647-9.674-28.144
			c-0.121-1.567-0.699-4.548-2.808-9.583c-2.109-5.034-15.7-37.657-15.7-37.657c-0.522-1.112-1.324-3.519-2.359-4.915
			c-0.068-0.121-0.128-0.245-0.202-0.364c-2.71-4.356-8.438-5.691-12.795-2.982l-52.5,32.651l-1.195-4.026
			c-0.149-0.56-0.57-1.008-1.114-1.194c-0.548-0.186-1.153-0.09-1.611,0.264c-49.207,34.349-49.055,34.354-52.244,35.862
			c-2.369,1.122-70.205,33.282-86.402,40.961c-2.355-4.156-7.539-5.887-11.957-3.854c-0.836,0.385-20.603,9.484-30.569,14.399
			c-2.136,1.053-4.944,0.771-9.348,0.221c-5.977-0.745-16.816,1.014-25.331,5.623c-13.979,7.565-21.077,20.31-23.536,28.915
			c-1.595,5.584-0.467,16.168,0.921,24.775c-9.215,0.59-20.571-0.777-30.422-4.163c-9.297-3.195-23.925-3.826-37.13,3.055
			c-8.716,4.542-25.321,20.24-28.473,40.535c-0.788,5.07,2.684,9.818,7.754,10.605c0.483,0.075,0.963,0.111,1.438,0.111
			c4.501,0,8.456-3.278,9.168-7.865c1.41-9.076,7.278-16.886,12.457-22.045c1.136-1.195,2.547-0.544,2.742,0.377
			c1.939,9.191,7.647,30.057,8.552,35.773s5.683,32.626-25.854,55.562c-5.023,3.653-6.134,10.688-2.48,15.709
			c2.201,3.026,5.628,4.633,9.104,4.633c2.294,0,4.609-0.7,6.605-2.151c24.88-18.095,33.092-40.655,34.829-56.87
			c0.326-3.04,2.799-1.693,4.003-1.125c4.625,2.184,8.77,4.606,11.143,6.979c3.508,3.508,8.36,30.736,9.278,47.692c0,0,0,0,0,0.001
			l-69.634,32.978c-2.197,1.04-3.134,3.664-2.093,5.86c0.743,1.571,2.297,2.497,3.925,2.518c0.648,0.008,1.309-0.128,1.935-0.424
			L495.455,234.72C497.651,233.679,498.589,231.054,497.549,228.857z M418.523,191.885c4.148,12.065,10.208,19.895,18.062,23.313
			c11.235,4.891,30.708,17.449,35.742,20.737l-45.875,21.726c-6.726-13.063-18.177-39.014-19.506-48.463
			c-0.004-0.05-0.27-4.754,9.319-17.499C417.667,189.667,418.277,191.168,418.523,191.885z M344.774,144.367l0.681,2.148
			c-2.756,2.996-3.31,7.564-1.055,11.189c1.288,2.072,3.262,3.452,5.443,4.047l0.657,2.748l-44.458,7.042L344.774,144.367z
			 M160,245.334c4.061,0.114,8.121-0.449,12.646-2.68c9.743-4.804,29.917-14.092,30.12-14.186c3.802-1.749,5.84-5.742,5.305-9.685
			c17.647-8.408,85.248-40.641,86.669-41.12c1.636-0.553,59.573-9.041,59.573-9.041c0.501-0.057,0.951-0.331,1.233-0.746
			c0.283-0.418,0.372-0.937,0.241-1.424l-1.213-4.661c0.903-0.229,1.788-0.587,2.621-1.104l27.393-17.036
			c0.553-0.313,1.055-0.561,1.851-0.938c1.449-0.686,2.828-1.624,4.08,1.049c0.864,1.845,7.464,15.944,11.471,24.502
			c1.595,3.236,0.307,4.803-0.316,5.575c-0.389,0.48-0.777,0.967-1.166,1.46c-12.184,15.447-17.216,27.206-15.839,37.006
			c2.365,16.818,19.406,49.609,21.341,53.293c0.25,0.475,0.529,0.924,0.833,1.348L178.321,375.173l3.278-36.88
			c1.06-11.921-2.491-22.783-5.958-32.114c-1.058-2.846,1.238-2.736,2.506-2.433c24.43,5.853,36.743,29.688,37.426,31.047
			c2.751,5.552,9.479,7.835,15.041,5.098c5.573-2.741,7.869-9.482,5.127-15.056c-0.269-0.545-6.717-13.487-19.628-25.213
			c-10.456-9.497-20.078-15.406-32.618-18.013c0.001,0,0.004-0.003,0.004-0.003s-4.726-0.991-7.067-1.515
			c-0.502-0.112-2.183-0.716-3.265-2.349c-4.795-7.236-13.729-29.573-14.511-31.032C157.745,245.008,159.292,245.314,160,245.334z
			 M106.475,348.739c-5.253-5.253-22-15.237-22.35-15.489c-1.561-1.127-1.635-2.813-1.635-2.813s-3.672-25.601-3.758-27.24
			c-0.087-1.643,2.17-0.863,2.143-0.896c18.164,4.062,37.821,0.644,38.849,0.459c2.468-0.444,4.652-1.867,6.056-3.944
			c1.404-2.079,1.907-4.638,1.397-7.093c-2.27-10.91-3.707-23.037-3.097-25.869c0.479-1.675,1.717-4.205,3.521-6.977
			c0.332-0.51,1.164-1.323,1.789,0.115s15.637,36.518,18.436,41.469c0.147,0.262,0.295,0.506,0.441,0.749
			c0.384,0.756,0.775,1.521,1.178,2.305c4.812,9.361,10.799,21.012,9.752,32.785l-3.297,37.096
			c-0.124,1.396-0.921,8.194-1.503,13.106l-32.934,15.598C120.897,391.994,118.207,360.472,106.475,348.739z"/>
	</g>
</g>
</svg>
