<?xml version="1.0" encoding="iso-8859-1"?>
<!-- Generator: Adobe Illustrator 16.0.0, SVG Export Plug-In . SVG Version: 6.00 Build 0)  -->
<!DOCTYPE svg PUBLIC "-//W3C//DTD SVG 1.1//EN" "http://www.w3.org/Graphics/SVG/1.1/DTD/svg11.dtd">
<svg version="1.1" xmlns="http://www.w3.org/2000/svg" xmlns:xlink="http://www.w3.org/1999/xlink" x="0px" y="0px" width="512px"
	 height="512px" viewBox="0 0 512 512" style="enable-background:new 0 0 512 512;" xml:space="preserve">
<g id="Artwork">
</g>
<g id="icons">
	<g>
		<path d="M302.298,382.311c-0.688-0.703-1.444-1.199-2.251-1.474c-0.84-0.285-1.612-0.429-2.301-0.429
			c-0.688,0-1.463,0.144-2.302,0.429c-0.806,0.274-1.563,0.77-2.251,1.474c-0.699,0.717-1.304,1.736-1.798,3.029
			c-0.498,1.306-0.751,3.034-0.751,5.137c0,2.104,0.253,3.832,0.751,5.136c0.494,1.295,1.099,2.314,1.798,3.031
			c0.688,0.704,1.445,1.2,2.251,1.473c0.837,0.285,1.611,0.429,2.302,0.429c0.689,0,1.463-0.145,2.301-0.429
			c0.807-0.273,1.563-0.77,2.251-1.473c0.698-0.715,1.304-1.734,1.797-3.031c0.499-1.306,0.752-3.034,0.752-5.136
			c0-2.101-0.253-3.829-0.752-5.137C303.602,384.045,302.996,383.026,302.298,382.311z"/>
		<polygon points="378.442,395.378 383.959,395.378 381.304,386.253 		"/>
		<path d="M259.615,385.023c-0.576-0.922-1.456-1.73-2.613-2.402c-1.15-0.666-2.779-1.004-4.841-1.004h-3.142v17.721h4.022
			c1.73,0,3.125-0.309,4.145-0.918c1.032-0.616,1.83-1.377,2.371-2.263c0.556-0.908,0.931-1.899,1.115-2.944
			c0.195-1.092,0.292-2.086,0.292-2.956c0-0.584-0.079-1.389-0.238-2.391C260.578,386.921,260.204,385.965,259.615,385.023z"/>
		<path d="M496.109,313.888H210.401c-4.184,0-7.578,3.642-7.578,8.133v136.912c0,4.492,3.394,8.133,7.578,8.133h19.636v14.62
			c0,4.059,3.884,7.239,8.845,7.239c4.96,0,8.844-3.18,8.844-7.239v-14.62h216.878v15.342c0,4.059,3.886,7.239,8.846,7.239
			c4.959,0,8.844-3.18,8.844-7.239v-15.342h13.816c4.186,0,7.579-3.641,7.579-8.133V322.021
			C503.688,317.53,500.295,313.888,496.109,313.888z M273.234,398.81c-0.838,2.529-2.132,4.71-3.849,6.484
			c-1.718,1.776-3.918,3.157-6.536,4.105c-2.595,0.94-5.673,1.417-9.149,1.417h-17.487c-0.391,0-0.708-0.317-0.708-0.708v-39.262
			c0-0.391,0.317-0.708,0.708-0.708h19.852c3.356,0,6.247,0.589,8.591,1.75c2.34,1.162,4.265,2.711,5.717,4.603
			c1.443,1.881,2.503,4.075,3.147,6.52c0.637,2.414,0.958,4.907,0.958,7.412C274.479,393.488,274.06,396.311,273.234,398.81z
			 M316.884,399.004c-0.982,2.589-2.394,4.852-4.192,6.727c-1.802,1.877-4.001,3.367-6.534,4.425
			c-2.534,1.058-5.364,1.595-8.411,1.595c-3.049,0-5.879-0.537-8.412-1.595c-2.534-1.058-4.732-2.547-6.533-4.425
			c-1.8-1.875-3.211-4.138-4.193-6.727c-0.979-2.578-1.477-5.447-1.477-8.527c0-3.079,0.498-5.947,1.477-8.527
			c0.983-2.59,2.394-4.853,4.193-6.727c1.799-1.876,3.998-3.365,6.533-4.425c2.533-1.058,5.363-1.594,8.412-1.594
			c3.047,0,5.878,0.537,8.411,1.594c2.534,1.06,4.733,2.548,6.534,4.425c1.799,1.875,3.209,4.137,4.192,6.727
			c0.979,2.582,1.477,5.451,1.477,8.527C318.36,393.555,317.862,396.423,316.884,399.004z M358.885,410.108
			c0,0.391-0.316,0.708-0.708,0.708h-11.768c-0.256,0-0.491-0.139-0.616-0.362l-10.826-19.28v18.934c0,0.391-0.318,0.708-0.71,0.708
			H322.82c-0.392,0-0.708-0.317-0.708-0.708v-39.262c0-0.391,0.316-0.708,0.708-0.708h12.371c0.261,0,0.499,0.141,0.623,0.369
			l10.217,18.766v-18.428c0-0.391,0.318-0.708,0.71-0.708h11.436c0.392,0,0.708,0.317,0.708,0.708V410.108z M402.088,410.514
			c-0.133,0.189-0.35,0.302-0.58,0.302H388.97c-0.314,0-0.591-0.208-0.679-0.509l-1.501-5.1h-11.433l-1.604,5.113
			c-0.092,0.295-0.366,0.496-0.675,0.496h-12.152c-0.231,0-0.448-0.113-0.581-0.303c-0.133-0.189-0.163-0.433-0.084-0.65
			l14.461-39.262c0.104-0.278,0.369-0.463,0.665-0.463h11.823c0.297,0,0.563,0.186,0.664,0.466l14.298,39.261
			C402.252,410.083,402.22,410.325,402.088,410.514z M433.448,380.571c0,0.39-0.316,0.708-0.708,0.708h-10.289v28.491
			c0,0.391-0.317,0.708-0.709,0.708h-12.096c-0.392,0-0.71-0.316-0.71-0.708v-28.491h-10.289c-0.392,0-0.707-0.317-0.707-0.708
			v-10.063c0-0.391,0.315-0.708,0.707-0.708h34.093c0.392,0,0.708,0.316,0.708,0.708V380.571z M471.006,409.77
			c0,0.391-0.316,0.708-0.708,0.708h-33.103c-0.392,0-0.708-0.316-0.708-0.708v-39.262c0-0.391,0.316-0.708,0.708-0.708h32.498
			c0.391,0,0.707,0.316,0.707,0.708v10.063c0,0.39-0.316,0.708-0.707,0.708H450v3.478h17.824c0.391,0,0.707,0.317,0.707,0.708v9.348
			c0,0.392-0.316,0.708-0.707,0.708H450v3.478h20.298c0.392,0,0.708,0.316,0.708,0.708V409.77z"/>
		<path d="M115.161,113.917c24.119-0.085,43.648-19.663,43.648-43.793c0-24.15-19.529-43.719-43.648-43.804
			c-24.119,0.085-43.648,19.654-43.648,43.804C71.512,94.253,91.042,113.831,115.161,113.917z"/>
		<path d="M169.94,195.81c20.372,16.937,43.555,32.108,69.184,39.414c0.89,0.254,2.682,0.69,2.682,2.768c0,2.077,0,29.335,0,29.335
			c0,7.184,5.824,13.007,13.007,13.007h17.342c7.183,0,13.007-5.823,13.007-13.007v-49.858h-0.027
			c-0.211-7.251-4.482-13.805-14.101-15.258c-48.65-7.331-88.269-48.844-101.274-58.336c-13.006-9.492-18.968-12.735-26.555-15.716
			c-7.587-2.98-19.453-4.728-28.044-4.801c-8.591,0.073-14.777,0.375-18.593,0.811c-65.994,7.741-87.928,85.34-81.878,143.587
			c0.005,0,0.011,0,0.016,0c0.869,10.593,9.726,18.923,20.543,18.923c11.393,0,20.161-7.238,20.161-18.631
			c0-2.282-1.151-7.926-2.25-13.615c-0.96-4.968-3.112-40.958,9.587-59.202c0.996-1.432,2.141-1.761,2.141,0.23
			c-0.016,40.397-2.826,216.935-2.826,279.709c0,33.614,45.356,29.498,45.356,0c0-50.058,1.464-139.707,1.464-150.102
			s13.688-8.13,13.688-0.309c0,7.822,0.332,100.353,0.332,150.411c0,29.909,45.356,31.556,45.356,0
			c0-62.774-2.809-275.779-2.809-278.048C165.45,193.326,168.648,194.735,169.94,195.81z"/>
	</g>
</g>
</svg>
