<?xml version="1.0" encoding="iso-8859-1"?>
<!-- Generator: Adobe Illustrator 16.0.0, SVG Export Plug-In . SVG Version: 6.00 Build 0)  -->
<!DOCTYPE svg PUBLIC "-//W3C//DTD SVG 1.1//EN" "http://www.w3.org/Graphics/SVG/1.1/DTD/svg11.dtd">
<svg version="1.1" xmlns="http://www.w3.org/2000/svg" xmlns:xlink="http://www.w3.org/1999/xlink" x="0px" y="0px" width="512px"
	 height="512px" viewBox="0 0 512 512" style="enable-background:new 0 0 512 512;" xml:space="preserve">
<g id="Artwork">
</g>
<g id="icons">
	<g>
		<path d="M128.333,141.471c5.683,2.281,11.792,3.445,17.916,3.445c15.927,0,31.101-8.114,39.975-21.336
			c9.001-13.41,10.625-30.944,4.241-45.783c-6.22-14.455-19.509-25.217-34.964-28.228c-15.805-3.08-32.439,2.095-43.687,13.615
			c-11.255,11.528-16.029,28.311-12.552,44.044C102.658,122.591,113.736,135.611,128.333,141.471z"/>
		<path d="M467.645,461.208c-0.47-0.547-46.041-54.477-48.575-138.216c-0.056-1.849-0.257-8.368-2.194-17.767
			c-10.935-53.077-26.579-132.793-29.014-145.845c-4.671-25.038-25.313-26.616-41.24-22.979S319.45,148.534,313,169.833
			c-16,52.833-74.107,71.608-78.596,75.347c-0.179-2.542-1.404-56.18-48.755-83.671c-17.056-9.902-54.609-16.016-82.104-0.156
			c-53.71,30.982-49.275,106.933-48.913,112.607c0.261,4.088,0.799,8.16,1.247,12.231c0.842,7.453,7.576,13.153,15.068,12.704
			c7.489-0.45,13.483-6.887,13.417-14.384l-0.005-0.685c-0.029-3.401-0.166-6.818-0.04-10.217c0.183-5.013,0.487-9.986,0.904-14.985
			c0.681-5.109,1.224-10.347,2.602-15.328c1.359-5.975,6.365-18.799,10.621-25.959c0.749-1.26,2.117-1.575,1.798,0.653
			S97.49,483.893,97.49,483.893c0.414,8.175,5.321,15.166,21.35,15.166c16.029,0,20.319-11.641,20.319-16.22
			s-0.089-111.263-0.089-116.31c0-5.046,9.994-6.996,9.994,0.154c0,7.15,0.886,116.185,0.886,116.185
			c0.407,8.175,6.86,16.299,20.998,16.299c14.136,0,18.849-8.179,18.849-17.439c0-15.417,0.221-259.422-0.442-261.905
			c-0.686-2.569,1.008-2.817,1.757-1.488l1.362,2.203l1.23,2.338c3.406,6.367,5.748,13.395,7.347,20.421
			c1.379,4.982,1.917,10.218,2.607,15.326c0.413,4.999,0.719,9.971,0.903,14.984c0.126,3.399-0.027,11.661-0.003,12.005
			c-7.39,5.391-7.109,17.774-4.856,20.979s6.765,4.103,10.064,1.984c1.483-0.953,2.6-2.431,3.104-4.122
			c0.273-0.917,0.271-1.816,0.326-2.761c0.073-1.237,0.358-2.46,0.844-3.602c5.789,2.045,12.346,0.098,16.086-4.77
			c2.893,1.955,4.798,5.266,4.798,9.013v186.542c0,4.041,3.373,7.413,7.415,7.413s7.413-3.372,7.413-7.413V302.332
			c-0.001-10.708-6.562-19.86-15.917-23.76c-1.028-0.429-0.896-2.611,0.213-2.413c1.275,0.229,7.654,2.962,12.883,2.276
			c37.842-4.96,62.524-33.594,76.86-47.553c1.613-1.571,4.476-5.181,5.877,0.784c0.927,3.948,6.842,37.774,11.636,60.247
			c1.174,5.503,0.424,8.253-4.303,12.087c-24.778,20.099-40.862,55.129-52.96,102.487c-9.364,36.657-11.468,67.897-11.553,69.209
			c-0.821,12.668,8.779,23.597,21.447,24.428c0.512,0.034,1.021,0.05,1.526,0.05c12.01,0,22.122-9.332,22.929-21.487
			c1.871-28.181,18.444-104.903,49.982-139.318c5.378-5.869,7.595,0.398,7.91,3.652c8.535,88.373,55.816,144.334,58.007,146.88
			c4.352,5.059,10.5,7.654,16.688,7.654c5.079,0,10.185-1.75,14.337-5.322C474.524,484.31,475.568,470.419,467.645,461.208z"/>
		<path d="M292,132.492c5.683,2.281,11.792,3.445,17.916,3.445c15.927,0,31.101-8.114,39.975-21.336
			c9.001-13.41,10.625-30.944,4.241-45.783c-6.22-14.455-19.509-25.217-34.964-28.228c-15.805-3.08-32.439,2.095-43.687,13.615
			c-11.255,11.528-16.029,28.311-12.552,44.044C266.325,113.612,277.403,126.632,292,132.492z"/>
	</g>
</g>
</svg>
