<?xml version="1.0" encoding="iso-8859-1"?>
<!-- Generator: Adobe Illustrator 16.0.0, SVG Export Plug-In . SVG Version: 6.00 Build 0)  -->
<!DOCTYPE svg PUBLIC "-//W3C//DTD SVG 1.1//EN" "http://www.w3.org/Graphics/SVG/1.1/DTD/svg11.dtd">
<svg version="1.1" xmlns="http://www.w3.org/2000/svg" xmlns:xlink="http://www.w3.org/1999/xlink" x="0px" y="0px" width="512px"
	 height="512px" viewBox="0 0 512 512" style="enable-background:new 0 0 512 512;" xml:space="preserve">
<g id="Artwork">
</g>
<g id="icons">
	<g>
		<g>
			<circle cx="163.498" cy="161.511" r="49.379"/>
			<path d="M230.704,384.598c10.311,0,19.927-6.513,23.391-16.827c4.339-12.92-2.616-26.912-15.537-31.251
				c-16.83-5.653-31.946-12.138-45.2-19.352c-0.237-1.138-0.549-2.27-0.942-3.388c-3.726-10.568-13.711-17.636-24.917-17.636h-5.11
				c-9.836-8.467-17.656-17.573-23.303-27.215c-4.023-6.875-6.468-13.188-7.942-18.529c-0.35-1.264-0.131-5.888,0.177-7.051
				c0.872-3.301,1.337-6.768,1.337-10.343c0-22.341-18.11-40.453-40.452-40.453c-15.426,0-26.154,9.599-35.655,21.336
				c-12.732,17.314-43.719,66.433-31.483,120.385c4.188,18.462,20.588,30.987,38.754,30.985c2.914,0,5.874-0.322,8.834-0.993
				c0.449-0.103,0.889-0.222,1.33-0.337l-27.284,21.965c-11.365,9.15-13.162,25.781-4.012,37.147
				c5.22,6.485,12.873,9.854,20.596,9.854c5.815-0.001,11.669-1.912,16.551-5.842l85.601-68.911
				c16.878,9.579,36.078,18.001,57.41,25.167C225.449,384.183,228.099,384.598,230.704,384.598z"/>
			<path d="M292.201,338.771c0.297,1.339,1.227,2.901,2.788,4.686s5.708,6.25,8.144,5.801s7.55-0.707,11.045-1.228
				c3.496-0.52,6.583-1.004,9.26-1.45c2.161-0.412,4.217-0.824,6.164-1.235c0.867-0.183,2.511-0.074,3.766,4.136
				c0.49,1.645,6.619,18.072,7.363,19.857c0.521,1.487,1.152,2.976,1.896,4.463c0.447,1.189,1.004,2.788,1.673,4.797
				c0.669,2.008,0.483,4.946-0.557,8.813c-0.447,1.934-1.266,4.982-2.455,9.148c-0.892,3.569-2.193,8.553-3.904,14.949
				s-3.979,14.727-6.806,24.99c-0.744,2.529-0.409,4.909,1.004,7.14c1.414,2.231,3.385,3.645,5.913,4.24
				c0.447,0.147,0.856,0.26,1.228,0.334c0.372,0.074,0.781,0.111,1.227,0.111c2.083,0,4.017-0.669,5.802-2.008
				c1.784-1.339,2.976-3.049,3.569-5.132c0,0,8.758-29.998,9.594-36.592s9.442-5.301,10.711,0s8.701,36.369,8.701,36.369
				c0.596,2.231,1.785,4.017,3.57,5.354c1.785,1.339,3.719,2.008,5.801,2.008c0.298,0,0.67-0.037,1.116-0.111
				s0.817-0.112,1.116-0.112c2.528-0.743,4.536-2.193,6.024-4.351c1.487-2.156,1.858-4.499,1.115-7.028l-8.256-33.914
				c-0.148-1.191-0.674-3.444,4.208-4.456s27.252-4.471,27.699-4.471c3.867-0.445,5.279,1.266,4.238,5.133l-9.371,37.708
				c-0.595,2.529-0.186,4.872,1.228,7.028c1.413,2.157,3.384,3.607,5.913,4.351c0.297,0,0.669,0.038,1.115,0.112
				s0.817,0.111,1.115,0.111c2.231,0,4.202-0.669,5.913-2.008s2.864-3.049,3.458-5.132l12.049-47.304
				c0.298-1.636,1.228-2.416,2.789-2.342c1.563,0.074,2.566,0.855,3.013,2.342l11.156,47.08c0.595,2.231,1.785,4.017,3.57,5.354
				c1.784,1.338,3.718,2.008,5.801,2.008c1.042,0,1.784-0.073,2.231-0.223c2.678-0.743,4.723-2.193,6.136-4.351
				c1.413-2.156,1.822-4.499,1.228-7.028c0,0-13.611-52.971-13.611-55.781c0-2.812-0.895-27.038-1.01-30.506
				c-0.115-3.467,1.444-3.566,2.197-3.772c4.684-1.277,8.787-2.942,12.313-4.992c4.09-2.38,7.437-4.797,10.039-7.252
				c2.604-2.455,4.537-4.574,5.803-6.359c1.264-1.785,1.971-2.826,2.119-3.124c0.892-1.636,1.078-3.31,0.558-5.021
				c-0.521-1.71-1.599-3.012-3.235-3.904c-1.637-0.892-3.347-1.116-5.132-0.669s-3.198,1.487-4.239,3.124
				c0,0.149-0.335,0.706-1.004,1.673c-0.67,0.967-1.711,2.12-3.124,3.458c-1.413,1.338-3.161,2.789-5.243,4.351
				c-2.083,1.562-4.611,2.938-7.587,4.128c-0.743,0.298-1.636,0.521-2.677,0.669c-1.785,0.447-4.314,0.669-7.586,0.669
				c0,0-73.172-0.279-77.373-0.295s-32.983-31.131-35.307-33.62s-1.082-18.52-5.132-18.52s-10.933,13.388-10.933,13.388
				c-3.422,0.743-5.341,1.175-7.571,1.77c-2.231,0.595-15.146,6.645-16.059,16.583c-0.231,2.515-2.4,9.091-3.144,9.983
				c-1.637,1.636-3.422,3.124-5.355,4.462s-4.239,3.719-6.916,7.14C292.201,335.647,291.902,337.135,292.201,338.771z"/>
		</g>
		<path d="M302.5,432.5c0,6.627-5.373,12-12,12h-66.75c-6.627,0-12-5.373-12-12v-19.75c0-6.627,5.373-12,12-12h66.75
			c6.627,0,12,5.373,12,12V432.5z"/>
	</g>
</g>
</svg>
