<?xml version="1.0" encoding="iso-8859-1"?>
<!-- Generator: Adobe Illustrator 16.0.0, SVG Export Plug-In . SVG Version: 6.00 Build 0)  -->
<!DOCTYPE svg PUBLIC "-//W3C//DTD SVG 1.1//EN" "http://www.w3.org/Graphics/SVG/1.1/DTD/svg11.dtd">
<svg version="1.1" xmlns="http://www.w3.org/2000/svg" xmlns:xlink="http://www.w3.org/1999/xlink" x="0px" y="0px" width="512px"
	 height="512px" viewBox="0 0 512 512" style="enable-background:new 0 0 512 512;" xml:space="preserve">
<g id="Artwork">
</g>
<g id="icons">
	<g>
		<path d="M111.225,205.711c-1.133,2.748-1.365,5.563-1.756,11.379h0.003c-0.111,1.767-0.436,10.519-0.121,18.887
			c0.472,12.584,1.76,25.016,11.661,26.756c3.41,0.592,170.71,2.068,208.197,0.348c2.543-0.113,4.122-0.185,4.51-0.193
			c5.347,0,9.332-3.104,11.223-8.742c1.464-4.364,2.115-11.277,2.115-22.415c0-15.998-0.002-21.577-1.937-26.066
			c6.484-4.116,10.791-11.354,10.791-19.603v-2.479c0-9.776-6.047-18.134-14.603-21.553c0.715-3.378,1.155-7.888,1.259-14.065
			c0.109-11.068-1.945-32.545-16.947-52.035c-18.516-24.057-49.941-36.633-93.438-37.382c-1.245-0.017-2.508-0.03-3.728-0.03
			c-56.303,0-84.24,22.648-97.761,41.648c-15.442,21.698-16.837,44.719-16.959,49.062c-0.181,5.36,0.223,9.575,1.025,12.883
			c-8.448,3.469-14.399,11.773-14.399,21.473v2.479C100.361,194.341,104.7,201.604,111.225,205.711z M329.016,245.666
			c-0.188,0.008-0.386,0.018-0.592,0.026c-37.245,1.71-187.642,0.82-200.778,0.095c-1.102-6.166-1.266-19.453-0.81-27.539
			c0.104-1.551,0.205-3.054,0.302-4.182c22.051-0.009,92.617-0.051,145.408-0.082c25.679-0.016,47.152-0.029,56.785-0.033
			c0.32,2.855,0.32,8.305,0.32,17.778C329.651,238.958,329.333,243.219,329.016,245.666z M131.133,149.763
			c0.211-7.558,4.736-73.841,97.322-73.841c1.144,0,2.328,0.012,3.462,0.027c84.788,1.461,93.454,50.727,93.246,71.782
			c-0.063,3.778-0.274,6.45-0.506,8.295h-193.3C131.167,154.371,131.052,152.18,131.133,149.763z"/>
		<path d="M457.838,273.997h-23.402c-10.66,0-19.298,9.049-19.298,20.212v2.237c-23.607-4.575-34.868-10.076-89.368-13.699
			c-36.836-2.449-46.664,15.464-72.222,15.464c-25.56,0-66.834-6.277-94.774-0.575c-23.452,4.786-25.559,29.463-12.424,39.757
			c8.481,6.649,22.347,9.131,37.615,12.484c58.001,12.743,62.451,10.104,90.176,10.59c13.489,0.237,10.478,15.063,0.734,15.309
			c-59.187,1.494-145.608-21.565-168.866-44.109s-63.04-17.445-60.2,13.793c2.839,31.238,119.235,107.065,209.164,108.013
			c75.884,0.799,141.515-37.396,160.165-49.347v1.998c0,11.161,8.638,20.211,19.298,20.211h23.402
			c10.656,0,19.298-9.05,19.298-20.211V294.209C477.136,283.046,468.494,273.997,457.838,273.997z"/>
	</g>
</g>
</svg>
