<?xml version="1.0" encoding="iso-8859-1"?>
<!-- Generator: Adobe Illustrator 16.0.0, SVG Export Plug-In . SVG Version: 6.00 Build 0)  -->
<!DOCTYPE svg PUBLIC "-//W3C//DTD SVG 1.1//EN" "http://www.w3.org/Graphics/SVG/1.1/DTD/svg11.dtd">
<svg version="1.1" xmlns="http://www.w3.org/2000/svg" xmlns:xlink="http://www.w3.org/1999/xlink" x="0px" y="0px" width="512px"
	 height="512px" viewBox="0 0 512 512" style="enable-background:new 0 0 512 512;" xml:space="preserve">
<g id="Artwork">
</g>
<g id="icons">
	<path d="M369.759,73.648c-11.998,0-21.73,9.726-21.73,21.73v94.171c0,3.996-3.255,7.246-7.245,7.246
		c-3.989,0-7.243-3.25-7.243-7.246V51.916c0-12.005-9.735-21.732-21.732-21.732s-21.732,9.728-21.732,21.732v123.147
		c0,3.995-3.254,7.243-7.244,7.243s-7.245-3.248-7.245-7.243V37.429c0-12.005-9.725-21.732-21.729-21.732
		c-12.006,0-21.732,9.728-21.732,21.732v137.635c0,3.995-3.248,7.243-7.243,7.243c-3.998,0-4.652-3.248-4.652-7.243V66.404
		c0-12.006-9.727-21.732-21.732-21.732s-21.732,9.727-21.732,21.732c0,0,0.201,79.796,0.201,87.963s2.647,11.473,3.956,13.196
		c16.339,21.522,31.759,41.82,33.936,44.637c12.358,15.99,13.506,8.923,44.271,16.274c0.022,0.002,0.039,0.01,0.058,0.013
		c0.003,0.003,0.006,0.003,0.01,0.005s0.004,0.002,0.004,0.002c1.962,0.45,3.882,1.008,5.763,1.659
		c15.187,5.211,49.836,18.037,49.836,18.037c6.544,2.329,10.063,9.086,7.875,15.116c-2.249,5.982-9.323,8.968-15.921,6.656
		c0,0-13.955-4.018-15.354-4.443s-5.194-1.149-1.859,3.166s44.776,57.928,44.776,57.928c3.216,4.158,2.45,10.131-1.707,13.339
		c-4.155,3.216-10.128,2.45-13.34-1.707l-29.078-37.616c-1.072-1.384-2.166-2.335-3.55-1.267c-1.382,1.071-1.638,3.062-0.569,4.45
		l36.833,47.651c3.213,4.157,2.451,10.125-1.708,13.34c-4.156,3.212-10.124,2.448-13.337-1.708l-36.838-47.655
		c-1.069-1.381-3.063-1.637-4.446-0.57c-1.38,1.067-1.638,3.065-0.57,4.448l32.959,42.637c3.211,4.156,2.444,10.133-1.709,13.339
		c-4.155,3.214-10.128,2.448-13.338-1.708l-36.836-47.653c-1.068-1.384-3.064-1.635-4.444-0.566
		c-1.382,1.065-1.642,3.061-0.57,4.446l25.201,32.602c3.215,4.158,2.447,10.126-1.709,13.343c-4.151,3.206-10.125,2.448-13.34-1.708
		c0,0-46.107-59.654-52.341-67.72c-0.115-0.146-0.236-0.304-0.357-0.468c-20.646-27.034-8.731-39.74-22.455-58.938l-1.792-2.392
		c-4.102-5.337-10.735-14.217-18.405-24.573l-9.439-12.603c-8.694-13.398-25.658-17.891-38.088-10.215
		c-12.387,7.852-15.464,24.979-6.883,38.335c0,0,44.728,71.618,64.889,102.263c2.498,3.803,5.191,7.498,8.104,11.059
		c0.002,0.002,0.003,0.005,0.005,0.007c0.004,0.005,0.009,0.01,0.011,0.014c0.03,0.037,0.06,0.073,0.088,0.109
		C199.75,380,215.728,407.5,215.728,434.605c0,9.218-0.141,29.833-0.393,42.389c-0.15,7.506-1.835,16.392,11.499,16.392
		s102.49,0,111.334,0c11.333,0,11.061-8.494,11.154-12.223c1.149-46.041,0.296-11.638,0.296-46.557
		c0-57.979,41.396-62.509,41.861-142.291c0.008-0.467,0.012-0.921,0.012-1.349c0-23.29,0-195.587,0-195.587
		C391.491,83.374,381.756,73.648,369.759,73.648z"/>
</g>
</svg>
