<?xml version="1.0" encoding="iso-8859-1"?>
<!-- Generator: Adobe Illustrator 16.0.0, SVG Export Plug-In . SVG Version: 6.00 Build 0)  -->
<!DOCTYPE svg PUBLIC "-//W3C//DTD SVG 1.1//EN" "http://www.w3.org/Graphics/SVG/1.1/DTD/svg11.dtd">
<svg version="1.1" xmlns="http://www.w3.org/2000/svg" xmlns:xlink="http://www.w3.org/1999/xlink" x="0px" y="0px" width="512px"
	 height="512px" viewBox="0 0 512 512" style="enable-background:new 0 0 512 512;" xml:space="preserve">
<g id="Artwork">
</g>
<g id="icons">
	<g>
		<path d="M171.21,301.655c-17.868-20.495-20.386-52.657-32.563-68.121c-10.221-12.98-26.436-6.694-28.37,4.661
			c-2.992,17.574,15.866,69.358,25.381,85.965c2.37,4.135-1.879,11.778-9.214,5.198c-7.335-6.581-36.501-73.585-25.139-117.817
			c5.563-21.654-8.782-44.287-27.167-32.852c-18.385,11.434-29.071,106.724-1.78,162.478c23.029,47.047,71.636,78.16,80.079,83.481
			c5.741,3.618,8.068,24.59,8.97,37.639c0.424,6.141,2.109,10.332,8.919,10.324c7.5-0.009,22.746,0.016,43.903,0.007
			c11.035,0,11.419-6.625,11.416-9.789C225.569,379.694,230.053,369.151,171.21,301.655z"/>
		<path d="M340.478,301.655c17.868-20.495,20.386-52.657,32.563-68.121c10.221-12.98,26.436-6.694,28.37,4.661
			c2.992,17.574-15.866,69.358-25.381,85.965c-2.37,4.135,1.879,11.778,9.214,5.198c7.335-6.581,36.501-73.585,25.139-117.817
			c-5.563-21.654,8.782-44.287,27.167-32.852c18.385,11.434,29.071,106.724,1.78,162.478c-23.029,47.047-71.636,78.16-80.079,83.481
			c-5.741,3.618-8.068,24.59-8.97,37.639c-0.424,6.141-2.109,10.332-8.919,10.324c-7.5-0.009-22.746,0.016-43.903,0.007
			c-11.035,0-11.419-6.625-11.416-9.789C286.118,379.694,281.635,369.151,340.478,301.655z"/>
		<path d="M313.122,39.343c-22.614,0-43.109,9.024-58.122,23.648c-15.013-14.624-35.508-23.648-58.122-23.648
			c-46.021,0-83.328,37.307-83.328,83.329c0,17.864,5.64,34.4,15.21,47.966c3.813,5.963,8.394,11.388,13.612,16.125l86.439,86.571
			c8.657,8.659,17.314,17.315,25.971,17.315c0.072,0,0.145-0.012,0.217-0.013c0.072,0.001,0.145,0.013,0.217,0.013
			c8.657,0,17.314-8.656,25.971-17.315l86.439-86.571c5.218-4.738,9.799-10.162,13.612-16.125
			c9.57-13.566,15.21-30.103,15.21-47.966C396.45,76.65,359.143,39.343,313.122,39.343z"/>
	</g>
</g>
</svg>
