<?xml version="1.0" encoding="iso-8859-1"?>
<!-- Generator: Adobe Illustrator 16.0.0, SVG Export Plug-In . SVG Version: 6.00 Build 0)  -->
<!DOCTYPE svg PUBLIC "-//W3C//DTD SVG 1.1//EN" "http://www.w3.org/Graphics/SVG/1.1/DTD/svg11.dtd">
<svg version="1.1" xmlns="http://www.w3.org/2000/svg" xmlns:xlink="http://www.w3.org/1999/xlink" x="0px" y="0px" width="512px"
	 height="512px" viewBox="0 0 512 512" style="enable-background:new 0 0 512 512;" xml:space="preserve">
<g id="Artwork">
</g>
<g id="icons">
	<path d="M489.301,192.035c0-74.397-60.312-134.706-134.705-134.706c-39.549,0-75.117,17.042-99.764,44.187
		c-24.64-27.146-60.208-44.187-99.758-44.187c-74.395,0-134.707,60.309-134.707,134.706c0,39.548,17.044,75.114,44.188,99.758
		l146.317,146.544c14.653,14.655,29.31,29.307,43.96,29.307c14.656,0,29.313-14.652,43.964-29.307l146.316-146.544
		C472.257,267.149,489.301,231.583,489.301,192.035z M228.179,371.872c-5.292,5.05-13.557,8.312-21.057,8.312c0,0-0.001,0-0.002,0
		c-5.627,0-10.207-1.829-13.242-5.288c-4.528-5.114-4.591-10.127-3.32-14.491c0.943-3.238-1.205-3.453-2.625-3.223
		c-1.285,0.209-2.591,0.336-3.894,0.336c-4.801,0-8.675-1.746-11.517-5.191c-4.046-4.935-3.919-9.51-2.846-13.552
		c0.825-3.108-1.566-2.692-3.008-2.438c-1.147,0.202-2.321,0.33-3.509,0.33c-4.416,0-8.086-1.813-10.91-5.39
		c-4.228-5.347-3.757-9.908-2.828-13.951c0.496-2.158-1.112-2.345-2.262-2.109c-1.286,0.264-2.617,0.436-3.977,0.436
		c-4.351,0-7.982-1.733-11.102-5.299c-7.814-8.959-3.009-23.755,5.923-32.326c4.386-4.181,10.013-6.48,15.851-6.48
		c5.498,0,10.553,2.078,14.23,5.851c3.159,3.247,4.874,7.572,5.116,12.262c0.134,2.591,0.967,3.257,2.538,3.226
		c4.902-0.099,9.363,2.208,12.62,5.522c3.213,3.314,4.9,7.731,5.124,12.503c0.073,1.564-0.315,3.006,2.087,2.994
		c5.086-0.026,9.723,2.131,13.059,5.547c3.655,3.758,4.94,8.821,5.264,14.131c0.107,1.761,0.403,2.49,2.126,2.736
		c5.345,0.762,10.336,2.012,13.9,5.666c3.583,3.697,5.498,8.664,5.396,13.99C235.204,361.846,232.603,367.64,228.179,371.872z
		 M353.408,312.168c-3.095,3.081-8.362,5.665-12.742,5.665c-2,0-3.764-1.082-5.667-1.875c-2-0.833-2.958,0.625-2.292,1.958
		c2.889,5.78,2.034,12.344-2.676,17.054c-3.043,3.043-7.101,4.72-11.424,4.72c-3.026,0-5.925-0.898-8.525-2.372
		c-1.958-1.11-2.967,0.424-2.625,2.015c1.135,5.267-0.022,10.28-4.088,14.343c-3.094,3.082-7.207,4.777-11.584,4.777
		c-2.938,0-5.754-0.764-8.22-2.196c-1.209-0.703-3.381,0.372-3.382,2.739c-0.001,4.191-1.591,8.383-4.768,11.574
		c-3.098,3.09-7.212,4.789-11.593,4.789c-4.383,0-8.495-1.699-11.578-4.785c-2.319-2.339-6.04-6.434-7.139-7.683
		c-0.095-0.083-0.183-0.173-0.266-0.27c-0.502-0.59-0.723-1.37-0.6-2.136c1.507-9.425-1.242-18.544-7.543-25.017
		c-3.359-3.433-7.577-5.961-12.192-7.305c-0.92-0.269-1.624-1.013-1.839-1.947c-1.146-4.974-3.643-9.554-7.222-13.243
		c-3.201-3.289-7.239-5.755-11.678-7.128c-0.873-0.27-1.544-0.971-1.777-1.854c-1.209-4.594-3.501-8.65-6.811-12.057
		c-3.182-3.279-7.221-5.739-11.678-7.115c-0.875-0.271-1.55-0.976-1.78-1.863c-1.185-4.557-3.475-8.622-6.806-12.083
		c-5.187-5.342-12.858-8.41-21.04-8.41c-8.411,0-16.612,3.218-22.503,8.828c-3.617,3.516-6.342,7.822-8.08,12.78
		c-0.241,0.685-0.75,1.24-1.412,1.538c-0.661,0.297-1.416,0.312-2.086,0.037c-7.759-3.169-16.527-5.719-16.614-5.745
		c-1.132-0.328-1.91-1.364-1.91-2.542V169.142c0-0.857,0.415-1.661,1.113-2.157c0.699-0.497,1.594-0.624,2.404-0.342l31.133,10.842
		c0.042,0.015,0.082,0.029,0.122,0.046c4.159,1.683,8.353,2.537,12.464,2.536c7.675,0,12.562-3.008,12.61-3.039
		c1.625-1.064,40.798-26.579,60.479-26.579c20.175,0,29.543,11.577,29.932,12.069c0.486,0.616,0.674,1.416,0.513,2.183
		c-0.162,0.768-0.656,1.425-1.348,1.793c-0.285,0.152-28.663,15.27-40.842,23.698c-0.035,0.024-0.07,0.047-0.105,0.069
		c-8.481,5.293-13.544,14.338-13.544,24.195c0,15.65,12.839,28.467,28.621,28.57c2.813,0,8.945-1.52,17.117-5.806
		c0.033-0.018,0.067-0.035,0.102-0.051c6.243-2.938,20.422-10.656,29.708-14.67c9.281-4.012,14.297-3.574,20.047,2.176
		c2.718,2.718,62.724,63.844,62.869,63.991C361.024,295.08,359.77,305.807,353.408,312.168z M418.987,274.253
		c0,1.265-0.895,2.353-2.135,2.597c-0.83,0.164-36.25,7.786-40.071,7.786c-6.959,0-12.772-2.195-17.277-6.526
		C345.055,264.263,293.518,213.017,293,212.5c-0.126-0.118-3.754-3.508-10.015-3.508c-3.266,0-6.693,0.936-10.187,2.781
		c-14.904,7.855-29.444,15.643-37.058,19.342c-3.535,1.884-7.233,2.861-10.907,2.862c-5.646,0-11.025-2.333-15.149-6.572
		c-3.734-3.839-5.964-8.853-5.964-13.413c0-7.822,4.381-14.24,13.025-19.076c18.886-11.451,58.451-33.626,74.227-42.009
		c5.116-2.721,8.98-3.882,12.919-3.882c6.183,0,12.582,3.068,20.748,9.947c16.608,13.969,31.607,26.886,31.757,27.014
		c0.063,0.049,2.762,2.176,7.264,2.177c1.018,0,2.064-0.111,3.11-0.332c18.852-3.986,48.693-10.666,48.992-10.733
		c0.785-0.176,1.607,0.014,2.233,0.517c0.627,0.502,0.993,1.262,0.993,2.066V274.253z"/>
</g>
</svg>
