<?xml version="1.0" encoding="iso-8859-1"?>
<!-- Generator: Adobe Illustrator 16.0.0, SVG Export Plug-In . SVG Version: 6.00 Build 0)  -->
<!DOCTYPE svg PUBLIC "-//W3C//DTD SVG 1.1//EN" "http://www.w3.org/Graphics/SVG/1.1/DTD/svg11.dtd">
<svg version="1.1" xmlns="http://www.w3.org/2000/svg" xmlns:xlink="http://www.w3.org/1999/xlink" x="0px" y="0px" width="512px"
	 height="512px" viewBox="0 0 512 512" style="enable-background:new 0 0 512 512;" xml:space="preserve">
<g id="Artwork">
</g>
<g id="icons">
	<g>
		<path d="M493.381,434.414c-10.438-18.481-25.879-52.047-25.879-65.413c0-24.986,1.74-56.059,2.577-73.981
			s-11.326-61.969-22.435-109.917c-7.979-34.437-51.674-18.887-63.69-10.352c-8.473,6.018-25.27,23.137-58.436,34.799v-20.73
			c0-3.866-3.134-7-7-7H260h-58.519c-3.866,0-7,3.134-7,7v20.73c-33.166-11.662-49.963-28.781-58.436-34.799
			c-12.017-8.535-55.712-24.084-63.69,10.352c-11.108,47.948-23.272,91.995-22.435,109.917s2.577,48.995,2.577,73.981
			c0,13.366-15.441,46.931-25.879,65.413c-5.847,10.335-2.209,23.453,8.125,29.3c10.335,5.848,23.453,2.209,29.3-8.125
			c5.252-9.284,31.454-57.088,31.454-86.587c0-7.129,0.054-15.779,0.131-24.501c0-5.125,3.163-4.55,4.62-2.857
			c30.236,35.129,35.897,73.413,36.925,107.344c0.353,11.647,9.905,20.849,21.478,20.849c0.22,0,0.442-0.003,0.664-0.01
			c11.869-0.36,21.199-10.273,20.839-22.142c-1.202-39.657-8.821-95.956-57.401-144.938c-1.005-1.013-2.754-4.44-1.739-9.021
			c0.868-3.917,14.903-67.743,15.819-71.359s3.925-1.722,5.58-0.581c14.351,9.893,35.296,18.899,52.068,22.548v60.502
			c0,3.866,3.134,7,7,7H260h58.519c3.866,0,7-3.134,7-7v-60.502c16.771-3.649,37.717-12.656,52.067-22.548
			c1.655-1.141,4.664-3.035,5.58,0.581s14.951,67.442,15.819,71.359c1.015,4.58-0.734,8.007-1.739,9.021
			c-48.58,48.982-56.199,105.28-57.401,144.938c-0.36,11.869,8.97,21.782,20.839,22.142c0.222,0.007,0.443,0.01,0.664,0.01
			c11.572,0,21.125-9.202,21.478-20.849c1.028-33.931,6.688-72.215,36.925-107.344c1.457-1.693,4.621-2.268,4.621,2.857
			c0.077,8.723,0.131,17.372,0.131,24.501c0,29.5,26.201,77.304,31.454,86.587c5.847,10.334,18.965,13.973,29.3,8.125
			C495.59,457.867,499.229,444.749,493.381,434.414z"/>
		<circle cx="382.272" cy="120.239" r="41.28"/>
		<circle cx="137.728" cy="120.239" r="41.28"/>
	</g>
</g>
</svg>
