<?xml version="1.0" encoding="iso-8859-1"?>
<!-- Generator: Adobe Illustrator 16.0.0, SVG Export Plug-In . SVG Version: 6.00 Build 0)  -->
<!DOCTYPE svg PUBLIC "-//W3C//DTD SVG 1.1//EN" "http://www.w3.org/Graphics/SVG/1.1/DTD/svg11.dtd">
<svg version="1.1" xmlns="http://www.w3.org/2000/svg" xmlns:xlink="http://www.w3.org/1999/xlink" x="0px" y="0px" width="512px"
	 height="512px" viewBox="0 0 512 512" style="enable-background:new 0 0 512 512;" xml:space="preserve">
<g id="Artwork">
</g>
<g id="icons">
	<g>
		<path d="M447.059,260.097c-1.537-1.536-1.914-2.888-1.711-4.045c-0.203-1.157,0.174-2.509,1.711-4.045
			c4.373-4.375,50.402-50.403,50.402-50.403c1.924-1.924,2.887-4.443,2.887-6.963c0-2.521-0.963-5.041-2.887-6.965
			c-3.846-3.847-10.08-3.847-13.928,0l-45.467,45.466c0,0-2.416,1.99-5.666,1.99c-4.625,0-45.563-0.003-47.629-0.003
			c-5.109,0-6.246,0.249-8.035-1.928s-28.631-54.104-31.594-59.847c-0.68-1.316-2.23-2.184-2.338-2.251
			c-5.467-3.448-57.67-29.805-59.848-31.595c-2.176-1.789-1.928-2.926-1.928-8.036c0-2.085-0.002-42.998-0.002-48.331
			c0-2.75,0.545-4.468,1.537-5.689c1.783-2.195,43.334-43.587,43.334-43.587c3.846-3.845,3.846-10.08,0-13.926
			c-1.924-1.924-4.443-2.886-6.965-2.886c-2.52,0-5.041,0.962-6.963,2.886c0,0-44.574,44.574-48.824,48.824
			c-1.541,1.54-2.133,2.442-3.596,2.447c-1.463-0.005-2.055-0.907-3.596-2.447c-4.25-4.25-48.824-48.824-48.824-48.824
			c-1.923-1.924-4.444-2.886-6.964-2.886c-2.521,0-5.042,0.962-6.965,2.886c-3.845,3.846-3.845,10.082,0,13.926
			c0,0,41.55,41.393,43.334,43.587c0.993,1.221,1.537,2.94,1.537,5.689c0,5.333-0.002,46.246-0.002,48.331
			c0,5.11,0.248,6.248-1.929,8.036c-2.176,1.79-54.381,28.146-59.847,31.595c-0.107,0.067-1.658,0.935-2.337,2.251
			c-2.963,5.743-29.805,57.67-31.594,59.847c-1.789,2.177-2.926,1.928-8.036,1.928c-2.066,0-43.003,0.003-47.628,0.003
			c-3.25,0-5.667-1.99-5.667-1.99l-45.467-45.466c-3.847-3.847-10.082-3.847-13.927,0c-1.924,1.924-2.886,4.444-2.886,6.965
			c0,2.52,0.962,5.039,2.886,6.963c0,0,46.029,46.029,50.403,50.403c1.536,1.536,1.913,2.888,1.71,4.045
			c0.202,1.157-0.174,2.509-1.71,4.045C67.668,264.472,21.64,310.5,21.64,310.5c-1.924,1.924-2.886,4.443-2.886,6.963
			c0,2.521,0.962,5.041,2.886,6.965c3.845,3.847,10.081,3.847,13.927,0l45.467-45.466c0,0,2.417-1.99,5.667-1.99
			c4.625,0,45.563,0.003,47.628,0.003c5.11,0,6.247-0.249,8.036,1.928c1.79,2.177,28.631,54.104,31.594,59.847
			c0.679,1.316,2.23,2.184,2.337,2.251c5.466,3.448,57.67,29.805,59.847,31.595c2.177,1.789,1.929,2.926,1.929,8.036
			c0,2.085,0.002,42.998,0.002,48.331c0,2.75-0.544,4.468-1.537,5.689c-1.784,2.195-43.334,43.587-43.334,43.587
			c-3.845,3.845-3.845,10.08,0,13.926c1.923,1.924,4.444,2.886,6.965,2.886c2.52,0,5.041-0.962,6.964-2.886
			c0,0,44.574-44.574,48.824-48.824c1.542-1.54,2.133-2.442,3.596-2.447c1.463,0.005,2.055,0.907,3.596,2.447
			c4.25,4.25,48.824,48.824,48.824,48.824c1.922,1.924,4.443,2.886,6.963,2.886c2.521,0,5.041-0.962,6.965-2.886
			c3.846-3.846,3.846-10.082,0-13.926c0,0-41.551-41.393-43.334-43.587c-0.992-1.221-1.537-2.94-1.537-5.689
			c0-5.333,0.002-46.246,0.002-48.331c0-5.11-0.248-6.248,1.928-8.036c2.178-1.79,54.381-28.146,59.848-31.595
			c0.107-0.067,1.658-0.935,2.338-2.251c2.963-5.743,29.805-57.67,31.594-59.847s2.926-1.928,8.035-1.928
			c2.066,0,43.004-0.003,47.629-0.003c3.25,0,5.666,1.99,5.666,1.99l45.467,45.466c3.848,3.847,10.082,3.847,13.928,0
			c1.924-1.924,2.887-4.444,2.887-6.965c0-2.52-0.963-5.039-2.887-6.963C497.461,310.5,451.432,264.472,447.059,260.097z
			 M358.057,266.501c0.408,1.061,0.703,1.852,0.25,3.099c-3.553,9.803-26.613,55.697-26.613,55.697
			c-0.281,0.472-0.918,1.581-2.34,2.255c-1.295,0.613-45.184,22.756-55.412,26.533c-1.994,0.736-2.691,0.194-3.395-0.17
			c-1.475-0.765-4.584-2.046-10.996-1.906c-6.413-0.141-9.522,1.141-10.998,1.906c-0.703,0.364-1.399,0.907-3.394,0.17
			c-10.229-3.777-54.118-25.92-55.412-26.533c-1.422-0.674-2.06-1.783-2.34-2.255c0,0-23.06-45.895-26.614-55.697
			c-0.452-1.247-0.158-2.038,0.25-3.099c0.922-2.398,2.047-6.783,2.047-10.45s-1.125-8.052-2.047-10.45
			c-0.408-1.061-0.703-1.852-0.25-3.099c3.554-9.803,26.614-55.697,26.614-55.697c0.281-0.472,0.918-1.581,2.34-2.255
			c1.293-0.613,45.182-22.756,55.412-26.533c1.994-0.736,2.691-0.194,3.394,0.17c1.476,0.765,4.585,2.046,10.998,1.906
			c6.412,0.141,9.521-1.141,10.996-1.906c0.703-0.364,1.4-0.907,3.395-0.17c10.229,3.777,54.117,25.92,55.412,26.533
			c1.422,0.674,2.059,1.783,2.34,2.255c0,0,23.061,45.895,26.613,55.697c0.453,1.247,0.158,2.038-0.25,3.099
			c-0.922,2.398-2.047,6.783-2.047,10.45S357.135,264.104,358.057,266.501z"/>
		<path d="M259.903,305.073L259.903,305.073c-0.012-0.001-0.022,0-0.032,0c-0.012,0-0.022-0.001-0.032-0.001v0.001
			c-0.099,0.001-0.192,0.01-0.289,0.013c-0.096-0.003-0.189-0.011-0.287-0.013v-0.001c-0.011,0-0.022,0.001-0.033,0.001
			c-0.01,0-0.021-0.001-0.032-0.001v0.001c-11.447,0.204-20.664,9.539-20.664,21.035s9.217,20.833,20.664,21.035v0.002
			c0.011,0,0.022-0.001,0.032-0.001c0.011,0,0.022,0.001,0.033,0.001v-0.002c0.098-0.001,0.191-0.009,0.287-0.013
			c0.097,0.004,0.19,0.012,0.289,0.013v0.002c0.01,0,0.021-0.001,0.032-0.001c0.01,0,0.021,0.001,0.032,0.001v-0.002
			c11.445-0.203,20.664-9.539,20.664-21.035S271.349,305.277,259.903,305.073z"/>
		<path d="M351.102,255.699c-0.204-11.446-9.54-20.665-21.035-20.665c-11.497,0-20.832,9.218-21.034,20.665h-0.003
			c0,0.011,0,0.021,0,0.032s0,0.022,0,0.032h0.003c0.001,0.097,0.009,0.193,0.011,0.289c-0.002,0.096-0.01,0.191-0.011,0.288h-0.003
			c0,0.011,0,0.022,0,0.033c0,0.011,0,0.021,0,0.033h0.003c0.202,11.446,9.537,20.665,21.034,20.665
			c11.495,0,20.831-9.218,21.035-20.665h0.003c0-0.012-0.002-0.022-0.002-0.033c0-0.01,0.002-0.022,0.002-0.033h-0.003
			c-0.002-0.097-0.009-0.191-0.013-0.288c0.004-0.096,0.011-0.191,0.013-0.289h0.003c0-0.01-0.002-0.021-0.002-0.032
			s0.002-0.021,0.002-0.032H351.102z"/>
		<path d="M259.903,164.343v-0.002c-0.012,0-0.022,0.001-0.032,0.001c-0.011,0-0.023-0.001-0.033-0.001v0.002
			c-0.098,0.002-0.192,0.009-0.288,0.013c-0.096-0.003-0.19-0.01-0.289-0.013v-0.002c-0.01,0-0.02,0.001-0.031,0.001
			c-0.011,0-0.021-0.001-0.032-0.001v0.002c-11.445,0.204-20.664,9.541-20.664,21.037c0,11.496,9.219,20.83,20.664,21.034v0.001
			c0.012,0,0.021,0,0.032,0c0.012,0,0.021,0,0.031,0v-0.001c0.099-0.001,0.193-0.009,0.289-0.012c0.096,0.002,0.19,0.01,0.288,0.012
			v0.001c0.01,0,0.022,0,0.033,0c0.01,0,0.021,0,0.032,0v-0.001c11.446-0.204,20.664-9.538,20.664-21.034
			C280.567,173.884,271.35,164.547,259.903,164.343z"/>
		<path d="M210.286,255.699c-0.204-11.447-9.538-20.665-21.035-20.665c-11.495,0-20.833,9.217-21.036,20.665h-0.002
			c0,0.011,0.001,0.022,0.001,0.031c0,0.011-0.001,0.022-0.001,0.034h0.002c0.002,0.097,0.01,0.191,0.014,0.288
			c-0.004,0.096-0.012,0.191-0.014,0.287h-0.002c0,0.01,0.001,0.022,0.001,0.033c0,0.01-0.001,0.021-0.001,0.033h0.002
			c0.204,11.446,9.541,20.665,21.036,20.665c11.497,0,20.831-9.219,21.035-20.665h0.002c0-0.011-0.002-0.023-0.002-0.033
			c0-0.011,0.002-0.023,0.002-0.033h-0.002c-0.001-0.095-0.009-0.191-0.012-0.287c0.002-0.097,0.011-0.191,0.012-0.288h0.002
			c0-0.011-0.002-0.022-0.002-0.034c0-0.009,0.002-0.021,0.002-0.031H210.286z"/>
	</g>
</g>
</svg>
