<?xml version="1.0" encoding="iso-8859-1"?>
<!-- Generator: Adobe Illustrator 16.0.0, SVG Export Plug-In . SVG Version: 6.00 Build 0)  -->
<!DOCTYPE svg PUBLIC "-//W3C//DTD SVG 1.1//EN" "http://www.w3.org/Graphics/SVG/1.1/DTD/svg11.dtd">
<svg version="1.1" xmlns="http://www.w3.org/2000/svg" xmlns:xlink="http://www.w3.org/1999/xlink" x="0px" y="0px" width="512px"
	 height="512px" viewBox="0 0 512 512" style="enable-background:new 0 0 512 512;" xml:space="preserve">
<g id="Artwork">
</g>
<g id="icons">
	<g>
		<path d="M299.961,398.469c-5.871,1.518-9.4,7.508-7.882,13.382c1.519,5.87,7.511,9.4,13.382,7.882
			c5.871-1.519,9.4-7.511,7.881-13.38C311.822,400.478,305.833,396.95,299.961,398.469z"/>
		<path d="M334.902,383.565c-5.251,3.035-7.049,9.75-4.012,15.004c3.03,5.25,9.749,7.048,15,4.013
			c5.251-3.034,7.047-9.751,4.015-15.001C346.869,382.328,340.153,380.532,334.902,383.565z"/>
		<path d="M365.432,359.695c-4.303,4.275-4.325,11.228-0.049,15.533c4.273,4.3,11.229,4.323,15.529,0.049
			c4.302-4.274,4.322-11.229,0.051-15.529C376.686,355.443,369.733,355.422,365.432,359.695z"/>
		<path d="M403.051,325.088c-5.274-3.003-11.975-1.165-14.979,4.104c-3.001,5.27-1.163,11.976,4.108,14.979
			c5.269,3,11.976,1.162,14.978-4.108C410.159,334.794,408.319,328.089,403.051,325.088z"/>
		<path d="M416.298,285.231c-5.861-1.572-11.883,1.901-13.454,7.759c-1.57,5.858,1.902,11.879,7.762,13.453
			c5.855,1.571,11.88-1.904,13.453-7.761C425.628,292.824,422.153,286.802,416.298,285.231z"/>
		<path d="M261.377,403.377c-0.064,0-0.127,0.008-0.191,0.009c-0.063-0.001-0.125-0.009-0.189-0.009
			c-6.065,0-10.982,4.916-10.982,10.983c0,6.062,4.917,10.98,10.982,10.98c0.064,0,0.126-0.009,0.189-0.01
			c0.064,0.001,0.127,0.01,0.191,0.01c6.064,0,10.982-4.918,10.982-10.98C272.359,408.292,267.441,403.377,261.377,403.377z"/>
		<path d="M222.41,398.469c-5.87-1.519-11.861,2.009-13.381,7.884c-1.516,5.869,2.012,11.861,7.881,13.38
			c5.875,1.518,11.865-2.012,13.383-7.882C231.812,405.977,228.283,399.987,222.41,398.469z"/>
		<path d="M187.47,383.565c-5.251-3.033-11.966-1.237-15.003,4.016c-3.032,5.25-1.236,11.967,4.016,15.001
			c5.25,3.035,11.968,1.236,15.002-4.013C194.519,393.315,192.722,386.6,187.47,383.565z"/>
		<path d="M141.41,359.747c-4.273,4.3-4.253,11.255,0.049,15.529c4.303,4.274,11.257,4.251,15.531-0.049
			c4.275-4.305,4.253-11.257-0.049-15.533C152.638,355.422,145.688,355.443,141.41,359.747z"/>
		<path d="M119.321,325.088c-5.267,3.001-7.108,9.706-4.106,14.975c3.002,5.271,9.708,7.108,14.978,4.108
			c5.271-3.003,7.11-9.709,4.107-14.979C131.298,323.924,124.595,322.085,119.321,325.088z"/>
		<path d="M119.529,292.991c-1.574-5.858-7.594-9.331-13.455-7.759c-5.855,1.571-9.33,7.593-7.759,13.451
			c1.571,5.857,7.595,9.332,13.451,7.761C117.625,304.87,121.1,298.849,119.529,292.991z"/>
		<path d="M305.674,89.83c-5.87-1.518-11.862,2.012-13.379,7.882c-1.521,5.875,2.01,11.865,7.881,13.382
			c5.87,1.519,11.861-2.009,13.379-7.884C315.074,97.34,311.546,91.348,305.674,89.83z"/>
		<path d="M346.105,106.979c-5.251-3.035-11.97-1.236-15.002,4.013c-3.035,5.254-1.238,11.97,4.014,15.004
			c5.252,3.033,11.966,1.237,15.002-4.016C353.151,116.731,351.356,110.013,346.105,106.979z"/>
		<circle cx="373.387" cy="142.075" r="10.981"/>
		<path d="M403.266,184.474c5.267-3,7.108-9.706,4.107-14.975c-3.003-5.271-9.709-7.108-14.979-4.108
			c-5.271,3.003-7.109,9.708-4.107,14.979C391.289,185.639,397.992,187.478,403.266,184.474z"/>
		<circle cx="413.667" cy="213.726" r="10.982"/>
		<path d="M261.592,84.222c-0.065,0-0.128,0.009-0.191,0.01c-0.064-0.001-0.127-0.01-0.191-0.01c-6.065,0-10.982,4.918-10.982,10.98
			c0,6.068,4.917,10.983,10.982,10.983c0.064,0,0.127-0.009,0.191-0.01c0.063,0.001,0.126,0.01,0.191,0.01
			c6.064,0,10.981-4.916,10.981-10.983C272.573,89.141,267.656,84.222,261.592,84.222z"/>
		<path d="M217.126,89.83c-5.871,1.519-9.399,7.511-7.88,13.38c1.519,5.875,7.508,9.403,13.379,7.884
			c5.871-1.518,9.4-7.508,7.883-13.382C228.988,91.842,222.998,88.312,217.126,89.83z"/>
		<circle cx="182.19" cy="116.488" r="10.982"/>
		<circle cx="149.415" cy="142.077" r="10.982"/>
		<circle cx="124.972" cy="174.933" r="10.981"/>
		<path d="M106.289,224.331c5.86,1.572,11.882-1.901,13.453-7.76c1.572-5.857-1.902-11.88-7.763-13.452
			c-5.854-1.571-11.879,1.904-13.45,7.761C96.957,216.738,100.434,222.76,106.289,224.331z"/>
		<path d="M114.438,254.802c0-6.065-4.917-10.98-10.984-10.98c-6.062,0-10.98,4.915-10.98,10.98s4.919,10.981,10.98,10.981
			C109.521,265.783,114.438,260.867,114.438,254.802z"/>
		<path d="M419.059,244.014c-6.068,0-10.983,4.916-10.983,10.979c0,6.065,4.915,10.982,10.983,10.982
			c6.062,0,10.98-4.917,10.98-10.982C430.039,248.93,425.12,244.014,419.059,244.014z"/>
		<path d="M477.283,241.89c-12.98,0.059-24.324,0.063-27.372,0.063c7.245-5.39,11.013-6.824,19.773-9.475
			c4.897-0.804,5.661-6.904,2.188-9.219c-0.901-0.662-2.072-1.012-3.442-0.903c-9.173-0.291-13.182-0.696-21.587-4.029
			c2.943-0.79,13.9-3.725,26.455-7.032c0.857-0.226,2.251-0.546,1.57-3.086c-1.475-5.493-4.907-18.294-5.453-20.328
			c-0.568-2.117-2.031-1.744-2.751-1.548c-12.706,3.471-23.505,6.373-26.479,7.172c5.713-7.227,8.985-9.532,17.104-14.563
			c2.032-1.26,2.745-3.104,2.56-4.835c-0.1-2.887-2.504-5.667-6.354-4.786c-9.313,2.131-13.258,2.794-22.403,1.674
			c2.647-1.509,12.508-7.119,23.816-13.493c0.774-0.437,2.042-1.097,0.739-3.383c-2.814-4.942-9.374-16.458-10.416-18.287
			c-1.086-1.906-2.405-1.174-3.053-0.804c-11.415,6.573-21.128,12.11-23.805,13.636c3.7-8.437,6.282-11.495,12.866-18.416
			c0.11-0.116,0.208-0.234,0.307-0.353c4.2-3.925-0.387-11.172-6.026-8.121c-8.4,4.545-12.027,6.239-21.137,7.606
			c2.146-2.162,10.146-10.206,19.336-19.373c0.63-0.627,1.672-1.604-0.193-3.458c-4.033-4.009-13.434-13.35-14.928-14.834
			c-1.557-1.545-2.633-0.488-3.155,0.043c-9.242,9.386-17.119,17.321-19.29,19.507c1.308-9.119,2.978-12.756,7.471-21.187
			c0.037-0.07,0.064-0.138,0.099-0.207c3.082-4.871-3.214-10.725-7.894-6.332c-6.959,6.541-10.033,9.105-18.492,12.754
			c1.525-2.639,7.204-12.458,13.75-23.669c0.447-0.768,1.207-1.978-1.071-3.295c-4.925-2.844-16.4-9.474-18.224-10.528
			c-1.898-1.096-2.67,0.201-3.039,0.848c-6.538,11.436-12.126,21.119-13.668,23.788c-1.063-9.151-0.378-13.095,1.813-22.392
			c0.034-0.149,0.037-0.284,0.061-0.429c1.677-5.522-5.943-9.489-9.276-4c-4.957,8.164-7.233,11.458-14.407,17.236
			c0.764-2.951,3.608-13.933,6.914-26.484c0.227-0.861,0.636-2.229-1.91-2.888c-5.506-1.425-18.338-4.743-20.378-5.271
			c-2.12-0.548-2.518,0.909-2.701,1.63c-3.239,12.768-6.033,23.593-6.805,26.577c-3.475-8.533-3.867-12.515-4.246-22.06
			c-0.125-3.158-2.276-4.801-4.57-5.002c-2.276-0.389-4.782,0.661-5.696,3.696c-2.756,9.146-4.133,12.904-9.633,20.295
			c0-0.194,0-0.424,0-0.684c0.002-3.825,0.01-14.415,0.066-26.751c0-0.134-0.004-0.296-0.019-0.466
			c-0.017-0.248-0.067-0.501-0.177-0.744c-0.237-0.557-0.771-1.045-2.015-1.045c-0.097,0-0.224,0-0.366,0c-5.427,0-17.732,0-20.68,0
			c-0.143,0-0.27,0-0.366,0c-1.228,0-1.762,0.476-2.006,1.023c-0.132,0.281-0.183,0.583-0.194,0.87c0,0.021-0.004,0.043-0.005,0.063
			c0,0.019,0,0.035,0,0.054c-0.002,0.086-0.003,0.172-0.003,0.246c0.047,10.35,0.06,19.45,0.064,24.379
			c0.001,1.35,0.001,2.403,0.001,3.056c-5.499-7.391-6.877-11.149-9.634-20.295c-0.916-3.035-3.422-4.085-5.699-3.695
			c-2.293,0.203-4.442,1.845-4.567,5.001c-0.378,9.544-0.771,13.527-4.245,22.06c-0.771-2.984-3.566-13.81-6.807-26.577
			c-0.182-0.721-0.579-2.179-2.702-1.63c-2.038,0.528-14.869,3.846-20.376,5.271c-2.546,0.659-2.137,2.027-1.91,2.888
			c3.307,12.551,6.15,23.533,6.915,26.484c-7.176-5.779-9.45-9.073-14.408-17.236c-3.333-5.488-10.949-1.525-9.276,3.996
			c0.024,0.146,0.026,0.283,0.062,0.433c2.19,9.297,2.877,13.241,1.812,22.392c-1.542-2.669-7.131-12.352-13.668-23.788
			c-0.37-0.647-1.143-1.944-3.041-0.848c-1.822,1.054-13.297,7.684-18.222,10.528c-2.277,1.317-1.519,2.527-1.07,3.295
			c6.546,11.21,12.226,21.03,13.749,23.669c-8.459-3.649-11.531-6.213-18.492-12.754c-4.68-4.394-10.975,1.461-7.893,6.333
			c0.034,0.068,0.063,0.137,0.1,0.206c4.49,8.431,6.161,12.068,7.469,21.187c-2.171-2.187-10.049-10.121-19.288-19.507
			c-0.524-0.531-1.602-1.589-3.156-0.043c-1.493,1.484-10.896,10.825-14.929,14.834c-1.867,1.854-0.823,2.83-0.193,3.458
			c9.191,9.167,17.189,17.21,19.339,19.373c-9.112-1.367-12.739-3.061-21.138-7.606c-5.644-3.052-10.231,4.202-6.023,8.126
			c0.098,0.116,0.195,0.233,0.304,0.348c6.581,6.921,9.165,9.979,12.866,18.416c-2.68-1.526-12.392-7.063-23.807-13.636
			c-0.646-0.371-1.968-1.102-3.052,0.804c-1.042,1.829-7.602,13.345-10.418,18.287c-1.3,2.286-0.034,2.946,0.741,3.383
			c11.309,6.375,21.167,11.984,23.815,13.493c-9.144,1.12-13.091,0.457-22.401-1.674c-3.85-0.881-6.253,1.897-6.354,4.783
			c-0.188,1.731,0.525,3.578,2.559,4.838c8.117,5.031,11.391,7.336,17.104,14.563c-2.976-0.799-13.774-3.701-26.48-7.172
			c-0.718-0.196-2.182-0.569-2.75,1.548c-0.544,2.033-3.979,14.834-5.453,20.328c-0.683,2.54,0.71,2.86,1.571,3.086
			c12.553,3.307,23.509,6.242,26.452,7.032c-8.128,3.223-12.141,3.708-20.69,4c-0.201-0.038-0.403-0.081-0.605-0.116
			c-5.383-0.936-7.906,5.357-4.729,8.525c0.799,0.974,2.01,1.678,3.633,1.825c0.073,0.006,0.146,0.01,0.221,0.016
			c8.094,2.474,11.838,3.993,18.817,9.185c-3.048,0-14.392-0.005-27.373-0.063c-0.889-0.003-2.317-0.056-2.317,2.574
			c0,5.688,0,18.94,0,21.046c0,2.192,1.511,2.211,2.256,2.208c13.171-0.061,24.353-0.065,27.435-0.065
			c-7.392,5.499-11.149,6.876-20.296,9.634c-3.059,0.922-4.102,3.46-3.686,5.751c0.29,2.224,1.949,4.252,5.025,4.346
			c9.547,0.293,13.532,0.65,22.097,4.045c-2.944,0.79-13.9,3.725-26.454,7.032c-0.859,0.226-2.252,0.546-1.571,3.086
			c1.475,5.493,4.907,18.294,5.454,20.327c0.568,2.118,2.03,1.746,2.75,1.549c12.707-3.471,23.502-6.373,26.481-7.172
			c-5.714,7.227-8.987,9.532-17.106,14.563c-2.032,1.26-2.744,3.105-2.559,4.837c0.101,2.886,2.503,5.666,6.354,4.784
			c9.312-2.131,13.258-2.794,22.402-1.674c-2.648,1.509-12.508,7.119-23.816,13.493c-0.774,0.436-2.04,1.097-0.739,3.383
			c2.814,4.942,9.374,16.458,10.417,18.287c1.085,1.906,2.406,1.174,3.051,0.804c11.416-6.573,21.128-12.11,23.808-13.636
			c-3.702,8.437-6.284,11.495-12.868,18.416c-0.109,0.115-0.206,0.232-0.304,0.349c-4.205,3.924,0.383,11.177,6.023,8.125
			c8.401-4.545,12.027-6.239,21.138-7.606c-2.148,2.162-10.147,10.205-19.338,19.372c-0.63,0.628-1.674,1.604,0.193,3.458
			c4.033,4.009,13.435,13.35,14.929,14.834c1.555,1.545,2.632,0.487,3.156-0.044c9.24-9.386,17.118-17.321,19.289-19.507
			c-1.308,9.119-2.979,12.756-7.47,21.187c-0.035,0.068-0.064,0.137-0.098,0.205c-3.086,4.872,3.212,10.727,7.892,6.331
			c6.96-6.539,10.033-9.103,18.492-12.752c-1.524,2.639-7.204,12.458-13.748,23.669c-0.448,0.768-1.207,1.978,1.068,3.295
			c4.924,2.844,16.4,9.474,18.224,10.528c1.898,1.096,2.668-0.201,3.039-0.848c6.537-11.437,12.127-21.119,13.669-23.788
			c1.063,9.151,0.377,13.095-1.811,22.392c-0.035,0.147-0.037,0.281-0.062,0.424c-1.682,5.525,5.941,9.496,9.275,4.004
			c4.958-8.163,7.232-11.458,14.406-17.236c-0.762,2.951-3.607,13.933-6.915,26.484c-0.226,0.861-0.633,2.229,1.913,2.888
			c5.506,1.425,18.338,4.743,20.375,5.27c2.123,0.549,2.52-0.909,2.702-1.63c3.24-12.768,6.034-23.593,6.806-26.577
			c3.474,8.533,3.866,12.515,4.245,22.06c0.125,3.158,2.276,4.8,4.57,5.001c2.276,0.389,4.782-0.661,5.695-3.695
			c2.757-9.146,4.135-12.904,9.635-20.295c0,0.576,0,1.449-0.001,2.571c-0.004,4.804-0.016,14.178-0.065,24.864
			c-0.001,0.128,0.005,0.282,0.016,0.443c0.016,0.254,0.065,0.516,0.177,0.764c0.236,0.558,0.77,1.048,2.016,1.048
			c0.098,0,0.226,0,0.369,0c2.955,0,15.253,0,20.678,0c0.143,0,0.271,0,0.367,0c1.238,0,1.771-0.484,2.012-1.038
			c0.127-0.276,0.176-0.57,0.188-0.85c0.001-0.022,0.004-0.045,0.004-0.067c0.001-0.018,0.001-0.034,0.001-0.051
			c0.002-0.087,0.004-0.174,0.004-0.249c-0.047-10.35-0.062-19.45-0.064-24.379c-0.002-1.35-0.002-2.403-0.002-3.056
			c5.5,7.391,6.879,11.149,9.635,20.295c0.914,3.035,3.42,4.084,5.696,3.695c2.294-0.201,4.443-1.844,4.568-5.001
			c0.38-9.544,0.771-13.527,4.246-22.06c0.772,2.984,3.564,13.81,6.806,26.577c0.184,0.721,0.579,2.179,2.702,1.63
			c2.038-0.527,14.87-3.845,20.376-5.27c2.547-0.659,2.139-2.027,1.912-2.888c-3.309-12.551-6.15-23.533-6.914-26.484
			c7.172,5.778,9.447,9.073,14.406,17.236c3.332,5.489,10.953,1.523,9.275-4c-0.023-0.145-0.026-0.28-0.062-0.429
			c-2.188-9.297-2.876-13.241-1.812-22.392c1.542,2.669,7.132,12.351,13.669,23.788c0.37,0.647,1.142,1.944,3.04,0.848
			c1.823-1.054,13.299-7.684,18.222-10.528c2.278-1.317,1.519-2.527,1.069-3.295c-6.544-11.21-12.223-21.03-13.748-23.669
			c8.459,3.649,11.532,6.213,18.494,12.752c4.672,4.391,10.961-1.447,7.898-6.315c-0.035-0.074-0.065-0.146-0.104-0.221
			c-4.492-8.431-6.163-12.068-7.472-21.187c2.172,2.187,10.05,10.121,19.289,19.507c0.524,0.531,1.602,1.589,3.156,0.044
			c1.494-1.484,10.896-10.825,14.93-14.834c1.865-1.854,0.822-2.83,0.192-3.458c-9.19-9.167-17.188-17.21-19.339-19.372
			c9.11,1.367,12.737,3.061,21.138,7.606c5.644,3.054,10.236-4.208,6.018-8.131c-0.096-0.115-0.19-0.229-0.298-0.342
			c-6.582-6.921-9.165-9.979-12.865-18.416c2.678,1.526,12.39,7.063,23.806,13.636c0.646,0.371,1.966,1.102,3.051-0.804
			c1.043-1.829,7.603-13.345,10.417-18.287c1.302-2.286,0.035-2.947-0.74-3.383c-11.307-6.375-21.166-11.984-23.814-13.493
			c9.144-1.12,13.092-0.457,22.402,1.674c3.85,0.882,6.252-1.898,6.354-4.784c0.186-1.731-0.527-3.577-2.561-4.837
			c-8.116-5.031-11.391-7.336-17.104-14.563c2.977,0.799,13.775,3.701,26.481,7.172c0.718,0.197,2.181,0.569,2.75-1.549
			c0.546-2.032,3.979-14.833,5.453-20.327c0.681-2.54-0.712-2.86-1.57-3.086c-12.555-3.307-23.511-6.242-26.455-7.032
			c8.338-3.306,12.353-3.731,21.373-4.022c5.569,0.832,7.996-6.115,4.008-9.032c-0.619-0.514-1.41-0.877-2.346-1.061
			c-8.747-2.647-12.514-4.083-19.753-9.469c3.082,0,14.263,0.004,27.435,0.065c0.744,0.003,2.255-0.015,2.255-2.208
			c0-2.105,0-15.358,0-21.047C479.601,241.832,478.172,241.885,477.283,241.89z M429.634,295.288
			c-0.636,1.604-2.097,7.048-2.349,8.754c-1.196,8.097,2.779,16.674,9.075,23.694c-9.353,0.593-18.135,3.895-22.95,10.454
			c-1.02,1.391-3.81,6.288-4.485,7.876c-3.175,7.462-1.556,16.665,2.673,24.99c-8.927-1.73-17.938-0.807-24.158,4.087
			c-1.355,1.067-5.354,5.04-6.431,6.388c-5.085,6.379-5.969,15.751-4.077,24.956c-8.269-4.063-17.346-5.547-24.697-2.366
			c-1.583,0.686-6.463,3.505-7.848,4.534c-6.508,4.84-9.755,13.602-10.307,22.922c-6.832-5.999-15.078-9.75-22.919-8.666
			c-1.708,0.237-7.167,1.648-8.774,2.27c-7.631,2.948-13.135,10.626-16.143,19.558c-5.149-7.895-12.4-13.951-20.526-14.894
			c-0.856-0.099-2.694-0.149-4.532-0.149s-3.676,0.05-4.531,0.149c-8.126,0.943-15.376,7-20.525,14.894
			c-3.009-8.932-8.512-16.61-16.145-19.558c-1.607-0.622-7.065-2.033-8.773-2.27c-7.839-1.084-16.086,2.667-22.919,8.667
			c-0.55-9.321-3.798-18.082-10.307-22.922c-1.384-1.029-6.265-3.848-7.847-4.534c-7.352-3.181-16.43-1.696-24.698,2.366
			c1.891-9.205,1.007-18.577-4.077-24.956c-1.075-1.348-5.074-5.321-6.43-6.388c-6.221-4.894-15.233-5.818-24.16-4.087
			c4.229-8.325,5.848-17.527,2.674-24.99c-0.675-1.588-3.466-6.486-4.485-7.876c-4.815-6.559-13.598-9.86-22.949-10.454
			c6.296-7.02,10.27-15.597,9.076-23.694c-0.253-1.706-1.714-7.15-2.351-8.754c-2.975-7.498-10.531-12.885-19.332-15.84
			c7.73-5.135,13.631-12.295,14.561-20.306c0.199-1.713,0.199-7.35,0-9.064c-0.913-7.868-6.618-14.916-14.145-20.03
			c8.715-2.969,16.18-8.332,19.131-15.773c0.636-1.604,2.096-7.048,2.35-8.754c1.194-8.097-2.78-16.674-9.076-23.694
			c9.352-0.593,18.135-3.895,22.949-10.454c1.021-1.391,3.811-6.288,4.488-7.876c3.174-7.462,1.555-16.665-2.674-24.99
			c8.925,1.73,17.938,0.807,24.158-4.087c1.354-1.067,5.353-5.04,6.429-6.388c5.086-6.378,5.969-15.751,4.078-24.956
			c8.269,4.063,17.346,5.546,24.696,2.366c1.584-0.686,6.465-3.505,7.85-4.534c6.507-4.84,9.754-13.602,10.305-22.922
			c6.832,5.999,15.078,9.751,22.919,8.667c1.71-0.237,7.167-1.648,8.776-2.27c7.631-2.948,13.134-10.626,16.143-19.558
			c5.147,7.894,12.397,13.95,20.523,14.894c0.107,0.013,0.229,0.024,0.365,0.035c0.951,0.076,2.56,0.114,4.167,0.114
			c1.839,0,3.677-0.05,4.532-0.149c8.126-0.943,15.377-6.999,20.525-14.894c3.009,8.932,8.512,16.61,16.143,19.558
			c1.611,0.622,7.067,2.033,8.776,2.27c7.839,1.085,16.086-2.668,22.918-8.667c0.552,9.321,3.8,18.083,10.308,22.923
			c1.384,1.029,6.264,3.848,7.847,4.534c7.351,3.181,16.428,1.697,24.696-2.366c-1.891,9.205-1.006,18.577,4.079,24.956
			c1.075,1.348,5.073,5.321,6.43,6.388c6.221,4.894,15.232,5.818,24.159,4.087c-4.229,8.325-5.848,17.527-2.673,24.99
			c0.674,1.588,3.465,6.486,4.485,7.876c4.815,6.559,13.598,9.86,22.949,10.454c-6.295,7.02-10.271,15.597-9.076,23.694
			c0.253,1.706,1.715,7.15,2.351,8.754c2.952,7.442,10.417,12.805,19.132,15.774c-7.67,5.129-13.511,12.254-14.436,20.222
			c-0.199,1.713-0.199,7.351,0,9.064c0.92,7.928,6.709,15.023,14.32,20.146C440.108,282.443,432.598,287.818,429.634,295.288z"/>
	</g>
</g>
</svg>
