<?xml version="1.0" encoding="iso-8859-1"?>
<!-- Generator: Adobe Illustrator 16.0.0, SVG Export Plug-In . SVG Version: 6.00 Build 0)  -->
<!DOCTYPE svg PUBLIC "-//W3C//DTD SVG 1.1//EN" "http://www.w3.org/Graphics/SVG/1.1/DTD/svg11.dtd">
<svg version="1.1" xmlns="http://www.w3.org/2000/svg" xmlns:xlink="http://www.w3.org/1999/xlink" x="0px" y="0px" width="512px"
	 height="512px" viewBox="0 0 512 512" style="enable-background:new 0 0 512 512;" xml:space="preserve">
<g id="Artwork">
</g>
<g id="icons">
	<path d="M254.102,69.878c-2.206,5.417-3.424,11.342-3.424,17.552c0,25.731,20.86,46.589,46.595,46.589
		c25.723,0,46.587-20.858,46.587-46.589c0-5.579-0.983-10.929-2.781-15.887c-0.26-0.717-0.535-2.946,0.537-4.934
		c0.992-1.84,12.956-26.562,12.956-26.562c0.938-1.923,0.52-4.233-1.034-5.704c-0.845-0.801-21.099-19.608-56.134-19.608
		s-55.289,18.807-56.134,19.608c-1.598,1.513-1.99,3.906-0.959,5.851c0,0,11.266,21.433,12.763,24.08
		C255.024,67.722,254.378,69.198,254.102,69.878z"/>
	<path d="M56.714,282.037l47.217,29.866c6.52,4.124,15.148,2.182,19.272-4.338l8.399-13.28c4.124-6.52,2.182-15.148-4.338-19.271
		l-47.218-29.866c-6.52-4.125-15.148-2.183-19.272,4.337l-8.399,13.28C48.251,269.284,50.194,277.913,56.714,282.037z"/>
	<circle cx="143.387" cy="216.595" r="43.761"/>
	<path d="M366.436,366.168c3.916,1.501,84.071,32.236,84.071,32.236c2.708,1.038,5.491,1.53,8.228,1.53
		c9.247,0,17.967-5.619,21.475-14.768c4.546-11.858-1.38-25.157-13.238-29.704l-114.362-43.85
		c-1.821-12.246-3.333-23.533-4.251-32.538c3.856-3.975,7.725-8.625,11.58-13.686c4.501-5.911,16.999-18.068,15.113-45.569
		c-1.886-27.501-17.709-72.165-77.646-72.165s-73.578,44.663-75.464,72.165c-1.885,27.501,10.612,39.658,15.113,45.569
		c2.973,3.904,5.956,7.564,8.935,10.858c0.882,0.976,2.743,2.336,2.291,5.501c-0.452,3.166-1.286,8.644-2.371,15.607
		c-0.175,1.128-0.554,3.52-4.015,3.331c-2.715-0.148-5.309-0.333-7.782-0.55c-0.68-0.06-1.221,0.536-0.934,1.036
		c0.2,0.348,0.358,0.743,0.458,1.195c-0.001,0-0.002-0.001-0.003-0.002c0.013,0.059,0.02,0.124,0.031,0.185
		c0.021,0.121,0.043,0.242,0.056,0.371c0.01,0.093,0.014,0.192,0.019,0.289c0.007,0.138,0.01,0.28,0.006,0.427
		c-0.001,0.085-0.003,0.17-0.008,0.259c-0.015,0.244-0.038,0.494-0.082,0.761c-1.7,10.369-4.657,33.89-5.011,36.471
		c-0.03,0.219-0.066,0.436-0.106,0.65c-0.011,0.057-0.024,0.112-0.036,0.167c-0.032,0.16-0.066,0.319-0.105,0.475
		c-0.013,0.056-0.03,0.11-0.044,0.165c-0.041,0.156-0.084,0.311-0.132,0.462c-0.015,0.047-0.032,0.093-0.047,0.141
		c-0.052,0.157-0.108,0.313-0.168,0.464c-0.014,0.037-0.03,0.073-0.045,0.11c-0.066,0.159-0.135,0.314-0.209,0.465
		c-0.013,0.026-0.026,0.054-0.041,0.08c-0.08,0.158-0.166,0.311-0.256,0.457c-0.011,0.018-0.022,0.035-0.033,0.053
		c-0.097,0.154-0.2,0.301-0.308,0.44c-0.007,0.009-0.014,0.019-0.021,0.028c-0.116,0.146-0.238,0.286-0.368,0.415
		c-0.891,0.888-2.102,1.335-3.706,1.023c-6.878-1.327-13.315-2.775-19.32-4.309c-0.863-0.22-1.678-0.435-2.452-0.643
		c-0.452-0.122-0.889-0.242-1.313-0.36c-0.038-0.01-0.077-0.021-0.114-0.031c-0.416-0.117-0.82-0.23-1.212-0.343
		c-0.038-0.011-0.076-0.021-0.114-0.033c-0.394-0.113-0.778-0.225-1.151-0.335c-0.023-0.007-0.047-0.014-0.071-0.021
		c-2.448-0.724-4.475-1.381-6.459-2.009c-0.233-0.073-0.465-0.146-0.697-0.219c-0.074-0.023-0.148-0.046-0.222-0.069
		c-0.248-0.077-0.495-0.155-0.744-0.231c-0.049-0.015-0.098-0.03-0.147-0.046c-0.277-0.084-0.556-0.169-0.837-0.253
		c-0.056-0.017-0.112-0.034-0.168-0.051c-0.281-0.084-0.564-0.167-0.851-0.251c-0.059-0.017-0.118-0.034-0.178-0.051
		c-0.29-0.084-0.584-0.167-0.883-0.251c-0.054-0.015-0.109-0.03-0.163-0.045c-0.311-0.087-0.625-0.173-0.947-0.259
		c-0.039-0.01-0.078-0.021-0.116-0.031c-0.343-0.092-0.692-0.184-1.052-0.275c-5.197-1.327-3.839-5.282-2.686-8.173
		c0.894-2.246,9.543-24.31,12.748-34.281c0.076-0.237,0.16-0.457,0.249-0.664c0.054-0.124,0.111-0.235,0.169-0.349
		c0.034-0.069,0.067-0.141,0.104-0.207c0.081-0.145,0.165-0.28,0.251-0.408c0.013-0.019,0.025-0.039,0.038-0.057
		c0.1-0.142,0.202-0.274,0.308-0.396c1.561-1.795,3.809-1.415,4.976-1.023c7.607,2.553,16.399,4.945,26.85,7.159
		c0.718,0.152,1.056-0.365,0.532-0.775c-20.326-15.93-38.192-29.103-58.12-25.778c-7.112,1.186-17.195,5.076-24.834,16.877
		c-3.877,5.989-4.754,13.438-2.376,20.164c1.243,3.514,4.397,12.424,21.112,29.56c0.817,0.838,17.568,16.506,21.487,19.833
		c8.401,7.13,17.138,13.933,24.599,19.156c8.697,6.087,14.566,9.355,19.798,10.839c0.762,0.216,2.123,0.87,1.852,2.961
		c-0.389,2.997-1.609,9.439-1.981,11.899c-0.373,2.46-3.43,1.288-3.43,1.288L67.648,304.29c-7.984-5.058-18.556-2.684-23.613,5.3
		c-5.056,7.984-2.683,18.556,5.301,23.613c0,0,64.302,40.8,65.86,41.71c1.558,0.911,3.412,2.303,1.456,6.036
		c-1.956,3.734-49.239,93.989-49.239,93.989c-3.221,6.148-0.848,13.743,5.3,16.963c1.862,0.975,3.855,1.438,5.821,1.438
		c4.524,0,8.896-2.452,11.143-6.739c0,0,48.118-91.378,49.028-93.586c0.91-2.208,3.29-1.13,3.821-0.793
		c0.344,0.218,75.251,47.66,75.251,47.66c4.205,2.663,9.362,3.363,14.125,1.917c0,0,17.829-5.259,18.571-5.515
		s3.567-1.688,3.567,2.019s0,42.259,0,42.259c0,11.805,9.559,21.374,21.368,21.374c0,0,0,0,0.012,0
		c11.798,0,21.369-9.569,21.369-21.374c0,0,0-46.056,0-47.259s3.412-1.165,3.412,0s0,47.259,0,47.259
		c0,11.805,9.572,21.374,21.37,21.374c0.012,0,0.012,0,0.012,0c11.81,0,21.368-9.569,21.368-21.374c0,0,0.089-49.26,0-50.534
		c-0.089-1.275,2.186-1.739,2.817-0.619c0.63,1.12,34.644,61.536,34.644,61.536c3.405,6.048,11.068,8.191,17.116,4.786
		s8.19-11.068,4.786-17.116c0,0-31.844-56.486-32.752-58.162c-0.908-1.675,0.177-2.938,1.613-2.548
		c3.048,0.827,81.951,28.498,81.951,28.498c1.858,0.645,3.752,0.951,5.614,0.951c7.084,0,13.71-4.434,16.165-11.504
		c3.1-8.928-1.625-18.679-10.552-21.779c0,0-92.277-32.244-96.767-33.599c-4.49-1.354-4.37-4.458-4.651-6.062
		c-0.346-1.97-0.696-3.975-1.05-6.007C361.64,366.997,362.521,364.667,366.436,366.168z M333.296,238.274
		c0,2.626-1.356,3.698-2.063,4.287c-12.684,10.57-29.632,18.31-25.185,37.083c1.922,8.119,14.261,14.133,21.633,12.827
		c1.102-0.195,2.209-0.493,3.321-0.886c0.763-0.269,2.294-0.51,2.294,1.858s0,4.742,0,4.742c0,3.092-2.91,5.6-6.499,5.6
		c0,0-1.907,0-4.995,0c-3.089,0-4.463-1.506-5.462-2.149c-4.372-2.81-9.714-4.164-15.276-3.467
		c-12.006,1.504-28.378,2.708-32.807,2.708s-4.562-1.668-4.562-2.691c0,0,0-3.301,0-5.875c0-2.574,1.345-1.07,2.016-0.823
		c1.206,0.441,2.406,0.773,3.599,0.984c7.372,1.306,19.368-3.473,21.291-11.591c4.438-18.738-12.086-27.709-24.77-38.257
		c-0.733-0.61-2.137-0.796-2.137-4.734c0-3.939,0-17.159,0-17.159c0-3.093,2.909-5.6,6.498-5.6h28.297h0.011h28.297
		c3.589,0,6.499,2.507,6.499,5.6C333.296,220.729,333.296,235.649,333.296,238.274z"/>
	<path d="M179.088,430.136h-9.838V336.25h-7v93.886h-9.838c-4.302,0-7.801,3.5-7.801,7.802v43.981c0,4.301,3.5,7.801,7.801,7.801
		h26.676c4.302,0,7.802-3.5,7.802-7.801v-43.981C186.89,433.635,183.39,430.136,179.088,430.136z M179.938,451.072
		c0,0.592-0.057,1.682-1.498,1.682c-2.112,0-24.265,0-25.539,0c-1.493,0-1.34-1.477-1.34-1.477v-13.34c0-0.468,0.381-0.85,0.85-0.85
		h26.676c0.469,0,0.85,0.381,0.85,0.85C179.938,437.938,179.938,450.48,179.938,451.072z"/>
</g>
</svg>
