<?xml version="1.0" encoding="iso-8859-1"?>
<!-- Generator: Adobe Illustrator 16.0.0, SVG Export Plug-In . SVG Version: 6.00 Build 0)  -->
<!DOCTYPE svg PUBLIC "-//W3C//DTD SVG 1.1//EN" "http://www.w3.org/Graphics/SVG/1.1/DTD/svg11.dtd">
<svg version="1.1" xmlns="http://www.w3.org/2000/svg" xmlns:xlink="http://www.w3.org/1999/xlink" x="0px" y="0px" width="512px"
	 height="512px" viewBox="0 0 512 512" style="enable-background:new 0 0 512 512;" xml:space="preserve">
<g id="Artwork">
</g>
<g id="icons">
	<g>
		<g>
			<path d="M284.333,254.145c-5.583,1.523-21.796,5.897-28.002,7.571c-1.533,0.414-3.34,0.438-4.808,0.067
				c-6.388-1.617-23.841-6.04-27.636-7.052c-0.514-0.137-1.363-0.396-2.203-0.657c-0.226-0.07-2.46-0.516-2.46,1.61
				c0,2.043-0.088,16.959-0.088,16.959h68.334c0,0-0.085-13.933-0.085-16.271C287.385,253.935,286.096,253.664,284.333,254.145z"/>
			<path d="M255.938,147.897c20.695-0.172,37.421-16.999,37.421-37.727c0-20.745-16.726-37.564-37.421-37.737
				c-20.695,0.172-37.422,16.992-37.422,37.737C218.516,130.898,235.243,147.725,255.938,147.897z"/>
			<path d="M253.303,154.622c-48.334,0-59.743,28.745-59.743,51.622c0,15.616,3.483,27.799,12.788,36.719
				c2.983,2.859,6.948,5.185,11.821,5.86c8.47,1.174,17.981-1.653,18.431-11.992c-0.101-10.114-11.948-9.958-17.85-21.921
				c-0.317-0.645-0.835-1.906-0.835-3.656c0-2.322,0-11.782,0-11.782c0-3.299,2.34-6.94,5.973-5.973
				c2.764,0.736,22.611,5.773,28.822,7.348c1.167,0.296,2.492,0.292,3.58-0.012c5.733-1.599,23.912-6.666,26.43-7.336
				c3.632-0.967,5.973,2.674,5.973,5.973c0,0,0.098,12.441,0,14.015c0,7.949-17.658,13.097-17.758,23.177
				c0.434,9.965,10.753,13.873,17.519,12.095c6.768-1.779,8.728-2.846,11.805-5.796c9.305-8.919,12.789-21.103,12.789-36.719
				C313.047,183.367,301.638,154.622,253.303,154.622z"/>
		</g>
		<g>
			<path d="M126.415,329.233H89.52c-0.846,0-1.532,0.686-1.532,1.533v8.689c0,0.846,0.686,1.532,1.532,1.532h11.2v38.437
				c0,0.847,0.686,1.533,1.532,1.533h11.33c0.847,0,1.532-0.686,1.532-1.533v-38.437h11.301c0.847,0,1.532-0.686,1.532-1.532v-8.689
				C127.947,329.919,127.261,329.233,126.415,329.233z"/>
			<path d="M166.923,329.233h-33.887c-0.846,0-1.532,0.686-1.532,1.533v48.658c0,0.847,0.686,1.533,1.532,1.533h33.82
				c0.847,0,1.533-0.686,1.533-1.533v-8.689c0-0.846-0.686-1.532-1.533-1.532h-20.958v-9.067h17.55c0.847,0,1.532-0.686,1.532-1.532
				v-8.689c0-0.846-0.686-1.532-1.532-1.532h-17.55v-7.395h21.025c0.847,0,1.532-0.686,1.532-1.532v-8.689
				C168.455,329.919,167.77,329.233,166.923,329.233z"/>
			<path d="M201.776,330.294c-0.205-0.632-0.793-1.061-1.458-1.061h-12.132c-0.665,0-1.254,0.429-1.458,1.062l-15.707,48.659
				c-0.15,0.466-0.069,0.977,0.219,1.373s0.749,0.631,1.239,0.631h11.363c0.682,0,1.282-0.451,1.472-1.106l2.42-8.353h13.041
				l2.451,8.357c0.191,0.653,0.79,1.102,1.47,1.102h11.363c0.007,0,0.013,0,0.021,0c0.846,0,1.532-0.686,1.532-1.533
				c0-0.251-0.061-0.489-0.168-0.699L201.776,330.294z M197.373,359.745h-6.244l3.111-10.736L197.373,359.745z"/>
			<path d="M232.745,342.734c1.177-1.648,2.748-2.45,4.803-2.45c2.533,0,4.298,0.587,5.247,1.745
				c1.041,1.271,1.639,3.342,1.778,6.156c0.041,0.815,0.713,1.456,1.53,1.456h10.995c0.659,0,1.245-0.422,1.453-1.048l0.067-0.2
				c0.064-0.192,0.09-0.396,0.075-0.598c-0.451-6.067-2.464-10.844-5.986-14.197c-3.533-3.363-8.634-5.068-15.159-5.068
				c-6.194,0-11.313,2.028-15.216,6.026c-3.893,3.988-5.867,9.189-5.867,15.458v10.159c0,6.303,2.055,11.518,6.107,15.496
				c4.043,3.973,9.34,5.987,15.745,5.987c6.372,0,11.344-1.661,14.777-4.935c3.436-3.279,5.299-8.028,5.536-14.117
				c0.007-0.185-0.02-0.369-0.078-0.544l-0.066-0.201c-0.208-0.626-0.794-1.048-1.454-1.048h-10.995c-0.817,0-1.49,0.641-1.53,1.457
				c-0.14,2.827-0.683,4.862-1.614,6.048c-0.825,1.052-2.365,1.585-4.576,1.585c-2.328,0-4.096-0.822-5.406-2.513
				c-1.383-1.787-2.085-4.215-2.085-7.216v-10.226C230.825,346.948,231.471,344.521,232.745,342.734z"/>
			<path d="M303.718,329.233h-11.263c-0.846,0-1.532,0.686-1.532,1.533v18.854h-14.948v-18.854c0-0.847-0.686-1.533-1.532-1.533
				h-11.33c-0.846,0-1.532,0.686-1.532,1.533v48.658c0,0.847,0.686,1.533,1.532,1.533h11.33c0.846,0,1.532-0.686,1.532-1.533
				v-18.051h14.948v18.051c0,0.847,0.686,1.533,1.532,1.533h11.263c0.846,0,1.532-0.686,1.532-1.533v-48.658
				C305.25,329.919,304.564,329.233,303.718,329.233z"/>
			<path d="M323.402,329.233H312.14c-0.846,0-1.532,0.686-1.532,1.533v48.658c0,0.847,0.686,1.533,1.532,1.533h11.262
				c0.846,0,1.532-0.686,1.532-1.533v-48.658C324.934,329.919,324.248,329.233,323.402,329.233z"/>
			<path d="M372.395,329.233h-11.262c-0.847,0-1.532,0.686-1.532,1.533v25.618l-15.153-26.382c-0.273-0.476-0.78-0.769-1.329-0.769
				h-11.329c-0.847,0-1.532,0.686-1.532,1.533v48.658c0,0.847,0.686,1.533,1.532,1.533h11.329c0.846,0,1.532-0.686,1.532-1.533
				v-25.618l15.152,26.381c0.273,0.476,0.78,0.77,1.329,0.77h11.262c0.847,0,1.532-0.686,1.532-1.533v-48.658
				C373.927,329.919,373.241,329.233,372.395,329.233z"/>
			<path d="M418.48,352.895h-18.982c-0.846,0-1.532,0.686-1.532,1.532v7.486c0,0.847,0.686,1.532,1.532,1.532h6.12v5.344
				c-0.459,0.259-1.026,0.484-1.692,0.673c-1.039,0.294-2.54,0.443-4.462,0.443c-2.371,0-4.148-0.815-5.435-2.491
				c-1.365-1.777-2.057-4.213-2.057-7.238v-10.226c0-2.936,0.703-5.337,2.088-7.136c1.31-1.701,2.99-2.528,5.136-2.528
				c2.193,0,3.8,0.5,4.777,1.484c1.04,1.05,1.734,2.708,2.063,4.928c0.111,0.751,0.756,1.308,1.516,1.308h10.594
				c0.66,0,1.245-0.422,1.454-1.048l0.067-0.201c0.066-0.197,0.091-0.406,0.073-0.614c-0.455-5.381-2.406-9.708-5.798-12.858
				c-3.398-3.154-8.482-4.754-15.112-4.754c-6.169,0-11.298,2.032-15.244,6.039c-3.94,3.999-5.938,9.196-5.938,15.446v10.159
				c0,6.303,2.048,11.516,6.088,15.495c4.031,3.974,9.323,5.989,15.729,5.989c4.953,0,9.154-0.803,12.488-2.387
				c3.327-1.58,5.917-3.457,7.701-5.579c0.233-0.276,0.36-0.625,0.36-0.986v-18.28C420.013,353.581,419.327,352.895,418.48,352.895z
				"/>
		</g>
		<path d="M484.75,270.659H254h0h0H23.25c-3.688,0-6.677,2.99-6.677,6.677s2.989,6.677,6.677,6.677h26.172v122.839
			c0,3.688,2.99,6.677,6.677,6.677s6.677-2.989,6.677-6.677V284.013H254h0h0h191.224v122.839c0,3.688,2.989,6.677,6.677,6.677
			s6.677-2.989,6.677-6.677V284.013h26.172c3.688,0,6.677-2.989,6.677-6.677S488.438,270.659,484.75,270.659z"/>
		<g>
			<path d="M140.833,254.145c-5.583,1.523-21.796,5.897-28.002,7.571c-1.533,0.414-3.34,0.438-4.808,0.067
				c-6.388-1.617-23.841-6.04-27.636-7.052c-0.514-0.137-1.363-0.396-2.203-0.657c-0.226-0.07-2.46-0.516-2.46,1.61
				c0,2.043-0.088,16.959-0.088,16.959h68.334c0,0-0.085-13.933-0.085-16.271C143.885,253.935,142.596,253.664,140.833,254.145z"/>
			<path d="M112.438,147.897c20.695-0.172,37.421-16.999,37.421-37.727c0-20.745-16.726-37.564-37.421-37.737
				c-20.695,0.172-37.422,16.992-37.422,37.737C75.016,130.898,91.743,147.725,112.438,147.897z"/>
			<path d="M109.803,154.622c-48.334,0-59.743,28.745-59.743,51.622c0,15.616,3.483,27.799,12.788,36.719
				c2.983,2.859,6.948,5.185,11.821,5.86c8.47,1.174,17.981-1.653,18.431-11.992c-0.101-10.114-11.948-9.958-17.85-21.921
				c-0.317-0.645-0.835-1.906-0.835-3.656c0-2.322,0-11.782,0-11.782c0-3.299,2.34-6.94,5.973-5.973
				c2.764,0.736,22.611,5.773,28.822,7.348c1.167,0.296,2.492,0.292,3.58-0.012c5.733-1.599,23.912-6.666,26.43-7.336
				c3.632-0.967,5.973,2.674,5.973,5.973c0,0,0.098,12.441,0,14.015c0,7.949-17.658,13.097-17.758,23.177
				c0.434,9.965,10.753,13.873,17.519,12.095c6.768-1.779,8.728-2.846,11.805-5.796c9.305-8.919,12.789-21.103,12.789-36.719
				C169.547,183.367,158.138,154.622,109.803,154.622z"/>
		</g>
		<g>
			<path d="M428.333,254.145c-5.583,1.523-21.796,5.897-28.002,7.571c-1.533,0.414-3.34,0.438-4.808,0.067
				c-6.388-1.617-23.841-6.04-27.636-7.052c-0.514-0.137-1.363-0.396-2.203-0.657c-0.226-0.07-2.46-0.516-2.46,1.61
				c0,2.043-0.088,16.959-0.088,16.959h68.334c0,0-0.085-13.933-0.085-16.271C431.385,253.935,430.096,253.664,428.333,254.145z"/>
			<path d="M399.938,147.897c20.695-0.172,37.421-16.999,37.421-37.727c0-20.745-16.726-37.564-37.421-37.737
				c-20.695,0.172-37.422,16.992-37.422,37.737C362.516,130.898,379.243,147.725,399.938,147.897z"/>
			<path d="M397.303,154.622c-48.334,0-59.743,28.745-59.743,51.622c0,15.616,3.483,27.799,12.788,36.719
				c2.983,2.859,6.948,5.185,11.821,5.86c8.47,1.174,17.981-1.653,18.431-11.992c-0.101-10.114-11.948-9.958-17.85-21.921
				c-0.317-0.645-0.835-1.906-0.835-3.656c0-2.322,0-11.782,0-11.782c0-3.299,2.34-6.94,5.973-5.973
				c2.764,0.736,22.611,5.773,28.822,7.348c1.167,0.296,2.492,0.292,3.58-0.012c5.733-1.599,23.912-6.666,26.43-7.336
				c3.632-0.967,5.973,2.674,5.973,5.973c0,0,0.098,12.441,0,14.015c0,7.949-17.658,13.097-17.758,23.177
				c0.434,9.965,10.753,13.873,17.519,12.095c6.768-1.779,8.728-2.846,11.805-5.796c9.305-8.919,12.789-21.103,12.789-36.719
				C457.047,183.367,445.638,154.622,397.303,154.622z"/>
		</g>
	</g>
</g>
</svg>
