<?xml version="1.0" encoding="iso-8859-1"?>
<!-- Generator: Adobe Illustrator 16.0.0, SVG Export Plug-In . SVG Version: 6.00 Build 0)  -->
<!DOCTYPE svg PUBLIC "-//W3C//DTD SVG 1.1//EN" "http://www.w3.org/Graphics/SVG/1.1/DTD/svg11.dtd">
<svg version="1.1" xmlns="http://www.w3.org/2000/svg" xmlns:xlink="http://www.w3.org/1999/xlink" x="0px" y="0px" width="512px"
	 height="512px" viewBox="0 0 512 512" style="enable-background:new 0 0 512 512;" xml:space="preserve">
<g id="Artwork">
</g>
<g id="icons">
	<path d="M412.909,212.084v0.002c0.01,0,0.018-0.001,0.027-0.001c0.009,0,0.018,0.001,0.026,0.001v-0.002
		c9.538-0.17,17.218-7.949,17.218-17.527c0-9.577-7.68-17.355-17.218-17.525v-0.002c-0.009,0-0.018,0.001-0.026,0.001
		c-0.01,0-0.018-0.001-0.027-0.001v0.002c-9.538,0.17-17.217,7.948-17.217,17.525C395.692,204.135,403.371,211.914,412.909,212.084z
		"/>
	<path d="M307.654,212.137v0.003c0.004,0,0.009,0,0.013,0s0.009,0,0.013,0v-0.003c9.537-0.17,17.217-7.949,17.217-17.527
		c0-9.577-7.68-17.355-17.217-17.525v-0.002c-0.004,0-0.009,0-0.013,0c-0.004,0-0.009,0-0.013,0v0.002
		c-9.537,0.17-17.217,7.948-17.217,17.525C290.437,204.188,298.117,211.967,307.654,212.137z"/>
	<path d="M347.358,175.811c-2.692,0-5.042,1.44-6.342,3.586c-0.009,0.012-0.02,0.021-0.029,0.033c0,0-0.036,0.064-0.089,0.162
		c-0.035,0.061-0.069,0.122-0.102,0.184c-2.032,3.691-20.596,37.4-21.237,38.52c-0.679,1.184-0.848,1.638-2.273,0.421
		c-1.453-1.065-4.314-2.425-9.504-2.514c-0.04,0-0.078,0.002-0.116,0.004c-0.038-0.001-0.076-0.003-0.116-0.004
		c-5.189,0.088-8.051,1.449-9.504,2.514c-1.426,1.217-1.595,0.762-2.273-0.421c-0.641-1.119-19.205-34.829-21.237-38.52
		c-0.033-0.062-0.067-0.123-0.102-0.184c-0.053-0.097-0.089-0.162-0.089-0.162c-0.009-0.012-0.02-0.021-0.029-0.033
		c-1.299-2.146-3.649-3.586-6.342-3.586c-4.096,0-7.417,3.321-7.417,7.417c0,1.353,0.368,2.618,1.001,3.709
		c0,0-0.004,0.005-0.004,0.005l27.274,46.915c0,0,1.607,2.438,1.607,6.696c0,4.258,0.005,105.676,0.005,105.676
		c0,4.101,3.323,7.43,7.423,7.43c4.101,0,7.424-3.323,7.424-7.43c0,0,0-49.945,0-52.41c0-1.275,1.208-2.056,2.378-2.09
		c1.17,0.034,2.378,0.815,2.378,2.09c0,2.465,0,52.41,0,52.41c0,4.107,3.323,7.43,7.424,7.43c4.1,0,7.423-3.329,7.423-7.43
		c0,0,0.005-101.418,0.005-105.676c0-4.257,1.607-6.696,1.607-6.696l27.274-46.915l-0.004-0.005
		c0.633-1.092,1.001-2.356,1.001-3.709C354.775,179.131,351.455,175.811,347.358,175.811z"/>
	<path d="M180.935,204.854v0.002c0.009,0,0.018-0.001,0.027-0.001c0.009,0,0.019,0.001,0.027,0.001v-0.002
		c0.081-0.002,0.16-0.008,0.24-0.011c0.08,0.002,0.159,0.009,0.24,0.011v0.002c0.008,0,0.018-0.001,0.027-0.001
		c0.009,0,0.018,0.001,0.027,0.001v-0.002c9.537-0.17,17.217-7.949,17.217-17.527c0-9.578-7.68-17.355-17.217-17.525v-0.001
		c-0.009,0-0.018,0-0.027,0c-0.009,0-0.019,0-0.027,0v0.001c-0.081,0.001-0.16,0.008-0.24,0.01c-0.08-0.002-0.159-0.009-0.24-0.01
		v-0.001c-0.009,0-0.018,0-0.027,0c-0.009,0-0.018,0-0.027,0v0.001c-9.538,0.17-17.217,7.948-17.217,17.525
		C163.717,196.904,171.397,204.683,180.935,204.854z"/>
	<path d="M246.667,186.333c-0.933,0-3.538,0.292-7.665,2.708s-45.077,23.382-47.874,22.39c-2.746-0.975-3.256-1.695-9.9-1.695
		c-6.645,0-7.111,0.705-9.899,1.695c-2.798,0.993-47.875-22.39-47.875-22.39c-6.151-3.648-10.384-3.257-12.551,0.223
		c-2.608,4.188-1.677,9.079,1.344,10.983c4.554,2.872,48.05,24.833,49.863,26.324c1.813,1.49,1.607,2.438,1.607,6.696
		c0,4.258,0.006,105.676,0.006,105.676c0,4.102,3.323,7.43,7.423,7.43s7.423-3.323,7.423-7.43c0,0,0-49.945,0-52.41
		c0-1.28,1.219-2.062,2.393-2.091c0.089,0.002,0.178,0.01,0.267,0.021c0.089-0.01,0.178-0.019,0.267-0.021
		c1.173,0.029,2.393,0.812,2.393,2.091c0,2.465,0,52.41,0,52.41c0,4.107,3.322,7.43,7.423,7.43c4.1,0,7.423-3.328,7.423-7.43
		c0,0,0.006-101.418,0.006-105.676c0-4.258-0.207-5.206,1.607-6.696c1.796-1.477,44.481-23.034,49.717-26.233
		c2.386-1.233,4.021-3.718,4.021-6.589C254.084,189.654,250.763,186.333,246.667,186.333z"/>
	<path d="M478.121,193.55c-1.063,0-2.097,0.173-3.006,0.635s-49.935,25.405-52.547,24.478c-2.787-0.99-4.313-2.425-9.503-2.513
		c-0.044,0.001-0.087,0.003-0.129,0.004c-0.045-0.001-0.087-0.003-0.131-0.004c-5.188,0.088-8.05,1.448-9.504,2.513
		c-1.426,1.217-1.595,0.763-2.272-0.421c-0.637-1.111-21.879-38.842-21.879-38.842l-0.003,0c-1.299-2.147-3.65-3.587-6.343-3.587
		c-4.096,0-7.417,3.321-7.417,7.417c0,1.24,0.308,2.406,0.846,3.433l-0.001,0.005l0.017,0.028c0.095,0.179,0.199,0.351,0.308,0.521
		l27.528,46.589c0,0,1.608,2.438,1.608,6.696c0,4.257,0.005,105.676,0.005,105.676c0,4.101,3.323,7.429,7.422,7.429
		c4.102,0,7.424-3.322,7.424-7.429c0,0,0-49.945,0-52.41c0-1.28,1.221-2.063,2.394-2.092c1.174,0.029,2.392,0.812,2.392,2.092
		c0,2.465,0,52.41,0,52.41c0,4.107,3.323,7.429,7.424,7.429c4.1,0,7.423-3.328,7.423-7.429c0,0,0.006-101.418,0.006-105.676
		c0-4.258-0.206-5.206,1.606-6.696c1.754-1.442,43.037-22.343,49.86-26.31c0.015-0.008,0.029-0.017,0.044-0.025
		c0.212-0.124,0.39-0.231,0.53-0.319c0.009-0.006,0.017-0.013,0.026-0.019c0.042-0.028,0.081-0.06,0.123-0.089
		c0.15-0.103,0.297-0.208,0.434-0.324c1.668-1.36,2.735-3.43,2.735-5.75C485.538,196.871,482.217,193.55,478.121,193.55z"/>
	<path d="M74,194.144c9.764-0.035,17.67-7.96,17.67-17.729c0-9.777-7.906-17.699-17.67-17.733
		c-9.764,0.035-17.67,7.957-17.67,17.733C56.33,186.184,64.236,194.109,74,194.144z"/>
	<path d="M81.527,198.294c-1.544-0.176-4.049-0.299-7.527-0.328c-3.478,0.029-5.982,0.152-7.527,0.328
		c-26.717,3.134-35.597,34.549-33.147,58.129c0.002,0,0.004,0,0.006,0c0.352,4.289,3.938,7.661,8.317,7.661
		c4.612,0,8.351-3.739,8.351-8.351c0-0.924-0.156-1.81-0.433-2.64c-0.786-5.572-1.927-18.645,3.214-26.03
		c0.403-0.58,0.867-0.713,0.867,0.093c-0.006,16.354-1.144,87.823-1.144,113.236c0,13.608,18.362,11.942,18.362,0
		c0-20.265,0.593-56.558,0.593-60.767S77,276.333,77,279.5s0.134,40.626,0.134,60.892c0,12.108,18.362,12.775,18.362,0
		c0-25.413-1.138-96.882-1.144-113.236c0-0.806,0.463-0.673,0.867-0.093c5.141,7.386,4,20.458,3.214,26.03
		c-0.277,0.831-0.433,1.716-0.433,2.64c0,4.612,3.739,8.351,8.351,8.351c4.379,0,7.965-3.372,8.317-7.661c0.002,0,0.004,0,0.006,0
		C117.124,232.843,108.244,201.428,81.527,198.294z"/>
</g>
</svg>
