<?xml version="1.0" encoding="iso-8859-1"?>
<!-- Generator: Adobe Illustrator 16.0.0, SVG Export Plug-In . SVG Version: 6.00 Build 0)  -->
<!DOCTYPE svg PUBLIC "-//W3C//DTD SVG 1.1//EN" "http://www.w3.org/Graphics/SVG/1.1/DTD/svg11.dtd">
<svg version="1.1" xmlns="http://www.w3.org/2000/svg" xmlns:xlink="http://www.w3.org/1999/xlink" x="0px" y="0px" width="512px"
	 height="512px" viewBox="0 0 512 512" style="enable-background:new 0 0 512 512;" xml:space="preserve">
<g id="Artwork">
</g>
<g id="icons">
	<g>
		<path d="M382.655,143.598c-19.001,16.5-22.547,45.396-20.025,69.667c1.357,13.031,21.899,13.163,20.525,0
			c-0.938-9.06-0.719-26.08,2.656-37.89c0.446-1.562,1.512-1.837,1.512,0.188c0,31.506,0.008,178.793,0.008,178.793
			c0,1.644,0.326,3.21,0.903,4.649l-74.215-0.001c0.345-0.844,0.459-1.821,0.459-1.821s3.996-38.163-11.511-56.939
			c-8.757-10.603-21.356-15.979-37.451-15.979c-16.307,0-29.308,5.382-38.643,15.997c-18.659,21.217-14.476,55.6-14.288,57.053
			c0.075,0.585,0.209,1.146,0.378,1.691h-26.642c-0.633-54.305-1.654-126.505-1.654-156.325c0-2.082,1.157-2.691,2.396-0.325
			c11.51,21.989,8.983,54.936,6.7,67.08c-1.932,10.033,4.636,19.732,14.669,21.663c1.182,0.228,2.357,0.337,3.518,0.337
			c8.691,0,16.442-6.155,18.146-15.007c0.521-2.706,12.387-66.716-19.691-105.558c-15.585-18.871-37.986-28.439-66.583-28.439
			c-28.958,0-52.06,9.572-68.66,28.449c-33.093,37.629-25.686,98.508-25.354,101.081c1.304,10.116,10.544,17.249,20.665,15.967
			c10.119-1.278,17.292-10.529,16.037-20.651c-0.049-0.394-3.937-33.467,7.971-58.812c0.538-1.146,1.946-1.616,1.946,0.216
			s-0.997,90.619-1.695,150.323H25.57c-4.87,0-8.818,3.948-8.818,8.817c0,4.87,3.948,8.818,8.818,8.818h68.961
			c-0.335,30.271-0.579,57.491-0.579,74.823c0,29.485,39.785,25.874,39.785,0c0-20.835,0.289-49.487,0.593-74.823h12.857
			c0.067,25.466,0.132,54.238,0.132,74.823c0,26.235,39.783,27.68,39.783,0c0-17.333-0.244-44.553-0.58-74.823h52.25
			c-0.388,31.183-0.823,66.273-0.823,83.748c0,16.823,22.7,14.763,22.7,0c0-25.051,0.733-69.917,0.733-75.119
			c0-5.203,6.85-4.069,6.85-0.154c0,3.914,0.166,50.222,0.166,75.273c0,14.968,22.698,15.793,22.698,0
			c0-17.475-0.436-52.565-0.822-83.748h196.156c4.87,0,8.818-3.948,8.818-8.818c0-4.869-3.948-8.817-8.818-8.817h-42.474
			c0.577-1.438,0.903-3.005,0.903-4.649c0,0,0.01-173.946,0.01-179.959c0-6.013,0.887-5.892,2.394-8.472
			c7.999-13.697,33.479-57.265,36.455-61.632c3.537-5.188,5.297-13.931,0.422-18.807c-4.874-4.875-16.469-3.298-19.732,4.291
			c0,0-24.178,42.387-26.358,45.829c-2.182,3.442-1.487,4.081-5.487,2.456C429.46,136.802,401.656,127.098,382.655,143.598z
			 M134.549,359.005c0.256-19.979,0.473-35.459,0.473-39.204c0-9.118,12.006-7.131,12.006-0.271c0,2.871,0.052,18.756,0.111,39.475
			H134.549z M238.99,359.005l-6.252,0.051c0,0-0.129-2.787-0.313-4.275c-0.029-0.234-1.522-25.138,5.458-35.473
			c0.637-1.054,1.48-1.18,1.48,1.097S239.201,341.624,238.99,359.005z M290.056,359.005c-0.21-17.381-0.37-31.822-0.372-38.6
			c0-1.724,0.972-1.974,1.815-0.87c5.521,12.561,4.157,29.902,2.914,36.506c-0.193,1.003-0.508,2.964-0.508,2.964H290.056z
			 M411.391,359.005c0.575-1.438,0.901-3.004,0.901-4.649c0,0,0-83.973,0-88.117c0-4.145,7.607-5.251,7.607,0
			c0,5.249,0,88.117,0,88.117c0,1.645,0.326,3.211,0.901,4.649H411.391z"/>
		<circle cx="414.804" cy="99.442" r="29.482"/>
		<path d="M140.527,134.59c21.156-0.075,38.287-17.248,38.287-38.413c0-21.184-17.131-38.348-38.287-38.423
			c-21.156,0.075-38.286,17.239-38.286,38.423C102.241,117.342,119.371,134.515,140.527,134.59z"/>
		<path d="M265.523,279.596c12.07-0.042,21.846-9.84,21.846-21.916c0-12.087-9.775-21.88-21.846-21.922
			c-12.071,0.042-21.844,9.835-21.844,21.922C243.68,269.756,253.452,279.554,265.523,279.596z"/>
	</g>
</g>
</svg>
