<?xml version="1.0" encoding="iso-8859-1"?>
<!-- Generator: Adobe Illustrator 19.0.0, SVG Export Plug-In . SVG Version: 6.00 Build 0)  -->
<svg version="1.1" id="Capa_1" xmlns="http://www.w3.org/2000/svg" xmlns:xlink="http://www.w3.org/1999/xlink" x="0px" y="0px"
	 viewBox="0 0 407.268 407.268" style="enable-background:new 0 0 407.268 407.268;" xml:space="preserve">
<path id="XMLID_656_" d="M346.622,138.881c-11.045-5.061-20.865-12.688-28.559-22.156V25.351C318.063,11.373,306.689,0,292.707,0
	c-13.979,0-25.352,11.373-25.352,25.351v88.045c-14.883,20.448-38.479,32.576-63.657,32.579c-0.02,0-0.095,0-0.114,0
	c-25.216-0.034-48.816-12.212-63.674-32.729V25.351C139.911,11.373,128.536,0,114.554,0c-13.979,0-25.352,11.373-25.352,25.351
	v89.578c-7.599,9.92-17.471,17.963-28.704,23.358c-3.609,1.733-5.639,5.643-4.981,9.592l18.447,110.689v139.7c0,4.971,4.029,9,9,9
	h241.446c4.971,0,9-4.029,9-9V258.569l18.34-110.026C352.419,144.534,350.317,140.574,346.622,138.881z M315.533,256.345
	c-0.082,0.489-0.123,0.984-0.123,1.479v131.443H91.964V257.823c0-0.496-0.041-0.991-0.123-1.479l-17.5-105.006
	c12.27-7.001,22.964-16.663,31.194-28.232c1.083-1.523,1.666-3.347,1.666-5.217V25.351c0-4.053,3.298-7.351,7.352-7.351
	c4.056,0,7.356,3.298,7.356,7.351v90.727c0,1.793,0.536,3.546,1.539,5.033c16.213,24.036,41.961,39.398,70.244,42.346
	c-2.311,13.973-8.409,26.934-17.606,37.177c-3.321,3.699-3.015,9.389,0.683,12.709s9.389,3.015,12.709-0.683
	c5.711-6.36,10.463-13.544,14.152-21.29c3.688,7.747,8.44,14.93,14.151,21.29c3.32,3.698,9.01,4.004,12.709,0.683
	c3.698-3.321,4.004-9.011,0.684-12.709c-9.194-10.239-15.291-23.195-17.604-37.167c28.245-2.915,53.995-18.219,70.234-42.178
	c1.01-1.49,1.55-3.249,1.55-5.049V25.351c0-4.053,3.298-7.351,7.352-7.351c4.056,0,7.356,3.298,7.356,7.351v94.474
	c0,1.953,0.635,3.853,1.81,5.413c8.326,11.059,18.961,20.254,31.033,26.88L315.533,256.345z"/>
<g>
</g>
<g>
</g>
<g>
</g>
<g>
</g>
<g>
</g>
<g>
</g>
<g>
</g>
<g>
</g>
<g>
</g>
<g>
</g>
<g>
</g>
<g>
</g>
<g>
</g>
<g>
</g>
<g>
</g>
</svg>
