<?xml version="1.0" encoding="iso-8859-1"?>
<!-- Generator: Adobe Illustrator 19.0.0, SVG Export Plug-In . SVG Version: 6.00 Build 0)  -->
<svg version="1.1" id="Capa_1" xmlns="http://www.w3.org/2000/svg" xmlns:xlink="http://www.w3.org/1999/xlink" x="0px" y="0px"
	 viewBox="0 0 426.277 426.277" style="enable-background:new 0 0 426.277 426.277;" xml:space="preserve">
<path id="XMLID_585_" d="M179.572,191.546l20.62-55.485h-4.823c-4.971,0-9-4.029-9-9c0-4.971,4.029-9,9-9h17.52
	c0.079-0.001,0.124,0.025,0.233-0.003c0.005,0,0.011,0,0.016,0h0.001h0.001c0.007,0,0.016,0,0.02,0c0.076,0,0.152,0.001,0.229,0.003
	h17.52c4.971,0,9,4.029,9,9c0,4.971-4.029,9-9,9h-4.823l20.62,55.485c1.731,4.659-0.643,9.84-5.302,11.572
	c-1.033,0.384-2.093,0.566-3.134,0.566c-3.654,0-7.09-2.241-8.438-5.867l-16.693-44.92l-16.693,44.92
	c-1.731,4.66-6.916,7.031-11.571,5.301C180.215,201.386,177.841,196.206,179.572,191.546z M426.258,327.703l-9.504-143.715
	c-0.106-1.608-0.643-3.157-1.552-4.487l-22.758-33.274V97.981c0-4.971-4.029-9-9-9H42.837c-4.971,0-9,4.029-9,9v48.243L11.073,179.5
	c-0.909,1.33-1.445,2.88-1.552,4.488L0.02,327.703c-0.164,2.485,0.708,4.926,2.41,6.744c1.701,1.818,4.08,2.85,6.57,2.85h148.384
	c2.756,0,5.36-1.263,7.067-3.427l75.612-95.885c3.077-3.903,2.408-9.562-1.494-12.64c-3.903-3.077-9.562-2.409-12.641,1.494
	l-72.909,92.458H18.614l8.706-131.665l21.885-31.992H164.48c4.971,0,9-4.029,9-9s-4.029-9-9-9H51.837v-30.659h322.607v30.659
	H261.798c-4.971,0-9,4.029-9,9s4.029,9,9,9h115.277l21.88,31.991l2.789,42.171c-15.501-3.317-25.961,4.663-33.95,10.763
	c-9.065,6.921-13.615,10.396-24.458,4.295c-4.336-2.439-9.82-0.901-12.257,3.431c-2.438,4.332-0.901,9.82,3.431,12.257
	c21.169,11.911,34.484,1.747,44.207-5.676c8.482-6.477,13.691-10.46,24.303-5.788l0.68,10.281
	c-10.121-1.288-18.14,4.816-24.069,9.333c-8.939,6.809-16.662,12.691-32.667,7.555c-4.732-1.519-9.8,1.087-11.319,5.819
	c-1.519,4.733,1.087,9.801,5.819,11.319c24.94,8.005,39.466-3.056,49.074-10.375c7.872-5.996,10.023-7.359,14.437-4.385
	l2.688,40.663H273.276l-34.148-43.597c-3.065-3.914-8.722-4.6-12.635-1.536c-3.913,3.065-4.601,8.722-1.535,12.635l36.851,47.047
	c1.706,2.178,4.318,3.45,7.085,3.45h148.384c2.49,0,4.869-1.032,6.57-2.85C425.55,332.629,426.422,330.187,426.258,327.703z"/>
<g>
</g>
<g>
</g>
<g>
</g>
<g>
</g>
<g>
</g>
<g>
</g>
<g>
</g>
<g>
</g>
<g>
</g>
<g>
</g>
<g>
</g>
<g>
</g>
<g>
</g>
<g>
</g>
<g>
</g>
</svg>
