<?xml version="1.0" encoding="iso-8859-1"?>
<!-- Generator: Adobe Illustrator 19.0.0, SVG Export Plug-In . SVG Version: 6.00 Build 0)  -->
<svg version="1.1" id="Capa_1" xmlns="http://www.w3.org/2000/svg" xmlns:xlink="http://www.w3.org/1999/xlink" x="0px" y="0px"
	 viewBox="0 0 427.424 427.424" style="enable-background:new 0 0 427.424 427.424;" xml:space="preserve">
<path id="XMLID_422_" d="M173.939,209.733V9c0-4.971-4.029-9-9-9H45.213c-4.971,0-9,4.029-9,9v168.975
	c0,37.513,0.24,59.557,5.158,76.409c4.947,16.951,14.193,28.446,30.979,49.314c1.072,1.333,76.508,97.379,76.508,97.379
	c11.3,14.431,27.605,23.604,45.911,25.83c2.849,0.347,5.689,0.518,8.512,0.518c15.315,0,30.067-5.049,42.25-14.591
	c14.43-11.301,23.603-27.606,25.829-45.911s-2.771-36.333-14.073-50.762L173.939,209.733z M54.213,18h11.935v16.097
	c0,4.971,4.029,9,9,9s9-4.029,9-9V18h11.929v16.097c0,4.971,4.029,9,9,9s9-4.029,9-9V18h11.931v16.097c0,4.971,4.029,9,9,9
	s9-4.029,9-9V18h11.931v35.987H54.213V18z M83.115,288.359c-25.594-31.897-28.523-37.515-28.859-88.267
	c23.255,7.487,39.759,29.39,39.759,54.604C94.016,266.988,90.198,278.643,83.115,288.359z M163.03,389.979
	c0,0-66.579-84.978-68.344-87.193c11.229-13.481,17.33-30.277,17.33-48.088c0-35.096-24.349-65.312-57.803-73.293
	c0-1.124,0-109.417,0-109.417h101.726v140.852c0,2.012,0.674,3.965,1.915,5.549l85.264,108.871
	c4.112,5.25,7.026,11.064,8.782,17.108c-34.804,7.89-63.737,27.568-80.082,54.383C168.574,396.226,165.622,393.29,163.03,389.979z
	 M234.434,398.663c-10.644,8.336-23.957,12.024-37.492,10.375c-3.121-0.379-6.162-1.031-9.097-1.94
	c13.559-21.344,37.623-37.658,65.924-44.662C252.727,376.201,246.133,389.5,234.434,398.663z M376.591,316.16l-83.35-106.426V9
	c0-4.971-4.029-9-9-9h-83.845c-4.971,0-9,4.029-9,9s4.029,9,9,9h10.608v16.097c0,4.971,4.029,9,9,9s9-4.029,9-9V18h13.485v16.097
	c0,4.971,4.029,9,9,9s9-4.029,9-9V18h14.752v35.987h-74.548c-4.971,0-9,4.029-9,9s4.029,9,9,9h74.548v140.852
	c0,2.012,0.674,3.965,1.915,5.549l85.264,108.871c4.1,5.235,7.009,11.03,8.767,17.055c-34.844,7.842-63.833,27.493-80.23,54.295
	c-1.031-0.806-2.034-1.655-3.009-2.551c-3.661-3.362-9.354-3.12-12.717,0.54c-3.362,3.661-3.078,9.309,0.54,12.717
	c3.279,3.089,9.207,6.931,12.753,9.093c1.641,1.001,4.901,2.654,5.922,3.104c7.799,3.44,16.248,5.445,24.914,5.833
	c1.034,0.046,2.066,0.07,3.097,0.07c15.345,0,30.277-5.114,42.352-14.561c0.009-0.007,0.019-0.015,0.028-0.022
	C394.73,389.42,400.003,346.053,376.591,316.16z M353.739,398.662c0,0-0.001,0.001-0.002,0.001
	c-13.423,10.513-31.126,13.202-46.765,8.322c13.613-21.353,37.746-37.654,66.105-44.611
	C372.05,376.161,365.454,389.485,353.739,398.662z"/>
<g>
</g>
<g>
</g>
<g>
</g>
<g>
</g>
<g>
</g>
<g>
</g>
<g>
</g>
<g>
</g>
<g>
</g>
<g>
</g>
<g>
</g>
<g>
</g>
<g>
</g>
<g>
</g>
<g>
</g>
</svg>
