<?xml version="1.0" encoding="iso-8859-1"?>
<!-- Generator: Adobe Illustrator 19.0.0, SVG Export Plug-In . SVG Version: 6.00 Build 0)  -->
<svg version="1.1" id="Capa_1" xmlns="http://www.w3.org/2000/svg" xmlns:xlink="http://www.w3.org/1999/xlink" x="0px" y="0px"
	 viewBox="0 0 407.268 407.268" style="enable-background:new 0 0 407.268 407.268;" xml:space="preserve">
<path id="XMLID_370_" d="M389.205,101.665l-19.006-70.672C364.903,11.297,352.866,0,337.176,0l-86.46,0.001
	c-2.923,0-5.664,1.419-7.351,3.807l-5.171,7.318c-9.268,2.579-21.654,4.039-34.56,4.039c-12.906,0-25.291-1.459-34.56-4.038
	l-5.171-7.319c-1.687-2.388-4.428-3.807-7.351-3.807L70.092,0C54.405,0,42.369,11.296,37.07,30.992l-19.008,70.672
	c-0.205,0.763-0.309,1.549-0.309,2.338v196.949c0,4.312,3.032,7.916,7.081,8.795l7.591,24.144c1.18,3.75,4.655,6.301,8.586,6.301
	h40.292c3.932,0,7.407-2.552,8.586-6.302l7.586-24.143c4.05-0.878,7.083-4.482,7.083-8.795V107.1l4.541-23.219
	c0.954-4.878-2.228-9.606-7.105-10.561c-4.872-0.954-9.606,2.227-10.561,7.105L86.726,104.5c-0.111,0.569-0.167,1.147-0.167,1.728
	v185.724H35.754v-186.76l18.699-69.523C56.621,27.608,61.095,18,70.092,18l46.26,0.001l79.934,113.105
	c1.687,2.387,4.427,3.806,7.35,3.806s5.663-1.419,7.35-3.806l79.934-113.105L337.176,18c9.001,0,13.474,9.607,15.641,17.667
	l18.697,69.524v186.76h-50.803V106.228c0-0.579-0.056-1.158-0.167-1.727l-4.706-24.074c-0.954-4.878-5.678-8.064-10.56-7.106
	c-4.878,0.954-8.06,5.682-7.106,10.56l4.539,23.219v193.853c0,4.313,3.032,7.916,7.081,8.795l7.589,24.144
	c1.179,3.75,4.655,6.301,8.586,6.301h40.293c3.931,0,7.407-2.552,8.586-6.302l7.588-24.143c4.048-0.88,7.08-4.483,7.08-8.795
	V104.002C389.514,103.213,389.41,102.427,389.205,101.665z M78.544,309.951l-3.846,12.239H47.616l-3.849-12.239H78.544z
	 M203.635,33.165c6.831,0,13.477-0.359,19.73-1.051l-19.73,27.918l-19.73-27.918C190.158,32.806,196.804,33.165,203.635,33.165z
	 M203.635,110.318l-65.241-92.317h13.499l4.159,5.886c0.071,0.106,0.146,0.211,0.222,0.314l40.012,56.619
	c1.687,2.387,4.427,3.806,7.35,3.806s5.663-1.419,7.35-3.806l40.071-56.704c0.034-0.047,0.067-0.094,0.101-0.143l4.221-5.973h13.499
	L203.635,110.318z M359.654,322.19h-27.082l-3.848-12.239h34.776L359.654,322.19z M344.164,349.502
	c-4.437-2.238-9.85-0.461-12.091,3.978l-2.247,4.45H77.445l-2.247-4.45c-2.241-4.439-7.656-6.217-12.091-3.978
	c-4.438,2.241-6.218,7.654-3.978,12.091l20.567,40.731c1.531,3.031,4.638,4.943,8.034,4.943h231.807
	c3.396,0,6.503-1.911,8.034-4.943l20.568-40.731C350.382,357.156,348.602,351.743,344.164,349.502z M314.001,389.268H93.27
	l-6.735-13.338h234.202L314.001,389.268z"/>
<g>
</g>
<g>
</g>
<g>
</g>
<g>
</g>
<g>
</g>
<g>
</g>
<g>
</g>
<g>
</g>
<g>
</g>
<g>
</g>
<g>
</g>
<g>
</g>
<g>
</g>
<g>
</g>
<g>
</g>
</svg>
