<?xml version="1.0" encoding="iso-8859-1"?>
<!-- Generator: Adobe Illustrator 19.0.0, SVG Export Plug-In . SVG Version: 6.00 Build 0)  -->
<svg version="1.1" id="Capa_1" xmlns="http://www.w3.org/2000/svg" xmlns:xlink="http://www.w3.org/1999/xlink" x="0px" y="0px"
	 viewBox="0 0 404.772 404.772" style="enable-background:new 0 0 404.772 404.772;" xml:space="preserve">
<path id="XMLID_267_" d="M389.388,368.591l-41.101-259.207c-2.97-18.733-9.761-44.897-15.375-58.33V9c0-4.971-4.029-9-9-9H78.831
	c-4.971,0-9,4.029-9,9v46.299c-5.947,17.654-10.426,35.843-13.318,54.085L15.414,368.591C14.151,379.486,21.67,379,24.304,379
	h68.134c4.048,0,7.598-2.703,8.675-6.604l4.547-16.472l4.546,16.471c1.048,3.797,4.443,6.471,8.379,6.601l105.431,3.473
	l78.824,22.169c0.797,0.224,4.423,0.171,5.374-0.157l75.222-25.973C387.562,377.082,390.072,372.902,389.388,368.591z M87.831,18
	h227.081v29.152h-51.963c-0.077-0.002-0.154-0.002-0.23,0h-39.243c-0.138-0.005-0.275-0.005-0.414,0h-41.326
	c-0.138-0.004-0.275-0.004-0.413,0h-41.299c-0.077-0.002-0.155-0.002-0.232,0H87.831V18z M305.002,386.546l-77.163-21.701
	c-0.697-0.196-1.416-0.308-2.14-0.331l-99.903-3.291l-11.46-41.516c-1.077-3.902-4.627-6.605-8.675-6.605
	c-4.048,0-7.598,2.703-8.675,6.604L85.585,361H34.843l39.449-248.798c2.511-15.84,6.289-31.641,11.246-47.05h37.977
	C105.525,96.389,95.75,133.654,95.75,171.827v105.879c0,4.971,4.029,9,9,9s9-4.029,9-9V171.827
	c0-38.808,10.948-76.492,30.909-106.675h24.114c-7.07,21.927-10.647,45.065-10.647,68.967v53.391c0,4.971,4.029,9,9,9s9-4.029,9-9
	v-53.391c0-24.038,3.917-47.209,11.65-68.967h29.249c7.733,21.758,11.65,44.927,11.65,68.967v53.391c0,4.971,4.029,9,9,9
	s9-4.029,9-9v-53.391c0-23.903-3.576-47.041-10.646-68.967h22.056c19.959,30.185,30.907,67.869,30.907,106.675v105.879
	c0,4.971,4.029,9,9,9s9-4.029,9-9V171.827c0-38.174-9.772-75.436-27.763-106.675h40.035c4.957,15.409,8.735,31.21,11.246,47.05
	l39.919,251.754L305.002,386.546z"/>
<g>
</g>
<g>
</g>
<g>
</g>
<g>
</g>
<g>
</g>
<g>
</g>
<g>
</g>
<g>
</g>
<g>
</g>
<g>
</g>
<g>
</g>
<g>
</g>
<g>
</g>
<g>
</g>
<g>
</g>
</svg>
