<?xml version="1.0" encoding="iso-8859-1"?>
<!-- Generator: Adobe Illustrator 19.0.0, SVG Export Plug-In . SVG Version: 6.00 Build 0)  -->
<svg version="1.1" id="Capa_1" xmlns="http://www.w3.org/2000/svg" xmlns:xlink="http://www.w3.org/1999/xlink" x="0px" y="0px"
	 viewBox="0 0 382.262 382.262" style="enable-background:new 0 0 382.262 382.262;" xml:space="preserve">
<path id="XMLID_233_" d="M376.94,318.389L348.661,55.786v-34.01c0-4.971-4.029-9-9-9H43.185c-4.971,0-9,4.029-9,9v34.009
	L5.933,318.141C2.472,319.395,0,322.711,0,326.604v33.881c0,4.971,4.029,9,9,9h135.25c4.971,0,9-4.029,9-9v-33.881
	c0-0.848-0.117-1.668-0.336-2.446l35.846-118.093h5.33l35.566,117.185c-0.416,1.037-0.646,2.169-0.646,3.354v33.881
	c0,4.971,4.029,9,9,9h135.251c4.971,0,9-4.029,9-9v-33.881C382.262,322.944,380.077,319.795,376.94,318.389z M335.089,97.868h-49.24
	c-8.758,0-15.883-7.125-15.883-15.882V65.269h61.612L335.089,97.868z M52.185,30.776h278.477v16.492H52.185V30.776z M51.268,65.269
	h61.612v16.718c0,8.757-7.124,15.882-15.881,15.882H47.757L51.268,65.269z M135.25,351.485H18v-15.881h117.25V351.485z
	 M212.9,206.065h19.643c4.971,0,9-4.029,9-9s-4.029-9-9-9h-82.234c-4.971,0-9,4.029-9,9s4.029,9,9,9h19.64l-33.856,111.539H24.095
	l21.724-201.736h51.181c18.682,0,33.881-15.199,33.881-33.882V65.269h51.545v70.781c0,2.387,0.948,4.676,2.636,6.364
	c1.688,1.688,3.978,2.636,6.364,2.636l25.14-0.001c4.971,0,9-4.029,9-9s-4.03-9-9-9l-16.14,0.001V65.269h51.541v16.718
	c0,18.683,15.2,33.882,33.883,33.882h51.179l21.725,201.736H246.754L212.9,206.065z M364.262,351.485H247.011v-15.881h117.251
	V351.485z"/>
<g>
</g>
<g>
</g>
<g>
</g>
<g>
</g>
<g>
</g>
<g>
</g>
<g>
</g>
<g>
</g>
<g>
</g>
<g>
</g>
<g>
</g>
<g>
</g>
<g>
</g>
<g>
</g>
<g>
</g>
</svg>
