<?xml version="1.0" encoding="iso-8859-1"?>
<!-- Generator: Adobe Illustrator 19.0.0, SVG Export Plug-In . SVG Version: 6.00 Build 0)  -->
<svg version="1.1" id="Capa_1" xmlns="http://www.w3.org/2000/svg" xmlns:xlink="http://www.w3.org/1999/xlink" x="0px" y="0px"
	 viewBox="0 0 407.268 407.268" style="enable-background:new 0 0 407.268 407.268;" xml:space="preserve">
<path id="XMLID_856_" d="M157.288,271.296l-30.697,37.753c-1.779,2.188-4.373,3.322-6.988,3.322c-1.996,0-4.003-0.66-5.672-2.017
	c-3.856-3.136-4.441-8.805-1.305-12.661l30.697-37.753c3.136-3.856,8.804-4.44,12.661-1.306
	C159.839,261.771,160.423,267.439,157.288,271.296z M263.947,259.94c-3.136-3.856-8.805-4.441-12.661-1.305
	c-3.856,3.136-4.44,8.804-1.305,12.66l30.699,37.753c1.779,2.188,4.373,3.322,6.988,3.322c1.995,0,4.004-0.66,5.673-2.018
	c3.856-3.136,4.44-8.804,1.305-12.66L263.947,259.94z M399.832,236.944c-3.634,29.7-10.55,46.938-21.133,52.649v28.832
	c0,4.971-4.029,9-9,9h-20.26c0.064,9.037-2.949,18.641-8.573,26.201c-4.619,6.211-10.604,10.41-17.105,12.159l-6.154,34.081
	c-0.774,4.284-4.503,7.4-8.857,7.4h-82.463c-4.971,0-9-4.029-9-9v-0.241c-3.769-1.229-8.665-1.938-13.651-1.938
	c-4.988,0-9.886,0.708-13.653,1.938v0.241c0,4.971-4.029,9-9,9H98.517c-4.354,0-8.083-3.117-8.857-7.401l-6.145-34.046
	c-6.309-1.663-12.063-5.638-16.691-11.637c-5.859-7.593-9.05-17.475-8.992-26.758H37.57c-4.971,0-9-4.029-9-9v-28.831
	c-10.583-5.711-17.5-22.949-21.134-52.65c-2.999-24.508-3.382-56.113-1.054-86.714l0.624-8.277
	c1.322-17.638,2.463-32.869,4.336-45.85c3.883-26.914,16.617-47.846,36.825-60.534c21.449-13.467,50.747-17.093,79.925-10.213
	l3.468-18.055C132.375,3.063,136.083,0,140.399,0h40.583c4.971,0,9,4.029,9,9v23.227c3.767,1.229,8.665,1.938,13.653,1.938
	c4.986,0,9.883-0.708,13.651-1.938V9c0-4.971,4.029-9,9-9h40.583c4.315,0,8.024,3.063,8.838,7.302l3.461,18.014
	c29.173-6.84,58.458-3.185,79.924,10.291c20.219,12.694,32.958,33.614,36.837,60.497c1.869,12.975,3.01,28.197,4.331,45.823
	l0.625,8.304C403.214,180.833,402.829,212.439,399.832,236.944z M77.423,309.426v-18.593H46.57v18.593H77.423z M171.982,366.685
	h-70.02l4.076,22.583h65.944V366.685z M171.982,18h-24.147l-3.019,15.717l13.009,12.932c3.525,3.504,3.542,9.202,0.039,12.728
	c-3.505,3.526-9.203,3.541-12.728,0.038l-14.983-14.893c-26.596-7.875-53.529-5.564-72.414,6.292
	c-15.815,9.931-25.432,26.033-28.581,47.86c-1.785,12.371-2.905,27.317-4.202,44.624l-0.625,8.298
	c-2.242,29.47-1.888,59.781,0.973,83.163c3.051,24.941,8.062,35.083,10.728,38.074h45.12l-5.197-70.074
	c-0.084-1.13,0.046-2.265,0.383-3.346c1.74-5.58,3.301-10.474,4.694-14.84c10.699-33.541,10.903-34.182,6.941-78.159
	c-0.446-4.95,3.206-9.325,8.156-9.771c4.959-0.435,9.325,3.206,9.771,8.156c4.288,47.599,3.381,50.441-7.72,85.244
	c-1.245,3.902-2.625,8.229-4.148,13.096l5.787,78.028c0.649,5.675-3.656,7.977-4.395,8.413v28.846c0,4.971-4.029,9-9,9H75.81
	c-0.079,5.302,1.847,11.331,5.266,15.762c2.017,2.614,5.325,5.655,9.676,5.508c0.187-0.01,0.374-0.01,0.558-0.011h80.673V18z
	 M217.287,50.815c-4.249,0.884-8.879,1.349-13.651,1.349c-4.773,0-9.404-0.465-13.653-1.349v306.869v0.001v21.752
	c4.249-0.884,8.88-1.349,13.653-1.349c4.772,0,9.402,0.465,13.651,1.349v-21.752v-0.001V50.815z M305.307,366.685h-70.021v22.583
	h65.942L305.307,366.685z M360.698,290.833h-30.853v18.593h30.853V290.833z M382.939,151.596l-0.627-8.324
	c-1.296-17.297-2.416-32.235-4.197-44.6c-3.145-21.794-12.765-37.884-28.593-47.82c-18.942-11.893-45.93-14.221-72.564-6.338
	L262.17,59.379c-3.505,3.523-9.204,3.537-12.728,0.033c-3.524-3.506-3.539-9.204-0.034-12.729l13.021-13.089L259.434,18h-24.147
	v330.685h80.678c0.183,0,0.371,0.001,0.559,0.011c4.699,0.183,8.222-3.554,9.899-5.811c3.299-4.435,5.122-10.298,5.042-15.459
	h-10.618c-4.971,0-9-4.029-9-9v-28.847c-0.739-0.437-4.879-1.57-4.393-8.412l5.787-78.028c-1.524-4.866-2.904-9.193-4.149-13.096
	c-11.103-34.803-12.01-37.646-7.724-85.244c0.446-4.95,4.83-8.597,9.771-8.156c4.951,0.446,8.603,4.82,8.157,9.771
	c-3.96,43.977-3.756,44.618,6.944,78.158c1.393,4.366,2.954,9.26,4.695,14.841c0.337,1.081,0.467,2.216,0.383,3.346l-5.197,70.074
	h45.116c2.665-2.99,7.677-13.131,10.728-38.074C384.825,211.379,385.18,181.067,382.939,151.596z"/>
<g>
</g>
<g>
</g>
<g>
</g>
<g>
</g>
<g>
</g>
<g>
</g>
<g>
</g>
<g>
</g>
<g>
</g>
<g>
</g>
<g>
</g>
<g>
</g>
<g>
</g>
<g>
</g>
<g>
</g>
</svg>
