<?xml version="1.0" encoding="iso-8859-1"?>
<!-- Generator: Adobe Illustrator 19.0.0, SVG Export Plug-In . SVG Version: 6.00 Build 0)  -->
<svg version="1.1" id="Capa_1" xmlns="http://www.w3.org/2000/svg" xmlns:xlink="http://www.w3.org/1999/xlink" x="0px" y="0px"
	 viewBox="0 0 407.268 407.268" style="enable-background:new 0 0 407.268 407.268;" xml:space="preserve">
<path id="XMLID_571_" d="M361.773,243.35H45.494c-4.971,0-9,4.029-9,9v67.279c0,3.504,2.033,6.689,5.211,8.164l111.195,51.604
	l21.324,24.746c1.709,1.984,4.199,3.125,6.818,3.125h45.183c2.619,0,5.108-1.141,6.818-3.125l21.322-24.746l111.196-51.604
	c3.178-1.475,5.211-4.66,5.211-8.164V252.35C370.773,247.379,366.744,243.35,361.773,243.35z M352.773,313.884l-107.746,50.003
	c-1.161,0.539-2.193,1.319-3.029,2.289l-19.897,23.092h-36.933l-19.898-23.092c-0.835-0.97-1.868-1.75-3.029-2.289L54.494,313.884
	v-9.607h298.279V313.884z M352.773,286.276H54.494V261.35h298.279V286.276z M333.264,77.791h-11.149V9c0-4.971-4.029-9-9-9
	s-9,4.029-9,9v68.791h-27.112c-34.415,0-62.765,26.471-65.759,60.122c-5.104,0.962-10.117,0.962-15.221,0
	c-2.995-33.65-31.344-60.122-65.758-60.122h-27.115V9c0-4.971-4.029-9-9-9s-9,4.029-9,9v68.791H74.004
	c-20.683,0-37.51,16.827-37.51,37.51v69.816c0,4.971,4.029,9,9,9h316.279c4.971,0,9-4.029,9-9v-69.816
	C370.773,94.618,353.946,77.791,333.264,77.791z M352.773,176.117H54.494v-60.816c0-10.758,8.752-19.51,19.51-19.51h56.26
	c22.12,0,40.794,15.035,46.343,35.421c-3.377-0.122-6.651,1.641-8.316,4.814c-2.309,4.402-0.613,9.842,3.789,12.151
	c21.527,11.293,41.58,11.293,63.106,0c4.402-2.309,6.099-7.749,3.789-12.151c-1.665-3.173-4.929-4.93-8.316-4.814
	c5.549-20.387,24.224-35.421,46.344-35.421h56.262c10.758,0,19.51,8.752,19.51,19.51V176.117z"/>
<g>
</g>
<g>
</g>
<g>
</g>
<g>
</g>
<g>
</g>
<g>
</g>
<g>
</g>
<g>
</g>
<g>
</g>
<g>
</g>
<g>
</g>
<g>
</g>
<g>
</g>
<g>
</g>
<g>
</g>
</svg>
