<?xml version="1.0" encoding="iso-8859-1"?>
<!-- Generator: Adobe Illustrator 19.0.0, SVG Export Plug-In . SVG Version: 6.00 Build 0)  -->
<svg version="1.1" id="Capa_1" xmlns="http://www.w3.org/2000/svg" xmlns:xlink="http://www.w3.org/1999/xlink" x="0px" y="0px"
	 viewBox="0 0 418.482 418.482" style="enable-background:new 0 0 418.482 418.482;" xml:space="preserve">
<path id="XMLID_59_" d="M31.234,353.044v-1.899c0-4.971,4.029-9,9-9s9,4.029,9,9v1.899c0,4.971-4.029,9-9,9
	S31.234,358.014,31.234,353.044z M209.24,317.595c-4.971,0-9,4.029-9,9v1.899c0,4.971,4.029,9,9,9s9-4.029,9-9v-1.899
	C218.24,321.625,214.211,317.595,209.24,317.595z M209.24,356.015c-4.971,0-9,4.029-9,9v1.899c0,4.971,4.029,9,9,9s9-4.029,9-9
	v-1.899C218.24,360.044,214.211,356.015,209.24,356.015z M378.25,362.044c4.971,0,9-4.029,9-9v-1.899c0-4.971-4.029-9-9-9
	s-9,4.029-9,9v1.899C369.25,358.014,373.279,362.044,378.25,362.044z M418.41,312.75l-8.948,70.402
	c-0.571,4.496-4.396,7.865-8.928,7.865h-48.712c-4.88,0-8.871-3.889-8.997-8.768l-3.584-138.416l-23.217-99.121l-22.912,78.206
	l36.096,182.282c0.523,2.642-0.164,5.379-1.873,7.46c-1.71,2.082-4.262,3.288-6.955,3.288H98.104c-2.693,0-5.245-1.206-6.954-3.288
	c-1.71-2.081-2.397-4.818-1.874-7.46l36.092-182.282l-22.912-78.206l-23.218,99.122L75.653,382.25
	c-0.126,4.878-4.117,8.768-8.997,8.768H17.944c-4.532,0-8.357-3.37-8.929-7.866l-8.943-70.402c-0.368-2.893,0.689-5.786,2.836-7.759
	c1.264-1.162,2.812-1.92,4.453-2.225l-1.598-80.083c-0.015-0.702,0.054-1.402,0.203-2.088L37.989,72.974
	c3.152-14.532,16.987-25.566,24.954-30.851c10.496-6.962,21.93-11.536,31.571-12.745l16.288-23.04
	c1.687-2.386,4.427-3.805,7.349-3.805c0.004,0,0.007,0,0.01,0l15.584,0.018c2.777,0.003,5.397,1.288,7.101,3.482l9.779,12.603
	c15.271,7.092,36.495,11.139,58.615,11.139c22.117,0,43.342-4.047,58.614-11.138l9.779-12.603c1.703-2.194,4.323-3.479,7.101-3.482
	l15.585-0.018c0.003,0,0.007,0,0.01,0c2.922,0,5.661,1.418,7.349,3.804l16.291,23.041c9.64,1.209,21.072,5.783,31.568,12.745
	c7.967,5.284,21.802,16.319,24.954,30.851l32.023,147.62c0.148,0.686,0.216,1.386,0.202,2.088l-1.599,80.082
	c1.643,0.304,3.192,1.063,4.456,2.225C417.721,306.964,418.778,309.856,418.41,312.75z M220.766,108.679l16.919,20.502
	l71.022-90.208L295.674,20.54l-6.518,0.007L220.766,108.679z M170.152,43.801l39.088,50.371l39.087-50.371
	c-12.103,2.606-25.351,3.975-39.087,3.975C195.505,47.776,182.254,46.406,170.152,43.801z M109.774,38.975l71.021,90.205
	l16.919-20.502l-68.391-88.131l-6.517-0.007L109.774,38.975z M58.96,331.479l-39.433-8.415l6.346,49.954h32.013L58.96,331.479z
	 M359.043,313.175l34.009-7.257l1.647-82.539L362.9,76.791c-2.577-11.88-23.394-25.88-38.175-29.065l-79.804,101.362
	c-1.684,2.139-4.246,3.401-6.968,3.432c-0.034,0-0.069,0-0.104,0c-2.685,0-5.23-1.198-6.941-3.271l-21.669-26.257l-21.669,26.257
	c-1.732,2.099-4.276,3.293-7.045,3.271c-2.722-0.031-5.284-1.293-6.968-3.432L93.755,47.726
	C78.971,50.913,58.157,64.911,55.581,76.79l-31.8,146.589l1.646,82.539l34.009,7.257l1.832-70.729
	c0.016-0.613,0.095-1.223,0.234-1.819L87.83,128.228c0.953-4.069,4.583-6.947,8.763-6.947h11.014c3.996,0,7.514,2.635,8.637,6.47
	l27.019,92.222c0.407,1.39,0.474,2.857,0.191,4.278l-34.392,173.696h200.361l-34.396-173.696c-0.282-1.421-0.216-2.889,0.191-4.279
	l27.019-92.222c1.123-3.835,4.641-6.47,8.637-6.47h11.014c4.18,0,7.81,2.878,8.763,6.947l26.327,112.398
	c0.14,0.597,0.219,1.207,0.234,1.819L359.043,313.175z M398.955,323.064l-39.437,8.415l1.074,41.539h32.013L398.955,323.064z
	 M209.24,163.919c-4.971,0-9,4.029-9,9v1.899c0,4.971,4.029,9,9,9s9-4.029,9-9v-1.899
	C218.24,167.948,214.211,163.919,209.24,163.919z M209.24,202.338c-4.971,0-9,4.029-9,9v1.899c0,4.971,4.029,9,9,9s9-4.029,9-9
	v-1.899C218.24,206.367,214.211,202.338,209.24,202.338z M209.24,240.757c-4.971,0-9,4.029-9,9v1.899c0,4.971,4.029,9,9,9
	s9-4.029,9-9v-1.899C218.24,244.786,214.211,240.757,209.24,240.757z M209.24,279.177c-4.971,0-9,4.029-9,9v1.899
	c0,4.971,4.029,9,9,9s9-4.029,9-9v-1.899C218.24,283.206,214.211,279.177,209.24,279.177z"/>
<g>
</g>
<g>
</g>
<g>
</g>
<g>
</g>
<g>
</g>
<g>
</g>
<g>
</g>
<g>
</g>
<g>
</g>
<g>
</g>
<g>
</g>
<g>
</g>
<g>
</g>
<g>
</g>
<g>
</g>
</svg>
