<?xml version="1.0" encoding="iso-8859-1"?>
<!-- Generator: Adobe Illustrator 19.0.0, SVG Export Plug-In . SVG Version: 6.00 Build 0)  -->
<svg version="1.1" id="Capa_1" xmlns="http://www.w3.org/2000/svg" xmlns:xlink="http://www.w3.org/1999/xlink" x="0px" y="0px"
	 viewBox="0 0 407.268 407.268" style="enable-background:new 0 0 407.268 407.268;" xml:space="preserve">
<path id="XMLID_665_" d="M237.37,176.936c2.486,4.304,1.013,9.809-3.291,12.295c-9.71,5.609-19.953,8.454-30.444,8.454
	c-10.493,0-20.736-2.844-30.446-8.454c-4.304-2.486-5.777-7.991-3.291-12.295c2.485-4.305,7.99-5.778,12.295-3.291
	c13.874,8.014,29.006,8.016,42.883,0C229.38,171.159,234.884,172.632,237.37,176.936z M358.608,154.975v243.292c0,4.971-4.029,9-9,9
	H57.659c-4.971,0-9-4.029-9-9V154.975c0-4.971,4.029-9,9-9c21.867,0,39.657-17.791,39.657-39.658V9c0-4.971,4.029-9,9-9h48.659
	c4.971,0,9,4.029,9,9v97.317c0,21.868,17.791,39.658,39.659,39.658c21.867,0,39.657-17.791,39.657-39.658V9c0-4.971,4.029-9,9-9
	h48.659c4.971,0,9,4.029,9,9v97.317c0,21.868,17.79,39.658,39.657,39.658C354.579,145.975,358.608,150.004,358.608,154.975z
	 M340.608,163.273c-27.534-4.333-48.657-28.224-48.657-56.957V18h-30.659v88.317c0,31.793-25.865,57.658-57.657,57.658
	c-31.793,0-57.659-25.865-57.659-57.658V18h-30.659v88.317c0,28.732-21.123,52.624-48.657,56.957v225.994h273.949V163.273z"/>
<g>
</g>
<g>
</g>
<g>
</g>
<g>
</g>
<g>
</g>
<g>
</g>
<g>
</g>
<g>
</g>
<g>
</g>
<g>
</g>
<g>
</g>
<g>
</g>
<g>
</g>
<g>
</g>
<g>
</g>
</svg>
