<?xml version="1.0" encoding="iso-8859-1"?>
<!-- Generator: Adobe Illustrator 19.0.0, SVG Export Plug-In . SVG Version: 6.00 Build 0)  -->
<svg version="1.1" id="Capa_1" xmlns="http://www.w3.org/2000/svg" xmlns:xlink="http://www.w3.org/1999/xlink" x="0px" y="0px"
	 viewBox="0 0 414.735 414.735" style="enable-background:new 0 0 414.735 414.735;" xml:space="preserve">
<path id="XMLID_455_" d="M384.747,291.95h-1.186L365.248,74.771c-1.694-20.097-9.931-38.719-23.193-52.437
	C328.129,7.932,309.555,0,289.755,0H124.983c-19.801,0-38.375,7.933-52.301,22.336c-13.263,13.717-21.5,32.339-23.195,52.434
	L31.177,291.95h-1.188c-7.769,0-14.09,6.321-14.09,14.091v87.136c0,7.77,6.321,14.09,14.09,14.09h275.319
	c0.728,4.241,4.422,7.468,8.87,7.468h35.539c4.448,0,8.143-3.227,8.87-7.468h26.16c7.769,0,14.089-6.321,14.089-14.09v-87.136
	C398.836,298.271,392.516,291.95,384.747,291.95z M67.424,76.283C70.272,42.512,94.479,18,124.983,18h164.771
	c30.504,0,54.71,24.512,57.557,58.283l18.186,215.667H49.24L67.424,76.283z M340.717,396.735h-17.539V355.64h17.539V396.735z
	 M380.836,389.268h-22.119V346.64c0-4.971-4.029-9-9-9h-35.539c-4.971,0-9,4.029-9,9v42.628H33.899V309.95h346.938V389.268z"/>
<g>
</g>
<g>
</g>
<g>
</g>
<g>
</g>
<g>
</g>
<g>
</g>
<g>
</g>
<g>
</g>
<g>
</g>
<g>
</g>
<g>
</g>
<g>
</g>
<g>
</g>
<g>
</g>
<g>
</g>
</svg>
