<?xml version="1.0" encoding="iso-8859-1"?>
<!-- Generator: Adobe Illustrator 19.0.0, SVG Export Plug-In . SVG Version: 6.00 Build 0)  -->
<svg version="1.1" id="Capa_1" xmlns="http://www.w3.org/2000/svg" xmlns:xlink="http://www.w3.org/1999/xlink" x="0px" y="0px"
	 viewBox="0 0 407.268 407.268" style="enable-background:new 0 0 407.268 407.268;" xml:space="preserve">
<path id="XMLID_963_" d="M291.129,0h-174.99c-4.971,0-9,4.029-9,9v84.336c0,0.098,0.001,0.196,0.005,0.294l9.959,304.932
	c0.159,4.854,4.139,8.706,8.995,8.706h48.369c4.971,0,9-4.029,9-9V121.3c0-11.119,9.046-20.165,20.166-20.165
	s20.166,9.046,20.166,20.165v276.968c0,4.971,4.029,9,9,9h48.362c4.857,0,8.837-3.854,8.995-8.708l9.968-306.713
	c0.003-0.097,0.005-0.194,0.005-0.292V9C300.129,4.029,296.1,0,291.129,0z M282.129,91.41l-9.681,297.857h-30.65V121.3
	c0-21.044-17.122-38.165-38.167-38.165c-21.043,0-38.164,17.121-38.164,38.165v267.968h-30.658l-9.67-296.078V57.278h156.99V91.41z
	 M282.129,39.278h-156.99V18h156.99V39.278z"/>
<g>
</g>
<g>
</g>
<g>
</g>
<g>
</g>
<g>
</g>
<g>
</g>
<g>
</g>
<g>
</g>
<g>
</g>
<g>
</g>
<g>
</g>
<g>
</g>
<g>
</g>
<g>
</g>
<g>
</g>
</svg>
