<?xml version="1.0" encoding="iso-8859-1"?>
<!-- Generator: Adobe Illustrator 19.0.0, SVG Export Plug-In . SVG Version: 6.00 Build 0)  -->
<svg version="1.1" id="Capa_1" xmlns="http://www.w3.org/2000/svg" xmlns:xlink="http://www.w3.org/1999/xlink" x="0px" y="0px"
	 viewBox="0 0 407.27 407.27" style="enable-background:new 0 0 407.27 407.27;" xml:space="preserve">
<path id="XMLID_869_" d="M147.045,370.614c0-4.971,4.029-9,9-9h1.9c4.971,0,9,4.029,9,9s-4.029,9-9,9h-1.9
	C151.074,379.614,147.045,375.585,147.045,370.614z M191.954,379.614h1.899c4.971,0,9-4.029,9-9s-4.029-9-9-9h-1.899
	c-4.971,0-9,4.029-9,9S186.983,379.614,191.954,379.614z M407.27,121.723v230.455c0,4.971-4.029,9-9,9H349.61
	c-4.827,0-8.795-3.809-8.992-8.633l-8.501-207.96l-7.038-13.862h-5.609l-17.256,120.908l16.808,82.374
	c4.551,0.449,8.105,4.287,8.105,8.956v55.309c0,4.971-4.029,9-9,9H89.145c-4.971,0-9-4.029-9-9v-55.309
	c0-4.669,3.556-8.508,8.107-8.956l16.808-82.374L87.804,130.723h-5.61l-7.039,13.862l-8.501,207.96
	c-0.197,4.824-4.165,8.633-8.993,8.633H9c-4.971,0-9-4.029-9-9V121.723c0-1.435,0.343-2.849,1-4.124l47.522-92.182
	c1.544-2.994,4.63-4.876,8-4.876h16.407L68.6,13.933c-1.812-2.766-1.961-6.302-0.39-9.21c1.572-2.909,4.612-4.722,7.918-4.722
	h61.376c1.915-0.026,3.864,0.54,5.524,1.773c15.496,11.508,37.586,18.107,60.608,18.107c23.022,0,45.112-6.6,60.605-18.107
	c1.66-1.232,3.594-1.801,5.523-1.773h61.376c3.307,0,6.346,1.813,7.918,4.722c1.571,2.908,1.422,6.444-0.39,9.21l-4.329,6.608
	h16.408c3.369,0,6.456,1.882,8,4.876l47.521,92.182C406.927,118.874,407.27,120.288,407.27,121.723z M218.183,97.318h38.851V69.636
	c0-4.971,4.029-9,9-9h20.522l27.931-42.635h-40.219L218.183,97.318z M165.165,32.306l38.472,54.406l38.47-54.406
	c-12.083,3.635-25.178,5.576-38.47,5.576C190.344,37.882,177.25,35.94,165.165,32.306z M92.783,18.001l4.224,6.448
	c0.076,0.109,0.149,0.222,0.22,0.336l23.486,35.851h20.526c4.971,0,9,4.029,9,9v27.683h38.851l-56.087-79.317H92.783z
	 M218.966,351.961H98.145v37.309h120.821V351.961z M218.966,157.324l-20.904-42.006H141.24c-4.971,0-9-4.029-9-9V78.636h-16.389
	c-3.035,0-5.865-1.529-7.528-4.068L84.721,38.541H62.008L18,123.906v219.271h31.021l8.228-201.286
	c0.053-1.291,0.383-2.556,0.968-3.707l10.427-20.536c1.534-3.022,4.636-4.926,8.025-4.926H95.61c4.479,0,8.277,3.294,8.91,7.729
	l18.579,130.18c0.146,1.021,0.115,2.06-0.091,3.07l-0.11,0.538l12.784-18.454c2.831-4.086,8.439-5.104,12.523-2.273
	c4.086,2.831,5.104,8.438,2.273,12.523l-35.75,51.604c-0.279,0.403-0.585,0.776-0.915,1.119l-7.183,35.203h112.334V157.324z
	 M236.966,351.961v37.309h72.161v-37.309H236.966z M389.27,123.906l-44.006-85.365h-22.715l-23.602,36.026
	c-1.663,2.539-4.493,4.068-7.528,4.068h-16.386v27.683c0,4.971-4.029,9-9,9h-47.865l17.855,35.881
	c0.62,1.246,0.942,2.618,0.942,4.01v178.752h63.676l-7.547-36.986l-35.289-50.939c-2.83-4.086-1.813-9.692,2.273-12.523
	s9.692-1.813,12.523,2.273l11.494,16.592c-0.031-0.582-0.005-1.167,0.077-1.746l18.579-130.18c0.634-4.435,4.431-7.729,8.91-7.729
	h18.94c3.389,0,6.491,1.904,8.025,4.926l10.426,20.536c0.584,1.151,0.914,2.416,0.967,3.707l8.229,201.286h31.02V123.906z
	 M372.486,333.314c4.971,0,9-4.029,9-9v-1.899c0-4.971-4.029-9-9-9s-9,4.029-9,9v1.899
	C363.486,329.285,367.516,333.314,372.486,333.314z M34.025,313.415c-4.971,0-9,4.029-9,9v1.899c0,4.971,4.029,9,9,9s9-4.029,9-9
	v-1.899C43.025,317.444,38.996,313.415,34.025,313.415z M120.137,379.614h1.899c4.971,0,9-4.029,9-9s-4.029-9-9-9h-1.899
	c-4.971,0-9,4.029-9,9S115.167,379.614,120.137,379.614z M254.794,379.614h1.9c4.971,0,9-4.029,9-9s-4.029-9-9-9h-1.9
	c-4.971,0-9,4.029-9,9S249.823,379.614,254.794,379.614z M163.916,130.065c-4.395,2.323-6.074,7.769-3.751,12.163l28.657,54.217
	c1.614,3.054,4.735,4.796,7.965,4.796c1.418,0,2.857-0.336,4.198-1.045c4.395-2.323,6.074-7.769,3.751-12.163l-28.657-54.217
	C173.755,129.421,168.311,127.74,163.916,130.065z M290.703,379.614h1.899c4.971,0,9-4.029,9-9s-4.029-9-9-9h-1.899
	c-4.971,0-9,4.029-9,9S285.732,379.614,290.703,379.614z M168.232,179.017c-2.323-4.395-7.769-6.075-12.163-3.751
	c-4.395,2.323-6.074,7.769-3.751,12.163l28.657,54.216c1.614,3.054,4.735,4.796,7.965,4.796c1.418,0,2.857-0.336,4.198-1.045
	c4.395-2.323,6.074-7.769,3.751-12.163L168.232,179.017z"/>
<g>
</g>
<g>
</g>
<g>
</g>
<g>
</g>
<g>
</g>
<g>
</g>
<g>
</g>
<g>
</g>
<g>
</g>
<g>
</g>
<g>
</g>
<g>
</g>
<g>
</g>
<g>
</g>
<g>
</g>
</svg>
