<?xml version="1.0" encoding="iso-8859-1"?>
<!-- Generator: Adobe Illustrator 19.0.0, SVG Export Plug-In . SVG Version: 6.00 Build 0)  -->
<svg version="1.1" id="Capa_1" xmlns="http://www.w3.org/2000/svg" xmlns:xlink="http://www.w3.org/1999/xlink" x="0px" y="0px"
	 viewBox="0 0 407.268 407.268" style="enable-background:new 0 0 407.268 407.268;" xml:space="preserve">
<path id="XMLID_630_" d="M212.634,192.193v1.9c0,4.971-4.029,9-9,9s-9-4.029-9-9v-1.9c0-4.971,4.029-9,9-9
	S212.634,187.222,212.634,192.193z M203.634,156.096c-4.971,0-9,4.029-9,9v1.899c0,4.971,4.029,9,9,9s9-4.029,9-9v-1.899
	C212.634,160.125,208.604,156.096,203.634,156.096z M346.606,258.131c-1.71,2.006-4.213,3.161-6.849,3.161h-31.967
	c-4.066,0-7.628-2.727-8.688-6.652l-23.227-85.966v52.674c0,1.454-0.345,2.828-0.957,4.043v24.114
	c11.126,16.442,15.864,36.765,13.363,57.604l-11.062,92.229c-0.542,4.523-4.38,7.928-8.936,7.928h-130.26
	c-4.556,0-8.394-3.405-8.936-7.929l-11.06-92.229c-2.501-20.838,2.237-41.162,13.361-57.606v-80.83l-23.227,85.966
	c-1.061,3.925-4.622,6.652-8.688,6.652H67.51c-2.636,0-5.139-1.155-6.849-3.161s-2.455-4.66-2.038-7.263L92.109,41.893
	C96.126,16.835,113.487,0,135.311,0h31.317c3.985,0,7.497,2.622,8.629,6.443l2.554,8.618c6.715,5.18,16.058,8.133,25.823,8.133
	c9.765,0,19.106-2.953,25.822-8.131l2.555-8.62C233.143,2.622,236.654,0,240.64,0h31.315c21.826,0,39.188,16.835,43.201,41.893
	l33.488,208.975C349.062,253.471,348.316,256.125,346.606,258.131z M184.739,38.444l18.895,63.765l18.895-63.765
	c-5.946,1.807-12.321,2.75-18.895,2.75S190.685,40.251,184.739,38.444z M261.063,261.201H145.247
	c-7.935,12.567-11.244,27.935-9.346,43.765l10.109,84.302h14.036v-73.04c0-4.971,4.029-9,9-9s9,4.029,9,9v73.04h24.869
	c0.08,0,0.159,0.001,0.239,0.003c0.079-0.002,0.158-0.003,0.238-0.003H260.3l10.111-84.302
	C272.311,289.134,268.999,273.767,261.063,261.201z M256.919,243.201v-12.853H149.392v12.853H256.919z M329.201,243.292
	L297.383,44.74C295.407,32.405,287.562,18,271.955,18h-24.596l-35.097,118.444c-1.132,3.822-4.644,6.443-8.629,6.443
	s-7.497-2.622-8.629-6.443L159.908,18h-24.598c-15.604,0-23.45,14.405-25.428,26.741L78.066,243.292h14.52l44.965-166.424
	c1.297-4.799,6.238-7.636,11.036-6.341c4.799,1.296,7.638,6.237,6.341,11.036l-5.536,20.49v110.295h108.484V102.053l-5.536-20.49
	c-1.297-4.799,1.542-9.74,6.341-11.036c4.799-1.294,9.74,1.542,11.036,6.341l5.785,21.41c0.044,0.149,0.084,0.298,0.121,0.45
	l39.059,144.564H329.201z"/>
<g>
</g>
<g>
</g>
<g>
</g>
<g>
</g>
<g>
</g>
<g>
</g>
<g>
</g>
<g>
</g>
<g>
</g>
<g>
</g>
<g>
</g>
<g>
</g>
<g>
</g>
<g>
</g>
<g>
</g>
</svg>
