<?xml version="1.0" encoding="iso-8859-1"?>
<!-- Generator: Adobe Illustrator 19.0.0, SVG Export Plug-In . SVG Version: 6.00 Build 0)  -->
<svg version="1.1" id="Capa_1" xmlns="http://www.w3.org/2000/svg" xmlns:xlink="http://www.w3.org/1999/xlink" x="0px" y="0px"
	 viewBox="0 0 419.559 419.559" style="enable-background:new 0 0 419.559 419.559;" xml:space="preserve">
<path id="XMLID_130_" d="M367.713,356.655v-1.899c0-4.971,4.029-9,9-9s9,4.029,9,9v1.899c0,4.971-4.029,9-9,9
	S367.713,361.626,367.713,356.655z M413.258,226.295l-3.188,159.514c-0.098,4.9-4.098,8.82-8.998,8.82H352.36
	c-4.88,0-8.871-3.889-8.997-8.767l-3.583-138.416l-23.218-99.122L293.65,226.53l36.096,182.281c0.523,2.643-0.164,5.38-1.873,7.461
	c-1.71,2.082-4.262,3.288-6.955,3.288h-84.89c-3.944,0-7.43-2.569-8.597-6.337l-3.94-12.72c-3.845-1.139-8.737-1.791-13.713-1.791
	c-4.974,0-9.866,0.652-13.713,1.791l-3.94,12.72c-1.167,3.768-4.652,6.337-8.597,6.337H98.642c-2.693,0-5.245-1.206-6.955-3.288
	c-1.709-2.081-2.396-4.818-1.873-7.46l36.092-182.281l-22.912-78.206l-23.218,99.122l-3.583,138.416
	c-0.126,4.878-4.117,8.767-8.997,8.767H18.482c-4.9,0-8.9-3.921-8.998-8.82L6.301,226.295c-0.015-0.702,0.054-1.402,0.202-2.087
	L38.527,76.587c3.152-14.533,16.987-25.567,24.954-30.851C74.013,38.75,85.488,34.168,95.15,32.978L116.623,3.68
	c1.747-2.384,4.581-3.76,7.51-3.676c2.956,0.083,5.682,1.611,7.294,4.09l11.694,17.982c17.383,7.202,41.522,11.312,66.656,11.312
	c25.132,0,49.271-4.11,66.656-11.312l11.694-17.981c1.612-2.479,4.338-4.007,7.293-4.09c2.998-0.082,5.764,1.292,7.511,3.676
	l21.477,29.299c9.66,1.19,21.135,5.772,31.666,12.757c7.967,5.284,21.802,16.319,24.954,30.851l32.026,147.621
	C413.204,224.893,413.273,225.594,413.258,226.295z M158.544,45.788l49.846,76.644c0.452-0.07,0.916-0.106,1.388-0.106
	s0.936,0.036,1.388,0.106l49.847-76.645c-15.452,3.657-32.952,5.6-51.234,5.6C191.493,51.387,173.995,49.445,158.544,45.788z
	 M200.778,143.742L123.44,24.828l-13.291,18.135l58.28,81.097c2.9,4.037,1.98,9.66-2.057,12.561
	c-4.038,2.902-9.66,1.979-12.561-2.056L94.04,51.393c-14.767,3.29-35.36,17.197-37.922,29.009l-31.8,146.59l2.985,149.637h31.121
	l3.381-130.571c0.016-0.613,0.095-1.223,0.234-1.82l26.327-112.397c0.953-4.07,4.583-6.948,8.763-6.948h11.014
	c3.996,0,7.514,2.635,8.637,6.47l27.019,92.222c0.407,1.39,0.474,2.857,0.191,4.278l-14.934,75.421l45.359,9.485
	c4.865,1.018,7.985,5.786,6.968,10.652c-1.017,4.865-5.785,7.987-10.651,6.967l-45.172-9.445l-15.962,80.616h67.295l23.884-77.103
	V143.742z M217.481,381.101l-7.703-24.867l-7.703,24.867C207.075,380.587,212.483,380.587,217.481,381.101z M395.241,226.991
	L363.437,80.403c-2.562-11.813-23.156-25.721-37.921-29.01l-59.771,83.172c-2.898,4.036-8.522,4.959-12.561,2.057
	c-4.036-2.901-4.957-8.524-2.057-12.561l58.28-81.099l-13.293-18.134l-77.338,118.915v180.714l23.884,77.103h67.299l-15.969-80.642
	l-45.295,9.471c-4.866,1.017-9.634-2.103-10.651-6.967c-1.018-4.866,2.103-9.634,6.968-10.652l45.481-9.51l-14.93-75.396
	c-0.282-1.42-0.216-2.888,0.191-4.278l27.019-92.222c1.123-3.835,4.641-6.47,8.637-6.47h11.014c4.18,0,7.81,2.878,8.763,6.948
	l26.327,112.397c0.14,0.597,0.219,1.207,0.234,1.82l3.381,130.571h31.119L395.241,226.991z M43.39,345.757c-4.971,0-9,4.029-9,9
	v1.899c0,4.971,4.029,9,9,9s9-4.029,9-9v-1.899C52.39,349.786,48.361,345.757,43.39,345.757z"/>
<g>
</g>
<g>
</g>
<g>
</g>
<g>
</g>
<g>
</g>
<g>
</g>
<g>
</g>
<g>
</g>
<g>
</g>
<g>
</g>
<g>
</g>
<g>
</g>
<g>
</g>
<g>
</g>
<g>
</g>
</svg>
