<?xml version="1.0" encoding="iso-8859-1"?>
<!-- Generator: Adobe Illustrator 19.0.0, SVG Export Plug-In . SVG Version: 6.00 Build 0)  -->
<svg version="1.1" id="Capa_1" xmlns="http://www.w3.org/2000/svg" xmlns:xlink="http://www.w3.org/1999/xlink" x="0px" y="0px"
	 viewBox="0 0 416.736 416.736" style="enable-background:new 0 0 416.736 416.736;" xml:space="preserve">
<path id="XMLID_505_" d="M398.767,258.754l-4.911-33.044c-0.351-2.361-1.626-4.486-3.543-5.907c-1.706-1.264-3.79-1.88-5.903-1.753
	L371.8,115.862c-0.011-0.083-0.022-0.166-0.034-0.249c-4.789-31.541-11.915-67.039-35.979-89.215
	c-22.664-22.01-27.104-25.773-48.302-26.314c-0.399-0.054-0.804-0.082-1.212-0.082L238.549,0
	c-0.137-0.003-22.066,4.756-30.908,4.756c-8.84,0-30.772-4.759-30.911-4.756l-47.718,0.001c-0.408,0-0.813,0.028-1.211,0.082
	c-21.199,0.542-25.643,4.305-48.305,26.315C55.43,48.575,48.306,84.072,43.518,115.613c-0.013,0.083-0.024,0.166-0.034,0.249
	L30.872,218.08c-1.597,0.162-3.137,0.751-4.449,1.723c-1.917,1.421-3.192,3.546-3.543,5.907l-4.911,33.044
	c-0.73,4.917,2.663,9.495,7.579,10.226l60.689,9.022c4.92,0.729,9.494-2.662,10.225-7.578l4.915-33.043
	c0.352-2.361-0.25-4.765-1.671-6.683c-0.724-0.977-1.63-1.786-2.657-2.392l15.578-84.453l27.205,101.65l-38.551,119.815
	l-5.975,0.011c-4.964,0.009-8.984,4.036-8.984,9v33.407c0,4.971,4.029,9,9,9H319.96c4.971,0,9-4.029,9-9v-33.815
	c0-2.39-0.95-4.682-2.642-6.37c-1.688-1.685-3.975-2.63-6.358-2.63c-0.006,0-0.011,0-0.017,0l-6.068,0.011l-38.426-119.43
	l27.205-101.647l15.747,85.369c-0.508,0.435-0.968,0.928-1.372,1.473c-1.422,1.917-2.022,4.321-1.672,6.683l4.913,33.043
	c0.731,4.917,5.313,8.306,10.226,7.579l60.691-9.022C396.105,268.249,399.497,263.67,398.767,258.754z M244.201,18l30.265,0
	l-23.392,85.109c-5.188,19.038-18.778,28.609-31.984,31.997L244.201,18z M171.08,18l25.112,117.106
	c-13.205-3.388-26.795-12.963-31.987-32.015L140.82,18L171.08,18z M79.983,258.874l-42.886-6.375l2.265-15.24l42.888,6.376
	L79.983,258.874z M124.891,120.049c-0.746-2.787-2.782-5.047-5.477-6.079c-2.695-1.031-5.72-0.708-8.136,0.868
	c-8.385,5.472-14.296,14.593-16.218,25.024l-15.706,85.144l-30.639-4.555l12.616-102.259c4.334-28.52,10.63-60.438,30.437-78.626
	c0.062-0.057,0.124-0.116,0.184-0.174c11.116-10.797,17.24-16.745,22.235-19.149c2.213-1.065,4.56-1.628,8.051-1.923l24.604,89.523
	c6.924,25.409,26.772,42.771,51.798,46.136v82.758H156.12L124.891,120.049z M155.771,254.736h21.606l-14.587,64.728
	c-1.093,4.849,1.952,9.666,6.801,10.758c4.85,1.096,9.666-1.952,10.758-6.801l15.479-68.685h2.813v110.405l-78.44,0.143
	L155.771,254.736z M104.323,398.736v-15.423l94.319-0.171v15.127c0,0.157,0.004,0.313,0.012,0.467H104.323z M190.245,21.526
	c5.468,0.808,11.344,1.23,17.396,1.23c6.051,0,11.928-0.422,17.395-1.23l-17.395,81.124L190.245,21.526z M310.96,382.938v15.799
	h-94.331c0.008-0.155,0.012-0.311,0.012-0.467v-15.16L310.96,382.938z M294.978,364.967l-78.337,0.142V254.736h2.812l11.216,49.752
	c1.093,4.849,5.908,7.893,10.759,6.801c4.849-1.093,7.894-5.91,6.8-10.759l-10.323-45.794h21.608L294.978,364.967z M320.222,139.862
	c-1.925-10.432-7.835-19.553-16.216-25.023c-2.414-1.576-5.438-1.9-8.136-0.869c-2.694,1.031-4.731,3.292-5.478,6.079
	l-31.23,116.688h-42.521v-82.758c25.024-3.365,44.875-20.725,51.795-46.117l24.61-89.542c3.489,0.295,5.836,0.859,8.049,1.923
	c4.995,2.404,11.119,8.352,22.236,19.149c0.061,0.059,0.122,0.117,0.184,0.174c19.806,18.188,26.102,50.107,30.436,78.627
	l12.645,102.471l-30.629,4.553L320.222,139.862z M336.751,258.874l-2.266-15.239l42.889-6.376l2.265,15.24L336.751,258.874z"/>
<g>
</g>
<g>
</g>
<g>
</g>
<g>
</g>
<g>
</g>
<g>
</g>
<g>
</g>
<g>
</g>
<g>
</g>
<g>
</g>
<g>
</g>
<g>
</g>
<g>
</g>
<g>
</g>
<g>
</g>
</svg>
