<?xml version="1.0" encoding="iso-8859-1"?>
<!-- Generator: Adobe Illustrator 19.0.0, SVG Export Plug-In . SVG Version: 6.00 Build 0)  -->
<svg version="1.1" id="Capa_1" xmlns="http://www.w3.org/2000/svg" xmlns:xlink="http://www.w3.org/1999/xlink" x="0px" y="0px"
	 viewBox="0 0 407.268 407.268" style="enable-background:new 0 0 407.268 407.268;" xml:space="preserve">
<path id="XMLID_511_" d="M301.178,157.387c-3.823-3.175-9.499-2.648-12.674,1.174l-23.676,28.511l-23.673-28.51
	c-1.71-2.06-4.247-3.251-6.924-3.251s-5.214,1.191-6.924,3.25l-23.676,28.511l-23.676-28.511c-1.71-2.059-4.247-3.25-6.924-3.25
	s-5.214,1.191-6.924,3.25l-23.675,28.511l-23.674-28.51c-3.175-3.825-8.851-4.35-12.674-1.175s-4.35,8.85-1.174,12.674
	l25.823,31.099l-25.723,30.978c-0.53,0.615-0.966,1.288-1.304,1.999c-0.586,1.229-0.874,2.553-0.873,3.872
	c-0.001,1.318,0.286,2.643,0.872,3.869c0.338,0.712,0.774,1.387,1.306,2.003l25.722,30.977l-25.823,31.101
	c-3.176,3.824-2.649,9.498,1.175,12.673c1.681,1.396,3.718,2.076,5.744,2.076c2.584,0,5.149-1.107,6.929-3.251l23.674-28.511
	l23.675,28.512c1.71,2.059,4.247,3.25,6.924,3.25s5.214-1.191,6.924-3.25l23.676-28.512l23.676,28.512
	c1.71,2.059,4.247,3.25,6.924,3.25s5.215-1.191,6.924-3.251l23.673-28.511l23.676,28.512c3.177,3.824,8.851,4.35,12.674,1.174
	s4.35-8.85,1.174-12.674l-25.825-31.1l25.724-30.977c0.531-0.615,0.967-1.289,1.306-2.001c0.585-1.228,0.873-2.552,0.872-3.871
	c0.001-1.323-0.288-2.651-0.878-3.882c-0.338-0.708-0.771-1.378-1.299-1.989l-25.725-30.978l25.825-31.099
	C305.528,166.237,305.001,160.563,301.178,157.387z M234.232,178.399l18.898,22.761l-18.898,22.761L215.33,201.16L234.232,178.399z
	 M173.033,178.399l18.901,22.761l-18.901,22.761l-18.9-22.761L173.033,178.399z M123.534,238.008l18.899-22.761l18.9,22.761
	l-18.9,22.761L123.534,238.008z M173.033,297.619l-18.9-22.762l18.9-22.761l18.901,22.761L173.033,297.619z M184.731,238.008
	l18.901-22.761l18.901,22.761l-18.901,22.761L184.731,238.008z M234.232,297.619l-18.901-22.762l18.901-22.761l18.898,22.761
	L234.232,297.619z M283.73,238.008l-18.901,22.761l-18.898-22.761l18.898-22.761L283.73,238.008z M373.938,164.991
	c-15.273,0-27.699-12.426-27.699-27.698V27.608c0-15.223-12.385-27.607-27.607-27.607h-18.486c-0.075,0-0.15,0-0.226,0h-41.235
	c-0.236-0.008-2.925,0.228-4.31,1.03c-1.459,0.846-3.105,2.687-3.234,2.875l-47.508,67.229L156.123,3.907
	c-0.131-0.19-2.286-2.233-3.307-2.913c-1.495-0.996-4.003-0.998-4.236-0.993h-41.234c-0.074,0-0.148,0-0.225,0H88.633
	c-15.223,0-27.607,12.385-27.607,27.607v109.685c0,15.272-12.424,27.698-27.695,27.698c-4.971,0-9,4.029-9,9v176.757
	c0,1.451,0.351,2.88,1.022,4.166l6.011,11.512c0.056,0.11,0.112,0.221,0.172,0.328l18.633,35.681
	c1.552,2.972,4.626,4.834,7.978,4.834h291.793c3.396,0,6.503-1.911,8.033-4.942l23.999-47.521c0.636-1.259,0.967-2.648,0.967-4.058
	V173.991C382.938,169.02,378.909,164.991,373.938,164.991z M144.042,18.001l52.24,73.923c1.687,2.387,4.427,3.806,7.35,3.806
	s5.663-1.419,7.35-3.806l52.238-73.923h19.424l-79.012,111.802l-79.01-111.802H144.042z M344.402,389.268H63.599l-9.314-17.838
	H353.41L344.402,389.268z M364.938,348.604l-2.438,4.826H44.884l-2.554-4.891V182.101c20.9-4.192,36.695-22.691,36.695-44.809
	V27.608c0-5.298,4.31-9.607,9.607-9.607h13.948l93.701,132.591c1.687,2.387,4.427,3.806,7.35,3.806s5.663-1.419,7.35-3.806
	l93.703-132.591h13.946c5.298,0,9.607,4.31,9.607,9.607v109.685c0,22.119,15.795,40.618,36.699,44.809V348.604z"/>
<g>
</g>
<g>
</g>
<g>
</g>
<g>
</g>
<g>
</g>
<g>
</g>
<g>
</g>
<g>
</g>
<g>
</g>
<g>
</g>
<g>
</g>
<g>
</g>
<g>
</g>
<g>
</g>
<g>
</g>
</svg>
