<?xml version="1.0" encoding="iso-8859-1"?>
<!-- Generator: Adobe Illustrator 19.0.0, SVG Export Plug-In . SVG Version: 6.00 Build 0)  -->
<svg version="1.1" id="Capa_1" xmlns="http://www.w3.org/2000/svg" xmlns:xlink="http://www.w3.org/1999/xlink" x="0px" y="0px"
	 viewBox="0 0 407.272 407.272" style="enable-background:new 0 0 407.272 407.272;" xml:space="preserve">
<path id="XMLID_49_" d="M277.407,230.753c3.265,3.748,2.874,9.433-0.875,12.698c-18.881,16.449-45.451,25.882-72.897,25.882
	c-27.446,0-54.015-9.434-72.896-25.882c-3.748-3.265-4.139-8.951-0.874-12.698c3.266-3.747,8.949-4.139,12.698-0.874
	c15.65,13.635,37.91,21.455,61.071,21.455c23.162,0,45.422-7.82,61.074-21.455C268.457,226.614,274.142,227.005,277.407,230.753z
	 M407.129,332.998c-0.001,0.005-0.002,0.011-0.003,0.017c0,0.002-0.001,0.005-0.001,0.008c-0.007,0.04-0.015,0.079-0.022,0.118
	l-9.501,48.65c-0.825,4.226-4.527,7.275-8.833,7.275H18.508c-4.305,0-8.008-3.049-8.833-7.274l-9.506-48.658
	c0-0.002-0.001-0.005-0.001-0.008c-0.001-0.004-0.002-0.008-0.002-0.013c-0.001-0.006-0.002-0.011-0.003-0.017
	c0-0.003-0.001-0.007-0.002-0.01c-0.001-0.008-0.003-0.016-0.004-0.023c0-0.001,0-0.002,0-0.003
	c-0.241-1.29-0.194-2.566,0.097-3.765l31.856-145.784c0.903-4.133,4.563-7.079,8.792-7.079h4.343
	c15.838,0,28.723-12.885,28.723-28.722V27.206c0-4.971,4.029-9,9-9h47.681c4.971,0,9,4.029,9,9v1.799
	c19.96,2.798,41.912,4.268,63.989,4.268c22.078,0,44.028-1.469,63.988-4.268v-1.8c0-4.971,4.029-9,9-9h49.687c4.971,0,9,4.029,9,9
	v120.505c0,15.836,12.884,28.721,28.721,28.721h2.343c4.23,0,7.89,2.946,8.792,7.079l31.854,145.782
	C407.307,330.472,407.357,331.729,407.129,332.998z M139.647,65.984c18.983,0.301,31.107,1.528,39.174,10.314
	c8.723,9.501,9.772,24.814,9.974,55.113v80.432c4.764,1.135,9.734,1.737,14.84,1.737c5.108,0,10.076-0.601,14.841-1.737V131.47
	c0.202-30.358,1.251-45.672,9.974-55.172c8.067-8.786,20.189-10.013,39.173-10.314V47.179c-20.187,2.719-41.661,4.094-63.988,4.094
	c-22.329,0-43.8-1.375-63.989-4.095V65.984z M241.71,88.471c-4.616,5.028-5.091,21.737-5.233,43.059v72.962
	c18.645-11.195,31.146-31.614,31.146-54.9V83.985C254.021,84.201,245,84.887,241.71,88.471z M139.647,149.593
	c0,23.286,12.503,43.706,31.148,54.9V131.47c-0.142-21.262-0.617-37.971-5.233-42.999c-3.291-3.584-12.312-4.27-25.915-4.486
	V149.593z M20.181,322.408h366.911l-28.021-128.237c-23.44-2.484-41.761-22.372-41.761-46.459V36.206h-31.687v113.387
	c0,45.208-36.78,81.987-81.988,81.987c-45.208,0-81.989-36.779-81.989-81.987V36.912c-0.002-0.1-0.002-0.201,0-0.302v-0.405H91.966
	V147.71c0,24.781-19.393,45.119-43.8,46.632L20.181,322.408z M387.343,340.408H19.93l5.99,30.658h355.436L387.343,340.408z"/>
<g>
</g>
<g>
</g>
<g>
</g>
<g>
</g>
<g>
</g>
<g>
</g>
<g>
</g>
<g>
</g>
<g>
</g>
<g>
</g>
<g>
</g>
<g>
</g>
<g>
</g>
<g>
</g>
<g>
</g>
</svg>
