<?xml version="1.0" encoding="iso-8859-1"?>
<!-- Generator: Adobe Illustrator 19.0.0, SVG Export Plug-In . SVG Version: 6.00 Build 0)  -->
<svg version="1.1" id="Capa_1" xmlns="http://www.w3.org/2000/svg" xmlns:xlink="http://www.w3.org/1999/xlink" x="0px" y="0px"
	 viewBox="0 0 407.268 407.268" style="enable-background:new 0 0 407.268 407.268;" xml:space="preserve">
<path id="XMLID_8_" d="M150.675,242.173L90.758,357.727c-1.602,3.089-4.743,4.859-7.998,4.859c-1.396,0-2.811-0.325-4.135-1.012
	c-4.413-2.288-6.135-7.721-3.848-12.133l59.917-115.554c2.287-4.412,7.718-6.136,12.133-3.848
	C151.24,232.328,152.962,237.761,150.675,242.173z M178.173,229.375c-4.774-1.362-9.759,1.409-11.121,6.189l-22.134,77.688
	c-1.362,4.78,1.409,9.76,6.189,11.121c0.824,0.235,1.654,0.347,2.471,0.347c3.919,0,7.523-2.58,8.65-6.536l22.134-77.688
	C185.725,235.716,182.953,230.736,178.173,229.375z M203.633,229.028c-4.971,0-9,4.029-9,9v116.535c0,4.971,4.029,9,9,9s9-4.029,9-9
	V238.028C212.633,233.058,208.604,229.028,203.633,229.028z M260.438,230.04c-4.413,2.288-6.135,7.721-3.848,12.133l59.918,115.554
	c1.602,3.089,4.743,4.859,7.998,4.859c1.395,0,2.812-0.325,4.135-1.012c4.413-2.288,6.136-7.721,3.847-12.133l-59.918-115.554
	C270.284,229.476,264.851,227.752,260.438,230.04z M401.207,402.942c-1.633,2.686-4.548,4.325-7.69,4.325H13.751
	c-3.143,0-6.058-1.64-7.69-4.325s-1.746-6.027-0.3-8.817l100.704-194.21l17.994-46.065L112.084,58.82
	c-0.617-6.52,4.8-10.562,8.925-10.162h9.637c8.452,0,15.328-6.877,15.328-15.329V9c0-4.971,4.029-9,9-9h22.32
	c3.953,0,7.443,2.579,8.604,6.358l17.735,57.754l17.735-57.754c1.16-3.779,4.65-6.358,8.604-6.358h22.32c4.971,0,9,4.029,9,9v24.329
	c0,8.452,6.876,15.329,15.328,15.329h9.639c8.25-0.274,9.259,7.595,8.925,10.162l-12.375,95.029l17.996,46.065l100.702,194.21
	C402.953,396.915,402.84,400.257,401.207,402.942z M131.256,66.652l10.33,79.323h124.096l10.33-79.323
	c-18.098-0.325-32.72-15.148-32.72-33.323V18h-6.669l-24.387,79.413c-1.16,3.779-4.65,6.358-8.604,6.358s-7.443-2.579-8.604-6.358
	L170.643,18h-6.669v15.329C163.974,51.503,149.353,66.325,131.256,66.652z M127.853,194.634h151.563l-11.977-30.658H139.828
	L127.853,194.634z M378.712,389.268l-91.589-176.634H120.146L28.556,389.268H378.712z M240.212,235.564
	c-1.362-4.779-6.341-7.554-11.121-6.189c-4.78,1.361-7.552,6.341-6.189,11.121l22.132,77.688c1.127,3.956,4.731,6.536,8.65,6.536
	c0.816,0,1.646-0.111,2.471-0.347c4.78-1.361,7.552-6.341,6.189-11.121L240.212,235.564z"/>
<g>
</g>
<g>
</g>
<g>
</g>
<g>
</g>
<g>
</g>
<g>
</g>
<g>
</g>
<g>
</g>
<g>
</g>
<g>
</g>
<g>
</g>
<g>
</g>
<g>
</g>
<g>
</g>
<g>
</g>
</svg>
