<?xml version="1.0" encoding="iso-8859-1"?>
<!-- Generator: Adobe Illustrator 19.0.0, SVG Export Plug-In . SVG Version: 6.00 Build 0)  -->
<svg version="1.1" id="Capa_1" xmlns="http://www.w3.org/2000/svg" xmlns:xlink="http://www.w3.org/1999/xlink" x="0px" y="0px"
	 viewBox="0 0 415.264 415.264" style="enable-background:new 0 0 415.264 415.264;" xml:space="preserve">
<path id="XMLID_797_" d="M343.927,337.195c-31.264-38.998-70.172-87.533-77.957-165.06c-1.911-19.007,2.056-31.758,5.893-44.089
	c5.382-17.298,10.946-35.185-1.565-64.731c-0.125-0.295-2.853-6.871-8.754-6.661h-5.188V9c0-4.971-4.029-9-9-9s-9,4.029-9,9v47.654
	h-7.232c-4.771,0-8.712,3.722-8.985,8.484l-1.224,21.311c-0.344,6.019-5.966,11.514-12.299,12.039c-0.056,0.004-1.904,0.004-1.96,0
	c-6.335-0.523-11.961-6.02-12.306-12.041l-1.224-21.309c-0.273-4.763-4.215-8.484-8.985-8.484h-7.23V9c0-4.971-4.029-9-9-9
	s-9,4.029-9,9v47.654c0,0-6.246,0.047-6.758,0.138c-3.093,0.547-5.724,2.686-6.855,5.697c-0.112,0.299-0.23,0.598-0.334,0.847
	c-12.5,29.517-6.936,47.398-1.554,64.691c3.836,12.327,7.803,25.074,5.901,44.076c-7.769,77.6-46.692,126.12-77.968,165.106
	c-21.06,26.252-37.694,46.987-37.694,69.054c0,2.387,0.948,4.676,2.636,6.364c1.688,1.688,3.978,2.636,6.364,2.636h329.969
	c4.971,0,9-4.029,9-9C381.616,384.21,364.984,363.463,343.927,337.195z M300.879,397.264c-33.631-16.029-56.24-38.384-69.082-68.287
	c-1.961-4.567-7.256-6.678-11.82-4.718c-4.567,1.961-6.681,7.254-4.719,11.82c10.68,24.871,27.129,45.087,49.894,61.185H150.075
	c26.882-19.043,45.07-43.919,55.239-75.358c11.803-36.489,11.585-77.424,11.374-117.011c-0.028-5.296-0.057-10.589-0.057-15.867
	c0-4.971-4.029-9-9-9s-9,4.029-9,9c0,5.311,0.028,10.636,0.057,15.964c0.415,78.001,0.804,151.709-84.3,192.272H53.096
	c4.172-13.744,16.912-29.625,32.286-48.79c31.035-38.687,73.538-91.669,81.838-174.577c2.267-22.646-2.457-37.825-6.624-51.218
	c-4.703-15.111-8.48-27.25-0.769-48.024h15.814l0.736,12.824c0.794,13.845,11.608,25.696,25.293,28.454
	c4.503,0.907,11.459,0.132,13.019-0.24c13.165-3.143,23.424-14.741,24.194-28.214l0.736-12.824h15.822
	c7.717,20.771,3.938,32.92-0.768,48.046c-4.168,13.397-8.893,28.582-6.615,51.235c8.318,82.828,50.803,135.823,81.823,174.519
	c15.373,19.177,28.111,35.067,32.285,48.81H300.879z M237.938,124.977c3.165,3.832,2.624,9.505-1.209,12.67
	c-7.724,6.379-18.058,9.892-29.098,9.892c-11.039,0-21.372-3.513-29.096-9.892c-3.833-3.165-4.374-8.838-1.209-12.67
	c3.164-3.835,8.84-4.375,12.67-1.209c4.441,3.667,10.868,5.771,17.635,5.771c6.768,0,13.195-2.104,17.637-5.771
	C229.1,120.601,234.775,121.144,237.938,124.977z"/>
<g>
</g>
<g>
</g>
<g>
</g>
<g>
</g>
<g>
</g>
<g>
</g>
<g>
</g>
<g>
</g>
<g>
</g>
<g>
</g>
<g>
</g>
<g>
</g>
<g>
</g>
<g>
</g>
<g>
</g>
</svg>
