<?xml version="1.0" encoding="iso-8859-1"?>
<!-- Generator: Adobe Illustrator 19.0.0, SVG Export Plug-In . SVG Version: 6.00 Build 0)  -->
<svg version="1.1" id="Capa_1" xmlns="http://www.w3.org/2000/svg" xmlns:xlink="http://www.w3.org/1999/xlink" x="0px" y="0px"
	 viewBox="0 0 408.408 408.408" style="enable-background:new 0 0 408.408 408.408;" xml:space="preserve">
<path id="XMLID_175_" d="M237.458,186.894c0-4.971-4.029-9-9-9h-49.971c-4.971,0-9,4.029-9,9v29.805
	c0,3.103,1.598,5.987,4.229,7.632l24.984,15.617c1.459,0.912,3.115,1.368,4.771,1.368c1.655,0,3.311-0.456,4.77-1.368l24.987-15.617
	c2.631-1.645,4.23-4.528,4.23-7.632V186.894z M219.458,211.71l-15.987,9.992l-15.984-9.992v-15.816h31.971V211.71z M306.337,356.526
	h-0.04v-61.508c0.001-0.076,0.001-0.151,0-0.228V126c0-0.104,0-0.207-0.003-0.311c-0.033-1.163-0.286-2.272-0.72-3.285
	c-0.534-1.252-1.361-2.4-2.472-3.338L271.23,92.169V9c0-4.971-4.029-9-9-9H230.03c-4.971,0-9,4.029-9,9v122.097
	c0,9.682-7.877,17.558-17.559,17.558c-9.681,0-17.556-7.876-17.556-17.558V9c0-4.971-4.029-9-9-9h-32.202c-4.971,0-9,4.029-9,9
	v85.766l-26.524,22.386c-6.61,5.365-7.078,6.908-7.078,11.219v166.417c-0.001,0.077-0.001,0.155,0,0.233v61.505h-0.04
	c-4.971,0-9,4.029-9,9v33.882c0,4.971,4.029,9,9,9h85.073c4.971,0,9-4.029,9-9v-120.24h16.121v120.24c0,4.971,4.029,9,9,9h85.072
	c4.971,0,9-4.029,9-9v-33.882C315.337,360.556,311.308,356.526,306.337,356.526z M178.144,390.408h-67.073v-15.882h67.073V390.408z
	 M178.383,261.168c-4.971,0-9,4.029-9,9c0,4.891,3.901,8.87,8.761,8.997v77.361h-58.033v-57.108
	c17.186-13.548,28.969-33.763,32.594-56.18c0.793-4.906-2.541-9.527-7.448-10.321c-4.903-0.782-9.527,2.542-10.321,7.448
	c-2.03,12.556-7.222,24.229-14.825,33.795V131.487l15.602-13.168v7.626c0,4.971,4.029,9,9,9s9-4.029,9-9V98.993
	c0-0.034,0-0.067,0-0.102V18h14.202v113.097c0,19.606,15.951,35.558,35.556,35.558c19.607,0,35.559-15.951,35.559-35.558V18h14.201
	v107.945c0,4.971,4.029,9,9,9s9-4.029,9-9v-10.224l17.067,14.404v144.035c-7.602-9.567-12.793-21.238-14.825-33.797
	c-0.793-4.905-5.412-8.233-10.321-7.447c-4.907,0.794-8.241,5.415-7.447,10.322c3.626,22.417,15.411,42.634,32.594,56.179v57.108
	h-58.032v-77.361c4.861-0.126,8.763-4.106,8.763-8.997c0-4.971-4.029-9-9-9H178.383z M230.265,390.408v-15.882h67.032l0.04,15.882
	H230.265z"/>
<g>
</g>
<g>
</g>
<g>
</g>
<g>
</g>
<g>
</g>
<g>
</g>
<g>
</g>
<g>
</g>
<g>
</g>
<g>
</g>
<g>
</g>
<g>
</g>
<g>
</g>
<g>
</g>
<g>
</g>
</svg>
