<?xml version="1.0" encoding="iso-8859-1"?>
<!-- Generator: Adobe Illustrator 19.0.0, SVG Export Plug-In . SVG Version: 6.00 Build 0)  -->
<svg version="1.1" id="Capa_1" xmlns="http://www.w3.org/2000/svg" xmlns:xlink="http://www.w3.org/1999/xlink" x="0px" y="0px"
	 viewBox="0 0 407.268 407.268" style="enable-background:new 0 0 407.268 407.268;" xml:space="preserve">
<path id="XMLID_478_" d="M144.627,369.871v-29.258c0-4.971,4.029-9,9-9s9,4.029,9,9v29.258c0,4.971-4.029,9-9,9
	S144.627,374.842,144.627,369.871z M122.882,331.613c-4.971,0-9,4.029-9,9v29.258c0,4.971,4.029,9,9,9s9-4.029,9-9v-29.258
	C131.882,335.643,127.853,331.613,122.882,331.613z M184.372,340.979c-4.971,0-9,4.029-9,9v39.289H70.392v-54.491
	c0-3.492-2.021-6.669-5.183-8.15c-6.983-3.271-13.449-10.755-19.218-22.247c-16.68-33.235-16.68-53.167-16.68-89.353V111.691
	c0-6.361,5.178-11.537,11.542-11.537c6.36,0,11.534,5.175,11.534,11.537v82.152c0,4.971,4.029,9,9,9s9-4.029,9-9V60.078
	c0-6.361,5.178-11.537,11.542-11.537c6.36,0,11.534,5.176,11.534,11.537c0,0.001,0,0.001,0,0.002v86c0,4.971,4.029,9,9,9
	s9-4.029,9-9V29.537c0-6.361,5.178-11.537,11.542-11.537c6.362,0,11.538,5.175,11.538,11.537v52.558c0,4.971,4.029,9,9,9
	s9-4.029,9-9V60.08c0-0.001,0-0.001,0-0.002c0-6.361,5.174-11.537,11.537-11.537c6.362,0,11.538,5.176,11.538,11.537v22.016
	c0,4.971,4.029,9,9,9s9-4.029,9-9V60.078c0-16.287-13.251-29.537-29.542-29.537c-4.09,0-7.988,0.835-11.533,2.345v-3.35
	C152.544,13.25,139.292,0,123.004,0s-29.54,13.25-29.54,29.537v3.351c-3.546-1.51-7.445-2.346-11.536-2.346
	c-16.288,0-29.54,13.25-29.54,29.537V84.5c-3.546-1.51-7.445-2.346-11.536-2.346c-16.288,0-29.54,13.25-29.54,29.537v103.335
	c0,36.36,0,60.381,18.592,97.428c6.473,12.894,13.868,21.979,22.488,27.587v58.226c0,4.971,4.029,9,9,9h122.98c4.971,0,9-4.029,9-9
	v-48.289C193.372,345.008,189.343,340.979,184.372,340.979z M83.135,340.613v29.258c0,4.971,4.029,9,9,9s9-4.029,9-9v-29.258
	c0-4.971-4.029-9-9-9S83.135,335.643,83.135,340.613z M253.643,331.613c-4.971,0-9,4.029-9,9v29.258c0,4.971,4.029,9,9,9
	s9-4.029,9-9v-29.258C262.643,335.643,258.613,331.613,253.643,331.613z M395.956,111.691v103.335c0,36.36,0,60.381-18.592,97.427
	c-6.47,12.893-13.864,21.978-22.486,27.587v58.227c0,4.971-4.029,9-9,9H222.896c-4.971,0-9-4.029-9-9v-58.235
	c-11.34-7.396-20.652-20.884-28.352-41.008c-8.829-23.083-19.238-66.898-28.422-105.555c-2.471-10.398-4.804-20.219-6.964-29.028
	c-0.098-0.397-0.168-0.801-0.21-1.208l-2.873-27.521c-0.814-7.775,1.493-15.423,6.495-21.533c5.06-6.179,12.205-9.995,20.12-10.743
	c16.211-1.532,30.655,10.411,32.188,26.626l2.507,26.509l5.263,20.547V60.078c0-16.287,13.252-29.537,29.54-29.537
	c4.092,0,7.992,0.836,11.539,2.347v-3.352C254.728,13.25,267.978,0,284.264,0c16.287,0,29.538,13.25,29.538,29.537v3.351
	c3.546-1.51,7.445-2.346,11.536-2.346c16.288,0,29.54,13.25,29.54,29.537V84.5c3.546-1.51,7.445-2.346,11.536-2.346
	C382.703,82.154,395.956,95.404,395.956,111.691z M231.648,70.472h23.079V60.08c0-0.001,0-0.001,0-0.002
	c0-6.361-5.177-11.537-11.539-11.537c-6.363,0-11.54,5.176-11.54,11.537V70.472z M166.12,144.784l22.787-2.996l-0.948-10.031
	c-0.564-5.966-5.603-10.452-11.479-10.452c-0.361,0-0.727,0.017-1.095,0.052c-3.094,0.293-5.896,1.794-7.888,4.227
	c-1.935,2.363-2.829,5.295-2.52,8.257L166.12,144.784z M377.956,111.691c0-6.361-5.178-11.537-11.542-11.537
	c-6.361,0-11.536,5.175-11.536,11.537v82.152c0,4.971-4.029,9-9,9s-9-4.029-9-9V60.078c0-6.361-5.177-11.537-11.54-11.537
	c-6.361,0-11.536,5.176-11.536,11.537c0,0.001,0,0.001,0,0.002v86c0,4.971-4.029,9-9,9s-9-4.029-9-9V29.537
	c0-6.361-5.176-11.537-11.538-11.537c-6.361,0-11.536,5.175-11.536,11.537V146.08c0,4.971-4.029,9-9,9s-9-4.029-9-9V88.472h-23.079
	v105.372c0,4.971-4.029,9-9,9h-14.007c-4.11,0-7.698-2.785-8.719-6.767l-9.149-35.723c-0.054-0.211-0.101-0.424-0.139-0.638
	l-22.383,2.943c2.001,8.208,4.135,17.191,6.383,26.65c9.055,38.114,19.317,81.314,27.721,103.284
	c6.996,18.285,15.191,29.735,24.359,34.032c3.161,1.481,5.181,4.658,5.181,8.149v54.494h104.982v-54.491
	c0-3.492,2.021-6.669,5.183-8.15c6.984-3.271,13.45-10.756,19.216-22.247c16.68-33.235,16.68-53.168,16.68-89.354V111.691z
	 M315.133,331.613c-4.971,0-9,4.029-9,9v29.258c0,4.971,4.029,9,9,9s9-4.029,9-9v-29.258
	C324.133,335.643,320.104,331.613,315.133,331.613z M284.386,331.613c-4.971,0-9,4.029-9,9v29.258c0,4.971,4.029,9,9,9s9-4.029,9-9
	v-29.258C293.386,335.643,289.356,331.613,284.386,331.613z"/>
<g>
</g>
<g>
</g>
<g>
</g>
<g>
</g>
<g>
</g>
<g>
</g>
<g>
</g>
<g>
</g>
<g>
</g>
<g>
</g>
<g>
</g>
<g>
</g>
<g>
</g>
<g>
</g>
<g>
</g>
</svg>
