<?xml version="1.0" encoding="iso-8859-1"?>
<!-- Generator: Adobe Illustrator 19.0.0, SVG Export Plug-In . SVG Version: 6.00 Build 0)  -->
<svg version="1.1" id="Capa_1" xmlns="http://www.w3.org/2000/svg" xmlns:xlink="http://www.w3.org/1999/xlink" x="0px" y="0px"
	 viewBox="0 0 405.461 405.461" style="enable-background:new 0 0 405.461 405.461;" xml:space="preserve">
<path id="XMLID_390_" d="M349.824,157.213L329.98,79.935c-0.015-0.058-0.029-0.114-0.045-0.171L319.18,41.057
	c-0.752-2.706-2.725-4.906-5.333-5.948c0,0-63.107-25.185-63.481-25.281c0.241-2.608-0.666-5.244-2.569-7.164
	c-2.508-2.53-6.273-3.343-9.602-2.073c-8.99,3.431-21.916,5.399-35.466,5.399c-13.553,0-26.48-1.967-35.467-5.398
	c-3.328-1.271-7.095-0.457-9.603,2.073c-1.903,1.92-2.811,4.555-2.569,7.164C154.716,9.925,91.61,35.11,91.61,35.11
	c-2.608,1.042-4.58,3.241-5.332,5.947L75.52,79.763c-0.017,0.058-0.031,0.115-0.047,0.172l-19.838,77.278
	c-0.229,0.89-0.319,1.81-0.269,2.728l2.498,45.835c0.26,4.773,4.206,8.51,8.986,8.51h27.696c4.762,0,8.699-3.709,8.984-8.462
	l2.679-44.776l17.275-46.542l7.6,24.755l-8.965,82.683c-0.275,2.541,0.542,5.079,2.249,6.981c0.456,0.507,0.963,0.957,1.511,1.343
	v166.193c0,4.971,4.029,9,9,9h43.694c4.69,0,8.595-3.602,8.971-8.277l9.883-122.708h10.6l9.883,122.708
	c0.376,4.675,4.28,8.277,8.971,8.277h43.696c4.971,0,9-4.029,9-9V230.266c0.547-0.386,1.054-0.835,1.509-1.342
	c1.707-1.902,2.524-4.44,2.249-6.981l-8.965-82.683l7.6-24.754l17.273,46.541l2.679,44.776c0.285,4.753,4.223,8.462,8.984,8.462
	h27.702c4.78,0,8.727-3.737,8.986-8.51l2.498-45.835C350.144,159.023,350.054,158.103,349.824,157.213z M202.728,23.991
	c8.371,0,16.462-0.649,23.869-1.884l-23.869,60.881l-23.871-60.88C186.266,23.342,194.355,23.991,202.728,23.991z M166.976,149.868
	h-18.934l1.139-10.508c0.132-1.215,0.015-2.443-0.344-3.612l-15.94-51.921c-1.132-3.688-4.488-6.244-8.345-6.354
	c-3.835-0.127-7.354,2.248-8.696,5.864L88.869,156.04c-0.31,0.833-0.493,1.708-0.547,2.594l-2.252,37.651H75.374l-1.958-35.94
	l19.472-75.852l9.539-34.323l58.228-23.263c0.219-0.087,0.433-0.183,0.64-0.285l32.435,82.722v104.568h-52.632l4.993-46.045h20.886
	c4.971,0,9-4.029,9-9S171.946,149.868,166.976,149.868z M261.578,387.461h-26.392l-9.883-122.708
	c-0.376-4.675-4.28-8.277-8.971-8.277h-27.209c-4.69,0-8.595,3.602-8.971,8.277l-9.883,122.708h-26.39V231.913h117.697V387.461z
	 M330.087,196.286h-10.702l-2.252-37.651c-0.054-0.887-0.237-1.761-0.547-2.594l-26.984-72.704c-1.342-3.617-4.851-5.98-8.696-5.864
	c-3.856,0.111-7.213,2.667-8.345,6.354l-15.94,51.921c-0.358,1.168-0.476,2.397-0.344,3.612l1.139,10.508h-18.934
	c-4.971,0-9,4.029-9,9s4.029,9,9,9h20.886l4.993,46.045h-52.632V109.346l32.433-82.722c0.207,0.102,0.421,0.197,0.64,0.285
	l58.229,23.263l9.539,34.325l19.477,75.85L330.087,196.286z"/>
<g>
</g>
<g>
</g>
<g>
</g>
<g>
</g>
<g>
</g>
<g>
</g>
<g>
</g>
<g>
</g>
<g>
</g>
<g>
</g>
<g>
</g>
<g>
</g>
<g>
</g>
<g>
</g>
<g>
</g>
</svg>
