<?xml version="1.0" encoding="iso-8859-1"?>
<!-- Generator: Adobe Illustrator 19.0.0, SVG Export Plug-In . SVG Version: 6.00 Build 0)  -->
<svg version="1.1" id="Capa_1" xmlns="http://www.w3.org/2000/svg" xmlns:xlink="http://www.w3.org/1999/xlink" x="0px" y="0px"
	 viewBox="0 0 417.634 417.634" style="enable-background:new 0 0 417.634 417.634;" xml:space="preserve">
<path id="XMLID_416_" d="M416.176,314.609l-47.614-73.133V194.1c0.009-0.421-0.196-2.123-0.305-2.532
	c-1.69-6.916-3.383-13.824-5.074-20.723c-1.583-6.46-3.165-12.911-4.739-19.352c-2.889-11.808-6.006-24.348-9.812-39.465
	c-2.315-9.19-7.068-16.286-13.383-19.979c-5.157-3.018-11.151-3.724-17.331-2.043c-10.177,2.767-20.384,5.975-30.254,9.076
	c-27.179,8.54-52.851,16.607-78.877,16.607c-26.021,0-51.68-8.063-78.847-16.599c-9.871-3.102-20.078-6.309-30.252-9.074
	c-6.176-1.681-12.163-0.976-17.316,2.036c-6.313,3.688-11.07,10.783-13.396,19.976c-3.873,15.295-7.001,27.839-9.846,39.475
	c-3.257,13.314-6.515,26.687-9.756,40.084c-0.109,0.413-0.309,2.101-0.3,2.51v47.38L1.458,314.609
	c-1.801,2.767-1.943,6.298-0.37,9.2c1.574,2.903,4.61,4.71,7.912,4.71h399.634c3.302,0,6.338-1.808,7.912-4.71
	C418.119,320.907,417.978,317.376,416.176,314.609z M76.615,155.778c2.833-11.588,5.95-24.086,9.811-39.334
	c1.083-4.281,3.009-7.672,5.026-8.851c0.633-0.369,1.603-0.727,3.514-0.208c9.835,2.673,19.872,5.827,29.578,8.876
	c27.266,8.568,55.461,17.427,84.243,17.427c28.789,0,56.996-8.863,84.273-17.435c9.707-3.05,19.743-6.204,29.581-8.879
	c1.911-0.519,2.886-0.16,3.52,0.21c2.019,1.181,3.941,4.568,5.017,8.838c3.795,15.076,6.904,27.579,9.782,39.346
	c1.575,6.443,3.157,12.898,4.742,19.361c0.798,3.254,1.596,6.511,2.394,9.77H69.515C71.878,175.171,74.246,165.459,76.615,155.778z
	 M67.073,202.9h283.489v32.248H67.073V202.9z M25.599,310.52l37.354-57.372h291.729l37.352,57.372H25.599z"/>
<g>
</g>
<g>
</g>
<g>
</g>
<g>
</g>
<g>
</g>
<g>
</g>
<g>
</g>
<g>
</g>
<g>
</g>
<g>
</g>
<g>
</g>
<g>
</g>
<g>
</g>
<g>
</g>
<g>
</g>
</svg>
