<?xml version="1.0" encoding="iso-8859-1"?>
<!-- Generator: Adobe Illustrator 19.0.0, SVG Export Plug-In . SVG Version: 6.00 Build 0)  -->
<svg version="1.1" id="Capa_1" xmlns="http://www.w3.org/2000/svg" xmlns:xlink="http://www.w3.org/1999/xlink" x="0px" y="0px"
	 viewBox="0 0 407.268 407.268" style="enable-background:new 0 0 407.268 407.268;" xml:space="preserve">
<path id="XMLID_92_" d="M334.441,364.104l-9.54,36.442c-1.037,3.959-4.614,6.721-8.707,6.721H91.074c-4.093,0-7.67-2.761-8.707-6.72
	l-9.542-36.442c-1.259-4.809,1.618-9.727,6.427-10.986c4.809-1.259,9.727,1.618,10.986,6.427l7.782,29.722h211.225l7.78-29.722
	c1.26-4.809,6.176-7.688,10.986-6.427C332.822,354.377,335.699,359.296,334.441,364.104z M111.301,352.536
	c-3.683,3.338-3.961,9.03-0.623,12.712c1.776,1.959,4.218,2.955,6.67,2.955c2.156,0,4.319-0.77,6.042-2.333
	c46.76-42.394,46.475-105.509,46.2-166.546c-0.021-4.668-0.042-9.333-0.042-13.986c0-4.971-4.029-9-9-9s-9,4.029-9,9
	c0,4.68,0.021,9.372,0.042,14.067C151.86,259.125,152.115,315.532,111.301,352.536z M255.722,185.338c0-4.971-4.029-9-9-9
	s-9,4.029-9,9c0,4.653-0.021,9.319-0.042,13.988c-0.275,61.037-0.561,124.151,46.197,166.544c1.723,1.563,3.886,2.333,6.042,2.333
	c2.452,0,4.895-0.996,6.671-2.955c3.338-3.682,3.06-9.374-0.623-12.712c-40.812-37.003-40.557-93.41-40.287-153.128
	C255.7,194.712,255.722,190.019,255.722,185.338z M393.661,296.948c-1.192,1.343-2.465,2.589-3.807,3.735v30.192
	c0,4.971-4.029,9-9,9h-57.913c-4.971,0-9-4.029-9-9V302.84c-2.43-1.63-4.708-3.526-6.799-5.672
	c-8.029-8.246-12.282-19.155-11.975-30.718l4.522-170.658c0.132-4.968,4.223-8.896,9.235-8.759c4.969,0.132,8.891,4.267,8.759,9.235
	l-4.522,170.659c-0.178,6.667,2.265,12.946,6.877,17.683c4.609,4.733,10.816,7.34,17.479,7.34h26.49
	c6.46,0,12.211-2.47,16.193-6.955c4.041-4.55,5.835-10.674,5.054-17.243l-19.188-161.301c-4.8-40.355-15.643-65.801-33.146-77.792
	C317.36,18,296.65,18,276.621,18h-25.643v70.633c0,28.597-14.567,55.464-38.344,71.33v199.24c0,4.971-4.029,9-9,9s-9-4.029-9-9
	v-199.24c-23.778-15.865-38.346-42.733-38.346-71.33V18h-25.641c-20.028,0-40.738,0-56.301,10.661
	c-17.503,11.991-28.346,37.437-33.146,77.792l-19.188,161.3c-0.781,6.569,1.014,12.693,5.055,17.244
	c3.983,4.485,9.734,6.955,16.194,6.955h26.491c13.459,0,23.93-10.973,24.355-25.524L99.09,95.768
	c0.145-4.969,4.287-8.914,9.259-8.733c4.968,0.145,8.878,4.29,8.733,9.259l-4.981,170.659c-0.438,14.964-7.768,27.915-18.774,35.589
	v28.334c0,4.971-4.029,9-9,9H26.413c-4.971,0-9-4.029-9-9v-30.194c-1.342-1.145-2.612-2.391-3.804-3.732
	c-7.504-8.45-10.868-19.573-9.47-31.322l19.188-161.3c5.525-46.447,18.504-75.209,40.847-90.515C84.335,0,108.94,0,130.648,0h34.583
	c0.043,0,0.086,0,0.129,0c2.341,0.003,4.585,0.918,6.259,2.545c8.272,6.558,19.89,10.306,32.017,10.306
	c12.125,0,23.741-3.748,32.011-10.304c1.675-1.628,3.92-2.544,6.263-2.547c0.041,0,0.085,0,0.129,0h34.584
	c21.708,0,46.313,0,66.474,13.812c22.342,15.306,35.321,44.068,40.847,90.515l19.187,161.3
	C404.527,277.374,401.164,288.498,393.661,296.948z M35.413,321.875h39.913v-12.298c-1.823,0.247-3.683,0.374-5.573,0.374H43.262
	c-2.685,0-5.309-0.244-7.849-0.722V321.875z M232.979,24.924c-8.88,3.873-18.894,5.927-29.344,5.927
	c-10.451,0-20.465-2.055-29.346-5.928v63.71c0,22.183,11.121,43.059,29.346,55.684c18.224-12.625,29.344-33.5,29.344-55.684V24.924z
	 M371.855,309.229c-2.539,0.478-5.163,0.722-7.847,0.722h-26.49c-1.882,0-3.744-0.121-5.576-0.357v12.282h39.913V309.229z"/>
<g>
</g>
<g>
</g>
<g>
</g>
<g>
</g>
<g>
</g>
<g>
</g>
<g>
</g>
<g>
</g>
<g>
</g>
<g>
</g>
<g>
</g>
<g>
</g>
<g>
</g>
<g>
</g>
<g>
</g>
</svg>
