<?xml version="1.0" encoding="iso-8859-1"?>
<!-- Generator: Adobe Illustrator 19.0.0, SVG Export Plug-In . SVG Version: 6.00 Build 0)  -->
<svg version="1.1" id="Capa_1" xmlns="http://www.w3.org/2000/svg" xmlns:xlink="http://www.w3.org/1999/xlink" x="0px" y="0px"
	 viewBox="0 0 407.268 407.268" style="enable-background:new 0 0 407.268 407.268;" xml:space="preserve">
<path id="XMLID_280_" d="M287.17,44.453V9c0-4.971-4.029-9-9-9H129.097c-4.971,0-9,4.029-9,9v35.454
	c-13.102,37.11-18.756,83.773-15.93,131.685l13.136,222.659c0.281,4.756,4.22,8.47,8.984,8.47h154.692
	c4.765,0,8.704-3.714,8.984-8.47L303.1,176.139C305.927,128.229,300.272,81.564,287.17,44.453z M138.097,18H269.17v18.64h-36.671
	c-0.166-0.004-0.331-0.004-0.497,0h-93.905V18z M285.132,175.078l-12.637,214.189h-96.839V121.674c0-4.971-4.029-9-9-9s-9,4.029-9,9
	v267.594h-22.883l-12.637-214.189c-2.582-43.769,2.205-86.235,13.502-120.438h90.208c11.299,34.207,16.085,76.675,13.502,120.438
	l-7.249,122.88c-0.293,4.962,3.492,9.222,8.454,9.515c4.987,0.288,9.222-3.493,9.515-8.454l7.249-122.88
	c2.575-43.617-1.883-86.21-12.593-121.499h26.906C282.928,88.844,287.714,131.311,285.132,175.078z"/>
<g>
</g>
<g>
</g>
<g>
</g>
<g>
</g>
<g>
</g>
<g>
</g>
<g>
</g>
<g>
</g>
<g>
</g>
<g>
</g>
<g>
</g>
<g>
</g>
<g>
</g>
<g>
</g>
<g>
</g>
</svg>
