<?xml version="1.0" encoding="iso-8859-1"?>
<!-- Generator: Adobe Illustrator 19.0.0, SVG Export Plug-In . SVG Version: 6.00 Build 0)  -->
<svg version="1.1" id="Capa_1" xmlns="http://www.w3.org/2000/svg" xmlns:xlink="http://www.w3.org/1999/xlink" x="0px" y="0px"
	 viewBox="0 0 430.081 430.081" style="enable-background:new 0 0 430.081 430.081;" xml:space="preserve">
<path id="XMLID_186_" d="M405.982,217.679l-18.578-106.847c-4.233-24.346-21.156-40.703-42.112-40.703h-34.045
	c-0.954-9.31-3.985-18.254-8.923-26.274c0.549-1.955,1.631-4.967,2.349-6.964c3.491-9.72,6.25-17.396,0.528-22.808
	c-6.577-6.221-15.29-1.943-23.717,2.194c-0.776,0.381-1.717,0.843-2.685,1.303c-0.723-6.938-1.739-15.385-9.845-17.279
	c-7.058-1.659-12.2,3.818-17.648,9.606c-1.151,1.224-2.904,3.085-4.076,4.144h-61.454c-1.177-0.883-3.129-2.756-4.378-3.954
	c-5.199-4.988-11.096-10.645-18.525-8.492c-6.839,1.984-8.742,8.883-10.101,15.447c-7.588-5.493-17.345-11.727-25.268-4.841
	c-8.084,7.024-1.737,16.202,0.973,20.121c2.23,3.226,3.477,5.329,3.942,6.937c-1.457-0.183-2.997-0.406-4.179-0.577
	c-9.478-1.375-19.272-2.797-22.498,5.8c-2.745,7.32,2.955,12.139,11.585,19.432c1.513,1.278,3.711,3.137,5.248,4.555
	c-0.074,0.572-0.141,1.145-0.199,1.719c-0.361-0.045-37.589-0.067-37.589-0.067c-20.952,0-37.875,16.357-42.11,40.703
	L24.099,217.679c-0.139,0.797-0.169,1.607-0.091,2.412l11.381,117.182c0.448,4.611,4.324,8.13,8.958,8.13h37.658v75.679
	c0,4.971,4.029,9,9,9h107.195c4.971,0,9-4.029,9-9v-32.389c4.389-0.531,9.647-0.531,14.034,0v32.389c0,4.971,4.029,9,9,9H337.43
	c4.971,0,9-4.029,9-9v-75.679h39.306c4.634,0,8.51-3.519,8.958-8.13l11.379-117.182
	C406.151,219.286,406.121,218.475,405.982,217.679z M82.005,327.403h-29.49l-1.758-18.104h31.248V327.403z M189.201,412.081h-89.195
	V217.297l10.267-55.212c0.908-4.887-2.316-9.585-7.203-10.494c-4.888-0.909-9.585,2.317-10.494,7.203l-10.418,56.027
	c-0.101,0.543-0.151,1.094-0.151,1.646v74.832H49.009l-6.968-71.736l18.37-105.646c2.069-11.896,9.695-25.788,24.376-25.788
	c0,0,37.724-0.064,38.314-0.186c0.363,1.954,0.821,3.892,1.372,5.806c-1.07,1.741-2.99,4.386-4.26,6.133
	c-5.911,8.138-11.017,15.166-6.688,22.106c4.669,7.477,14.27,5.647,23.555,3.876c2.208-0.422,5.615-1.071,7.596-1.237
	c4.627,3.849,9.738,6.978,15.168,9.321v95.257c0,4.971,4.029,9,9,9s9-4.029,9-9V138.67c2.146,0.227,11.355,0.342,11.355,0.342
	V412.081z M189.201,121.012c0,0-11.264-0.354-14.362-1.044c-7.328-1.631-14.185-5.137-19.904-10.261
	c-4.496-4.029-10.785-3.432-18.09-2.112c4.525-6.359,7.403-11.351,5.535-16.877c-1.544-4.565-2.327-9.338-2.327-14.186
	c0-2.861,0.279-5.738,0.83-8.553c0.774-3.966-0.699-7.064-3.778-10.41c4.252-0.144,7.661-1.379,9.963-4.977
	c3.492-5.448,4.08-10.692,3.295-15.365c3.926,2.204,7.826,3.159,11.916,0.781c4.836-2.818,6.266-8.233,7.478-14.138
	c4.343,4.147,8.884,8.18,14.577,8.18h64.959c4.754,0,8.457-2.96,12.313-6.868c0.807,4.789,2.406,9.105,6.934,11.324
	c5.56,2.719,11.462,0.463,18.137-2.736c-2.602,7.421-4.051,13.022-0.821,17.759c5.05,7.412,7.719,16.058,7.719,25.003
	c0,4.851-0.783,9.622-2.331,14.191c-1.864,5.524,1.015,10.513,5.539,16.871c-7.302-1.319-13.592-1.916-18.092,2.112
	c-5.605,5.023-12.305,8.491-19.469,10.162c-3.234,0.754-19.985,1.143-19.985,1.143v-12.786h4.64
	c17.476,0,31.693-14.218,31.693-31.693c0-17.478-14.218-31.696-31.693-31.696h-54.124c-17.475,0-31.691,14.219-31.691,31.696
	c0,17.292,13.919,31.395,31.142,31.688V121.012z M221.235,99.226v271.366c-4.525-0.408-9.507-0.408-14.034,0V99.226
	c0-4.971-4.029-9-9-9h-8.45c-7.55,0-13.691-6.143-13.691-13.693c0-7.552,6.142-13.696,13.691-13.696h54.124
	c7.551,0,13.693,6.145,13.693,13.696c0,7.551-6.143,13.693-13.693,13.693h-13.64C225.264,90.226,221.235,94.255,221.235,99.226z
	 M377.568,327.403H346.43v-18.104h32.896L377.568,327.403z M381.074,291.299H346.43v-74.832c0-0.552-0.051-1.103-0.151-1.646
	l-10.418-56.027c-0.908-4.886-5.589-8.115-10.494-7.203c-4.887,0.909-8.111,5.607-7.203,10.494l10.267,55.211v194.785h-89.195
	V139.012h9.712v90.193c0,4.971,4.029,9,9,9s9-4.029,9-9c0,0-0.081-92.046-0.232-92.702c8.074-2.376,15.646-6.396,22.233-11.876
	c1.981,0.166,5.39,0.815,7.6,1.237c9.285,1.771,18.886,3.603,23.55-3.874c4.336-6.938-0.773-13.972-6.688-22.114
	c-1.269-1.745-3.188-4.387-4.257-6.127c0.533-1.854,0.979-3.729,1.338-5.62h34.802c14.685,0,22.31,13.892,24.378,25.787
	l18.37,105.646L381.074,291.299z M308.856,315.24h-50.515c-4.971,0-9,4.029-9,9v62.576c0,4.971,4.029,9,9,9h50.515
	c4.971,0,9-4.029,9-9V324.24C317.856,319.269,313.827,315.24,308.856,315.24z M299.856,377.816h-32.515V333.24h32.515V377.816z
	 M170.096,315.24H119.58c-4.971,0-9,4.029-9,9v62.576c0,4.971,4.029,9,9,9h50.517c4.971,0,9-4.029,9-9V324.24
	C179.096,319.269,175.067,315.24,170.096,315.24z M161.096,377.816H128.58V333.24h32.517V377.816z"/>
<g>
</g>
<g>
</g>
<g>
</g>
<g>
</g>
<g>
</g>
<g>
</g>
<g>
</g>
<g>
</g>
<g>
</g>
<g>
</g>
<g>
</g>
<g>
</g>
<g>
</g>
<g>
</g>
<g>
</g>
</svg>
