<?xml version="1.0" encoding="iso-8859-1"?>
<!-- Generator: Adobe Illustrator 19.0.0, SVG Export Plug-In . SVG Version: 6.00 Build 0)  -->
<svg version="1.1" id="Capa_1" xmlns="http://www.w3.org/2000/svg" xmlns:xlink="http://www.w3.org/1999/xlink" x="0px" y="0px"
	 viewBox="0 0 407.993 407.993" style="enable-background:new 0 0 407.993 407.993;" xml:space="preserve">
<path id="XMLID_56_" d="M237.168,291.259l-10.099,4.278l10.099,4.278c4.577,1.939,6.716,7.221,4.777,11.797
	c-1.453,3.431-4.786,5.492-8.291,5.492c-1.171,0-2.361-0.23-3.506-0.715l-26.152-11.078l-26.152,11.078
	c-4.578,1.938-9.858-0.2-11.797-4.777c-1.939-4.577,0.2-9.858,4.777-11.797l10.099-4.278l-10.099-4.278
	c-4.577-1.938-6.716-7.221-4.777-11.797c1.939-4.577,7.223-6.714,11.797-4.777l26.152,11.078l26.152-11.078
	c4.576-1.938,9.858,0.2,11.797,4.777C243.884,284.039,241.745,289.321,237.168,291.259z M241.945,171.476
	c-1.939-4.577-7.219-6.715-11.798-4.776l-26.151,11.078L177.844,166.7c-4.575-1.938-9.858,0.2-11.798,4.776
	c-1.939,4.577,0.2,9.859,4.776,11.798l10.1,4.278l-10.1,4.278c-4.577,1.939-6.715,7.221-4.776,11.798
	c1.939,4.577,7.219,6.716,11.798,4.776l26.151-11.078l26.151,11.078c1.146,0.485,2.336,0.715,3.507,0.715
	c3.505,0,6.837-2.061,8.291-5.492c1.939-4.577-0.2-9.859-4.776-11.798l-10.1-4.278l10.1-4.278
	C241.745,181.335,243.884,176.053,241.945,171.476z M241.945,225.469c-1.939-4.577-7.22-6.717-11.798-4.776l-26.151,11.078
	l-26.152-11.078c-4.575-1.937-9.858,0.2-11.797,4.776c-1.939,4.577,0.2,9.859,4.776,11.798l10.099,4.278l-10.099,4.278
	c-4.577,1.939-6.715,7.221-4.776,11.798c1.939,4.577,7.221,6.715,11.797,4.776l26.152-11.078l26.151,11.078
	c1.146,0.485,2.336,0.715,3.507,0.715c3.505,0,6.838-2.061,8.291-5.492c1.939-4.577-0.2-9.859-4.776-11.798l-10.099-4.278
	l10.099-4.278C241.745,235.328,243.884,230.046,241.945,225.469z M344.752,404.718c-1.709,2.074-4.257,3.275-6.944,3.275H70.186
	c-2.683,0-5.226-1.197-6.936-3.264c-1.709-2.067-2.408-4.79-1.904-7.425l18.751-98.145L63.651,155.362
	c-0.255-2.229-0.516-4.311-0.762-6.276c-2.08-16.603-3.454-27.572,8.789-47.819c5.714-9.454,13.358-17.427,22.235-23.526V24.205
	C93.913,10.858,104.772,0,118.12,0c13.347,0,24.206,10.858,24.206,24.205v40.203c16.945,1.174,33.02,8.024,45.738,19.587
	c6.501,5.91,11.867,12.808,15.934,20.373c4.067-7.564,9.432-14.462,15.933-20.373c12.719-11.563,28.795-18.414,45.74-19.587V24.205
	C265.67,10.858,276.528,0,289.875,0c13.347,0,24.205,10.858,24.205,24.205v53.542c8.832,6.067,16.442,13.988,22.147,23.377
	c12.298,20.24,10.967,31.268,8.904,47.896c0.001,0.73-0.609,4.976-0.777,6.459l-16.458,145.299l18.746,96.498
	C347.155,399.915,346.461,402.645,344.752,404.718z M283.67,65.327c4.234,0.733,8.384,1.824,12.411,3.249V24.205
	c0-3.421-2.784-6.205-6.205-6.205c-3.364,0-6.206,2.842-6.206,6.205V65.327z M111.913,68.572c4.025-1.423,8.18-2.514,12.413-3.247
	v-41.12c0-3.363-2.842-6.205-6.206-6.205c-3.365,0-6.207,2.842-6.207,6.205V68.572z M282.433,172.231
	c20.948-2.471,37.575-12.026,44.868-25.688c1.906-15.37,2.547-21.254-6.456-36.072c-10.586-17.422-29.723-28.245-49.943-28.245
	c-29.306,0-54.608,22.836-57.603,51.988c-0.471,4.59-4.338,8.081-8.953,8.081h-0.698c-4.614,0-8.481-3.49-8.953-8.081
	c-2.994-29.152-28.296-51.988-57.603-51.988c-20.276,0-39.439,10.864-50.01,28.353c0,0,0,0.001,0,0.001
	c-6.718,11.11-8.021,17.171-7.441,25.985c0.144,2.186,1.313,8.082,1.551,8.579c6.876,14.405,23.914,24.531,45.575,27.086
	c4.937,0.582,8.466,5.056,7.884,9.992s-5.062,8.464-9.992,7.884c-15.742-1.857-29.722-7.113-40.625-14.95l11.771,102.92
	c2.178-8.256,4.066-16.896,5.64-25.837c0.86-4.896,5.522-8.167,10.423-7.305c4.895,0.861,8.166,5.528,7.304,10.423
	c-5.431,30.871-14.508,58.576-26.25,80.123c-0.506,0.928-1.151,1.731-1.896,2.398l-9.957,52.113h245.823l-10.776-55.473
	c-11.494-21.412-20.383-48.752-25.732-79.162c-0.861-4.896,2.409-9.562,7.305-10.423c4.891-0.859,9.562,2.409,10.423,7.305
	c1.335,7.587,2.896,14.956,4.67,22.06l11.13-98.264c-10.713,7.352-24.226,12.284-39.37,14.07c-4.938,0.587-9.41-2.947-9.992-7.884
	C273.967,177.287,277.496,172.813,282.433,172.231z"/>
<g>
</g>
<g>
</g>
<g>
</g>
<g>
</g>
<g>
</g>
<g>
</g>
<g>
</g>
<g>
</g>
<g>
</g>
<g>
</g>
<g>
</g>
<g>
</g>
<g>
</g>
<g>
</g>
<g>
</g>
</svg>
