<?xml version="1.0" encoding="iso-8859-1"?>
<!-- Generator: Adobe Illustrator 19.0.0, SVG Export Plug-In . SVG Version: 6.00 Build 0)  -->
<svg version="1.1" id="Capa_1" xmlns="http://www.w3.org/2000/svg" xmlns:xlink="http://www.w3.org/1999/xlink" x="0px" y="0px"
	 viewBox="0 0 407.271 407.271" style="enable-background:new 0 0 407.271 407.271;" xml:space="preserve">
<path id="XMLID_205_" d="M54.715,325.944v1.99c0,4.971-4.029,9-9,9s-9-4.029-9-9v-1.99c0-4.971,4.029-9,9-9
	S54.715,320.974,54.715,325.944z M407.262,143.813l-9.503,221.412c-0.207,4.816-4.171,8.614-8.992,8.614h-52.805
	c-4.74,0-8.667-3.677-8.98-8.406l-13.792-208.517l-4.473-2.263l-8.242,90.695l9.461,152.361c0.154,2.479-0.724,4.911-2.425,6.722
	c-1.701,1.81-4.074,2.836-6.558,2.836h-76.618c-0.068,0.002-0.135,0.002-0.203,0.002c-0.463,0-0.923-0.035-1.375-0.105
	c-1.299-0.199-2.505-0.675-3.559-1.366c-1.092-0.713-2.037-1.668-2.746-2.83c-0.269-0.438-0.501-0.9-0.693-1.384l-12.123-28.667
	l-12.122,28.663c-0.198,0.5-0.44,0.979-0.721,1.43c-0.691,1.119-1.604,2.045-2.654,2.744c-1.072,0.718-2.307,1.21-3.638,1.412
	c-0.515,0.078-1.04,0.118-1.565,0.102h-76.618c-2.484,0-4.857-1.026-6.558-2.836c-1.701-1.811-2.579-4.243-2.425-6.722
	l9.463-152.361l-8.243-90.695l-4.474,2.263L80.291,365.433c-0.313,4.729-4.24,8.406-8.98,8.406H18.506
	c-4.82,0-8.785-3.798-8.992-8.614L0.009,143.813c-0.042-0.983,0.077-1.968,0.354-2.912l20.501-70.09
	c0.8-2.735,2.848-4.93,5.522-5.917l70.53-26.031l13.136-33.176C111.411,2.254,114.728,0,118.419,0h23.21
	c3.075,0,5.938,1.57,7.59,4.164l5.711,8.963c12.659,5.904,30.298,9.273,48.707,9.273s36.048-3.369,48.708-9.274l5.71-8.962
	C259.708,1.57,262.571,0,265.646,0h23.208c3.691,0,7.009,2.254,8.368,5.687l13.135,33.176l70.53,26.031
	c2.674,0.987,4.722,3.182,5.522,5.917l20.499,70.09C407.185,141.846,407.304,142.829,407.262,143.813z M212.638,108.941v31.469
	l17.238-8.623l63.404-87.164L282.738,18h-12.155L212.638,108.941z M194.638,160.537l-27.254-13.634
	c-1.289-0.645-2.404-1.589-3.252-2.755l-63.6-87.435L36.868,80.212l-18.812,64.314l9.071,211.313h35.758l13.574-205.23
	c0.21-3.174,2.08-6.001,4.917-7.437l20.878-10.563c2.661-1.348,5.815-1.286,8.424,0.157c2.608,1.445,4.332,4.089,4.602,7.059
	l9.505,104.58c0.042,0.456,0.048,0.915,0.02,1.372l-2.583,41.595h39.68c4.971,0,9,4.029,9,9s-4.029,9-9,9h-40.798l-5.21,83.896
	h61.283l17.459-41.281V160.537z M194.638,108.941L136.692,18h-12.157l-10.541,26.623l63.403,87.164l17.24,8.623V108.941z
	 M203.638,89.569l33.538-52.635c-10.378,2.271-21.75,3.466-33.538,3.466c-11.787,0-23.16-1.194-33.538-3.466L203.638,89.569z
	 M389.215,144.526l-18.81-64.314l-63.663-23.498l-63.6,87.435c-0.848,1.166-1.963,2.11-3.252,2.755l-27.252,13.633v187.451
	l17.458,41.28h61.283l-5.209-83.896h-47.02c-4.971,0-9-4.029-9-9s4.029-9,9-9h45.902l-2.583-41.595
	c-0.028-0.457-0.021-0.916,0.02-1.372l9.503-104.58c0.27-2.97,1.993-5.613,4.602-7.059c2.609-1.443,5.764-1.504,8.424-0.157
	l20.878,10.563c2.838,1.436,4.708,4.263,4.917,7.437l13.574,205.23h35.758L389.215,144.526z M361.596,316.944c-4.971,0-9,4.029-9,9
	v1.99c0,4.971,4.029,9,9,9s9-4.029,9-9v-1.99C370.596,320.974,366.566,316.944,361.596,316.944z"/>
<g>
</g>
<g>
</g>
<g>
</g>
<g>
</g>
<g>
</g>
<g>
</g>
<g>
</g>
<g>
</g>
<g>
</g>
<g>
</g>
<g>
</g>
<g>
</g>
<g>
</g>
<g>
</g>
<g>
</g>
</svg>
