<?xml version="1.0" encoding="iso-8859-1"?>
<!-- Generator: Adobe Illustrator 19.0.0, SVG Export Plug-In . SVG Version: 6.00 Build 0)  -->
<svg version="1.1" id="Capa_1" xmlns="http://www.w3.org/2000/svg" xmlns:xlink="http://www.w3.org/1999/xlink" x="0px" y="0px"
	 viewBox="0 0 408.432 408.432" style="enable-background:new 0 0 408.432 408.432;" xml:space="preserve">
<path id="XMLID_515_" d="M237.784,101.058c1.731,4.659-0.643,9.84-5.302,11.571c-1.033,0.384-2.092,0.566-3.134,0.566
	c-3.653,0-7.09-2.242-8.438-5.868l-16.694-44.921l-16.694,44.921c-1.347,3.626-4.784,5.868-8.437,5.868
	c-1.042,0-2.101-0.183-3.134-0.566c-4.659-1.731-7.033-6.912-5.301-11.571l20.62-55.486h-4.825c-4.971,0-9-4.029-9-9s4.029-9,9-9
	h35.54c4.971,0,9,4.029,9,9s-4.029,9-9,9h-4.823L237.784,101.058z M329.625,340.304l-0.526,5.61c1.17,1.591,4.244,5.793,4.244,5.793
	c1.274,1.742,1.881,3.884,1.709,6.034l-2.208,27.524c-1.022,12.773-12.259,23.166-25.048,23.166h-75.164
	c-13.176,0-23.896-10.715-23.896-23.885v-59.473c0-1.512,5.576-12.467,6.524-14.199c0.029-0.13,0.067-0.259,0.102-0.388
	c-1.188-32.118-2.156-57.14-3.124-80.818c-0.854-20.896-1.736-41.792-2.617-62.687l-0.706-16.776
	c-1.544-0.177-3.113-0.27-4.697-0.27c-1.585,0-3.155,0.093-4.7,0.27l-0.805,19.132c-0.847,20.109-1.694,40.22-2.516,60.33
	c-0.964,23.56-1.96,49.308-3.124,80.827c0.033,0.125,0.071,0.25,0.099,0.376c1.014,1.853,6.524,12.69,6.524,14.202v59.473
	c0,13.17-10.719,23.885-23.894,23.885h-75.164c-12.788,0-24.025-10.392-25.049-23.166l-2.207-27.526
	c-0.171-2.147,4.53-9.892,5.951-11.825l-0.522-5.563c-4.123-43.907-8.387-89.311-9.965-134.15
	c-1.529-43.594,0.269-90.633,5.496-143.806c0.013-0.131,0.029-0.261,0.047-0.392c1.341-9.389,8.33-17.461,17.108-20.89V9
	c0-4.971,4.029-9,9-9h207.437c4.971,0,9,4.029,9,9v32.114c8.778,3.429,15.766,11.5,17.106,20.889
	c0.019,0.13,0.035,0.261,0.048,0.392c5.228,53.164,7.025,100.203,5.493,143.806C338.009,251.024,333.747,296.411,329.625,340.304z
	 M316.842,359.638c-0.544-0.744-6.422-3.75-7.979-5.904l-18.593-25.737c-2.91-4.029-2.004-9.655,2.025-12.566
	c4.03-2.909,9.656-2.003,12.566,2.025l7.812,10.814c3.779-40.396,7.487-81.897,8.92-122.702
	c1.501-42.729-0.264-88.909-5.396-141.171c-0.616-3.642-4.651-7.042-8.403-7.042h-38.316c-4.971,0-9-4.029-9-9s4.029-9,9-9h29.456
	V18H109.498v21.354h29.456c4.971,0,9,4.029,9,9s-4.029,9-9,9h-38.316c-3.753,0-7.79,3.4-8.405,7.042
	c-5.13,52.271-6.896,98.45-5.396,141.172c1.436,40.804,5.144,82.303,8.922,122.701l7.812-10.814c2.91-4.03,8.537-4.934,12.566-2.025
	c4.029,2.911,4.936,8.537,2.025,12.566l-18.593,25.737c-1.556,2.154-7.433,5.16-7.976,5.902l1.939,24.193
	c0.282,3.517,3.603,6.603,7.106,6.603h75.164c3.195,0,5.894-2.695,5.894-5.885V373.79h-58.159c-4.971,0-9-4.029-9-9s4.029-9,9-9
	h58.159v-28.409l-1.263-2.303c-1.45-2.641-21.935-32.73-21.935-32.73c-2.91-4.029-2.003-9.654,2.026-12.565
	c4.029-2.91,9.656-2.003,12.566,2.026l2.892,4.004c0.796-21.077,1.521-39.573,2.229-56.88c0.823-20.117,1.67-40.234,2.518-60.351
	l0.459-10.927c-1.611,1.21-3.505,1.809-5.393,1.809c-2.592,0-5.165-1.114-6.944-3.269c-3.166-3.833-2.625-9.505,1.208-12.671
	c9.048-7.473,21.179-11.588,34.158-11.588c12.982,0,25.114,4.116,34.159,11.589c3.832,3.166,4.372,8.839,1.206,12.671
	c-3.078,3.724-8.516,4.326-12.338,1.454l0.361,8.574c0.881,20.902,1.763,41.805,2.617,62.708c0.714,17.459,1.428,35.663,2.23,56.878
	l2.892-4.003c2.91-4.029,8.536-4.936,12.566-2.025c4.029,2.911,4.936,8.537,2.025,12.566c0,0-20.357,29.853-21.741,32.374
	l-1.459,2.658v28.409h58.161c4.971,0,9,4.029,9,9s-4.029,9-9,9h-58.161v10.757c0,3.189,2.7,5.885,5.896,5.885h75.164
	c3.504,0,6.823-3.085,7.104-6.603L316.842,359.638z"/>
<g>
</g>
<g>
</g>
<g>
</g>
<g>
</g>
<g>
</g>
<g>
</g>
<g>
</g>
<g>
</g>
<g>
</g>
<g>
</g>
<g>
</g>
<g>
</g>
<g>
</g>
<g>
</g>
<g>
</g>
</svg>
