<?xml version="1.0" encoding="iso-8859-1"?>
<!-- Generator: Adobe Illustrator 19.0.0, SVG Export Plug-In . SVG Version: 6.00 Build 0)  -->
<svg version="1.1" id="Capa_1" xmlns="http://www.w3.org/2000/svg" xmlns:xlink="http://www.w3.org/1999/xlink" x="0px" y="0px"
	 viewBox="0 0 407.268 407.268" style="enable-background:new 0 0 407.268 407.268;" xml:space="preserve">
<path id="XMLID_678_" d="M397.991,41.569L333.853,1.374C332.421,0.476,330.764,0,329.074,0H78.195c-1.69,0-3.347,0.476-4.779,1.374
	L9.277,41.568c-3.956,2.479-5.359,7.571-3.233,11.726l45.177,88.289c1.539,3.008,4.633,4.9,8.012,4.9h57.561c4.971,0,9-4.029,9-9
	s-4.029-9-9-9H64.737L25.826,52.44L80.782,18h42.44v9.396c0,31.793,25.866,57.659,57.659,57.659h48.657
	c31.792,0,57.657-25.866,57.657-57.659V18h39.292l54.954,34.44l-38.912,76.043h-52.054c-4.971,0-9,4.029-9,9s4.029,9,9,9h57.559
	c3.379,0,6.473-1.893,8.012-4.9l45.178-88.289C403.35,49.139,401.946,44.047,397.991,41.569z M269.195,27.396
	c0,21.868-17.79,39.659-39.657,39.659h-48.657c-21.868,0-39.659-17.791-39.659-39.659V18h127.974V27.396z M347.32,170.156v228.112
	c0,4.971-4.029,9-9,9H72.096c-4.971,0-9-4.029-9-9V170.156c0-4.971,4.029-9,9-9s9,4.029,9,9v219.112H329.32V170.156
	c0-4.971,4.029-9,9-9S347.32,165.185,347.32,170.156z"/>
<g>
</g>
<g>
</g>
<g>
</g>
<g>
</g>
<g>
</g>
<g>
</g>
<g>
</g>
<g>
</g>
<g>
</g>
<g>
</g>
<g>
</g>
<g>
</g>
<g>
</g>
<g>
</g>
<g>
</g>
</svg>
