<?xml version="1.0" encoding="iso-8859-1"?>
<!-- Generator: Adobe Illustrator 19.0.0, SVG Export Plug-In . SVG Version: 6.00 Build 0)  -->
<svg version="1.1" id="Capa_1" xmlns="http://www.w3.org/2000/svg" xmlns:xlink="http://www.w3.org/1999/xlink" x="0px" y="0px"
	 viewBox="0 0 407.268 407.268" style="enable-background:new 0 0 407.268 407.268;" xml:space="preserve">
<path id="XMLID_41_" d="M244.305,128.106h-81.342c-4.971,0-9,4.029-9,9v40.671c0,27.389,22.282,49.671,49.67,49.671
	c27.389,0,49.672-22.282,49.672-49.671v-40.671C253.305,132.135,249.276,128.106,244.305,128.106z M235.305,177.777
	c0,17.464-14.208,31.671-31.672,31.671c-17.463,0-31.67-14.208-31.67-31.671v-31.671h63.342V177.777z M370.645,69.542
	c-1.86-26.913-11.468-45.373-29.373-56.436C326.602,4.042,306.663,0,276.621,0H130.646c-30.041,0-49.98,4.042-64.65,13.106
	C48.09,24.169,38.483,42.63,36.623,69.542c-3.491,50.526-5.771,102.283-6.972,158.229c-0.186,8.747,3.135,17.061,9.353,23.412
	c6.288,6.424,15.027,10.108,23.976,10.108c17.533,0,31.849-14.027,33.3-32.627l8.857-113.348h7.005v225.292h-15.33
	c-18.377,0-33.329,14.952-33.329,33.33s14.951,33.329,33.329,33.329h58.165c18.376,0,33.327-14.952,33.327-33.33v-78.925
	l15.329-8.187l15.33,8.187v78.926c0,18.378,14.952,33.329,33.33,33.329h58.163c18.377,0,33.328-14.952,33.328-33.33
	c0-18.377-14.951-33.329-33.328-33.329h-15.33V115.316h7.005l8.856,113.347c1.452,18.601,15.768,32.628,33.301,32.628
	c8.949,0,17.688-3.685,23.977-10.109c6.217-6.352,9.538-14.666,9.351-23.413C376.413,171.75,374.133,119.994,370.645,69.542z
	 M163.976,18h79.316v7.621c0,21.868-17.791,39.659-39.659,39.659c-21.867,0-39.657-17.791-39.657-39.659V18z M355.401,238.592
	c-2.924,2.987-6.974,4.7-11.113,4.7c-9.26,0-14.734-8.063-15.356-16.03l-9.504-121.647c-0.366-4.684-4.274-8.299-8.973-8.299h-24.33
	c-4.971,0-9,4.029-9,9v243.292c0,4.971,4.029,9,9,9h24.33c8.452,0,15.328,6.877,15.328,15.33s-6.876,15.329-15.328,15.329h-58.163
	c-8.453,0-15.33-6.877-15.33-15.33v-84.322c0-3.322-1.83-6.374-4.76-7.939l-24.33-12.994c-1.325-0.708-2.782-1.061-4.24-1.061
	s-2.915,0.354-4.24,1.062l-24.329,12.994c-2.93,1.565-4.76,4.617-4.76,7.938v84.323c0,8.453-6.875,15.329-15.327,15.329H96.813
	c-8.452,0-15.329-6.877-15.329-15.33c0-8.452,6.876-15.329,15.329-15.329h24.33c4.971,0,9-4.029,9-9V106.316c0-4.971-4.029-9-9-9
	h-24.33c-4.699,0-8.606,3.614-8.973,8.299l-9.505,121.648c-0.622,7.965-6.096,16.029-15.357,16.029
	c-4.138,0-8.188-1.713-11.111-4.699c-2.803-2.864-4.302-6.571-4.219-10.437c1.194-55.657,3.461-107.134,6.933-157.374
	c1.451-20.999,8.084-34.46,20.876-42.364C87.12,21.213,104.141,18,130.646,18h15.33v7.621c0,31.793,25.865,57.659,57.657,57.659
	c31.793,0,57.659-25.866,57.659-57.659V18h15.329c26.506,0,43.527,3.213,55.189,10.419c12.792,7.904,19.426,21.365,20.877,42.364
	c3.468,50.165,5.735,101.642,6.932,157.373C359.702,232.022,358.205,235.729,355.401,238.592z"/>
<g>
</g>
<g>
</g>
<g>
</g>
<g>
</g>
<g>
</g>
<g>
</g>
<g>
</g>
<g>
</g>
<g>
</g>
<g>
</g>
<g>
</g>
<g>
</g>
<g>
</g>
<g>
</g>
<g>
</g>
</svg>
