<?xml version="1.0" encoding="iso-8859-1"?>
<!-- Generator: Adobe Illustrator 19.0.0, SVG Export Plug-In . SVG Version: 6.00 Build 0)  -->
<svg version="1.1" id="Capa_1" xmlns="http://www.w3.org/2000/svg" xmlns:xlink="http://www.w3.org/1999/xlink" x="0px" y="0px"
	 viewBox="0 0 407.268 407.268" style="enable-background:new 0 0 407.268 407.268;" xml:space="preserve">
<path id="XMLID_61_" d="M172.545,239.837v1.99c0,4.971-4.029,9-9,9s-9-4.029-9-9v-1.99c0-4.971,4.029-9,9-9
	S172.545,234.866,172.545,239.837z M243.729,192.645c-4.971,0-9,4.029-9,9v1.99c0,4.971,4.029,9,9,9s9-4.029,9-9v-1.99
	C252.729,196.674,248.699,192.645,243.729,192.645z M358.608,154.976v243.292c0,4.971-4.029,9-9,9h-97.036
	c-3.401,0-6.513-1.918-8.041-4.957l-6.311-12.549c-9.329-2.548-21.7-3.986-34.586-3.986c-12.946,0-25.375,1.452-34.722,4.022
	l-6.313,12.521c-1.53,3.034-4.639,4.948-8.036,4.948H57.659c-4.971,0-9-4.029-9-9V154.976c0-4.971,4.029-9,9-9
	c21.869,0,39.661-17.791,39.661-39.658V9c0-4.971,4.029-9,9-9h33.941c3.514,0,6.705,2.044,8.175,5.235l5.79,12.574
	c16.491,3.606,31.307,7.442,49.408,6.627c39.332-1.771,48.806-6.56,49.408-6.627l5.79-12.574C260.303,2.044,263.494,0,267.008,0
	h33.943c4.971,0,9,4.029,9,9v97.317c0,21.867,17.79,39.658,39.657,39.658C354.579,145.976,358.608,150.005,358.608,154.976z
	 M163.889,38.792l39.746,86.316l39.746-86.316c-11.749,2.374-25.41,3.645-39.746,3.645S175.638,41.166,163.889,38.792z
	 M194.635,298.811V148.599L134.498,18H115.32v88.317c0,28.732-21.125,52.624-48.661,56.957v225.993h82.363L194.635,298.811z
	 M227.977,369.389l-24.353-48.427l-24.426,48.44c7.59-1.066,15.868-1.627,24.437-1.627
	C212.167,367.775,220.413,368.331,227.977,369.389z M340.608,163.274c-27.534-4.333-48.657-28.225-48.657-56.957V18h-19.18
	l-60.137,130.599v150.217l45.485,90.452h82.488V163.274z M163.545,269.031c-4.971,0-9,4.029-9,9v1.99c0,4.971,4.029,9,9,9
	s9-4.029,9-9v-1.99C172.545,273.061,168.516,269.031,163.545,269.031z M163.545,192.645c-4.971,0-9,4.029-9,9v1.99
	c0,4.971,4.029,9,9,9s9-4.029,9-9v-1.99C172.545,196.674,168.516,192.645,163.545,192.645z M243.729,269.031c-4.971,0-9,4.029-9,9
	v1.99c0,4.971,4.029,9,9,9s9-4.029,9-9v-1.99C252.729,273.061,248.699,269.031,243.729,269.031z M163.545,154.452
	c-4.971,0-9,4.029-9,9v1.99c0,4.971,4.029,9,9,9s9-4.029,9-9v-1.99C172.545,158.481,168.516,154.452,163.545,154.452z
	 M243.729,230.837c-4.971,0-9,4.029-9,9v1.99c0,4.971,4.029,9,9,9s9-4.029,9-9v-1.99
	C252.729,234.866,248.699,230.837,243.729,230.837z M243.729,154.452c-4.971,0-9,4.029-9,9v1.99c0,4.971,4.029,9,9,9s9-4.029,9-9
	v-1.99C252.729,158.481,248.699,154.452,243.729,154.452z"/>
<g>
</g>
<g>
</g>
<g>
</g>
<g>
</g>
<g>
</g>
<g>
</g>
<g>
</g>
<g>
</g>
<g>
</g>
<g>
</g>
<g>
</g>
<g>
</g>
<g>
</g>
<g>
</g>
<g>
</g>
</svg>
