<?xml version="1.0" encoding="iso-8859-1"?>
<!-- Generator: Adobe Illustrator 19.0.0, SVG Export Plug-In . SVG Version: 6.00 Build 0)  -->
<svg version="1.1" id="Capa_1" xmlns="http://www.w3.org/2000/svg" xmlns:xlink="http://www.w3.org/1999/xlink" x="0px" y="0px"
	 viewBox="0 0 426.121 426.121" style="enable-background:new 0 0 426.121 426.121;" xml:space="preserve">
<path id="XMLID_329_" d="M414.172,202.173L348.08,96.082c-1.643-2.638-4.531-4.241-7.639-4.241h-16.835c-4.971,0-9,4.029-9,9
	s4.029,9,9,9h11.838l61.807,99.212L386.21,311.014h-47.638l-5.37-73.864c1.281-0.049,2.573-0.373,3.787-1.001
	c4.415-2.284,6.143-7.715,3.859-12.129l-26.755-51.721c-2.284-4.416-7.714-6.143-12.129-3.859
	c-4.415,2.284-6.143,7.715-3.859,12.129l15.058,29.108c0.004,0.115,0.011,0.231,0.019,0.348l10.623,146.098
	c0.343,4.706,4.261,8.349,8.979,8.348l57.669-0.013c4.595-0.001,8.451-3.463,8.945-8.031L415.481,207.9
	C415.697,205.898,415.238,203.882,414.172,202.173z M382.372,346.459l-41.222,0.009l-1.27-17.454h44.38L382.372,346.459z
	 M171.529,180.008v87.485c0,4.971,4.029,9,9,9s9-4.029,9-9v-84.757c1.339,0.061,2.688,0.092,4.045,0.092h36.652
	c1.357,0,2.703-0.03,4.042-0.092v84.757c0,4.971,4.029,9,9,9s9-4.029,9-9v-87.484c28.053-7.398,48.352-28.519,48.352-53.351V71.982
	c0-22.494-9.963-41.368-28.813-54.583C255.804,6.18,234.465,0,211.724,0c-22.696,0-43.96,6.166-59.875,17.361
	c-18.755,13.193-28.668,32.081-28.668,54.621v54.676C123.181,151.488,143.48,172.608,171.529,180.008z M143.919,138.605
	c3.957-19.63,11.651-34.159,21.09-44.514v34.013c0,12.708,2.876,24.275,7.767,33.468C159.351,157.2,148.7,148.792,143.919,138.605z
	 M240.79,128.104c0,21.642-10.636,36.724-20.181,36.724H203.19c-9.545,0-20.181-15.082-20.181-36.724V79.999
	c9.65-5.159,19.757-7.411,28.891-7.411c9.134,0,19.24,2.251,28.89,7.41V128.104z M251.024,161.572
	c4.891-9.192,7.767-20.76,7.767-33.468V94.09c9.439,10.354,17.136,24.886,21.092,44.516
	C275.102,148.792,264.448,157.2,251.024,161.572z M141.181,71.982c0-16.661,7.074-30.085,21.024-39.898
	C174.929,23.134,192.978,18,211.724,18c34.146,0,70.896,16.893,70.896,53.982v24.169c-4.791-7.787-10.48-14.682-16.992-20.539
	c-15.071-13.558-34.152-21.024-53.728-21.024c-0.001,0,0,0,0,0c-19.574,0-38.656,7.467-53.727,21.023
	c-6.512,5.857-12.201,12.753-16.992,20.54V71.982z M93.342,364.47c4.717,0,8.634-3.643,8.976-8.348l10.621-146.098
	c0.008-0.115,0.014-0.229,0.018-0.344l15.059-29.112c2.284-4.415,0.556-9.845-3.858-12.129c-4.414-2.282-9.845-0.556-12.129,3.859
	L85.275,224.02c-2.284,4.415-0.556,9.845,3.858,12.129c1.215,0.628,2.505,0.952,3.787,1.001l-5.37,73.864H39.911L28.87,209.053
	l61.808-99.212h11.838c4.971,0,9-4.029,9-9s-4.029-9-9-9H85.682c-3.108,0-5.996,1.604-7.639,4.241L11.949,202.173
	c-1.065,1.709-1.526,3.726-1.309,5.728l16.083,148.525c0.495,4.568,4.351,8.03,8.946,8.031l57.671,0.013
	C93.342,364.47,93.342,364.47,93.342,364.47z M84.973,346.468l-41.224-0.009l-1.889-17.445h44.382L84.973,346.468z M364.666,390.411
	l-15.712,30.8c-1.538,3.014-4.635,4.91-8.018,4.91H82.861c-3.383,0-6.48-1.896-8.017-4.91l-15.712-30.8
	c-2.259-4.428-0.5-9.849,3.927-12.106c4.429-2.263,9.848-0.5,12.107,3.927l13.207,25.89h247.051l13.207-25.89
	c2.26-4.427,7.682-6.188,12.107-3.927C365.166,380.563,366.924,385.983,364.666,390.411z M277.467,304.104H146.333
	c-4.179,0-7.808,2.877-8.762,6.945l-16.116,68.727c-0.627,2.676,0.002,5.491,1.709,7.646c1.707,2.153,4.305,3.409,7.053,3.409
	h163.366c2.748,0,5.346-1.256,7.053-3.409c1.707-2.154,2.337-4.97,1.71-7.646l-16.115-68.727
	C285.276,306.98,281.646,304.104,277.467,304.104z M141.571,372.83l11.896-50.727h116.867l11.895,50.727H141.571z"/>
<g>
</g>
<g>
</g>
<g>
</g>
<g>
</g>
<g>
</g>
<g>
</g>
<g>
</g>
<g>
</g>
<g>
</g>
<g>
</g>
<g>
</g>
<g>
</g>
<g>
</g>
<g>
</g>
<g>
</g>
</svg>
